<?xml version="1.0" encoding="UTF-8" standalone="no"?>
<svg width="800" height="400" viewBox="0 0 800 400" xmlns="http://www.w3.org/2000/svg" xmlns:xlink="http://www.w3.org/1999/xlink">

<title>Gnuplot</title>
<desc>Produced by GNUPLOT 5.4 patchlevel 2 </desc>

<g id="gnuplot_canvas">

<rect x="0" y="0" width="800" height="400" fill="none"/>
<defs>

	<circle id="gpDot" r="0.5" stroke-width="0.5" stroke="currentColor"/>
	<path id="gpPt0" stroke-width="0.333" stroke="currentColor" d="M-1,0 h2 M0,-1 v2"/>
	<path id="gpPt1" stroke-width="0.333" stroke="currentColor" d="M-1,-1 L1,1 M1,-1 L-1,1"/>
	<path id="gpPt2" stroke-width="0.333" stroke="currentColor" d="M-1,0 L1,0 M0,-1 L0,1 M-1,-1 L1,1 M-1,1 L1,-1"/>
	<rect id="gpPt3" stroke-width="0.333" stroke="currentColor" x="-1" y="-1" width="2" height="2"/>
	<rect id="gpPt4" stroke-width="0.333" stroke="currentColor" fill="currentColor" x="-1" y="-1" width="2" height="2"/>
	<circle id="gpPt5" stroke-width="0.333" stroke="currentColor" cx="0" cy="0" r="1"/>
	<use xlink:href="#gpPt5" id="gpPt6" fill="currentColor" stroke="none"/>
	<path id="gpPt7" stroke-width="0.333" stroke="currentColor" d="M0,-1.33 L-1.33,0.67 L1.33,0.67 z"/>
	<use xlink:href="#gpPt7" id="gpPt8" fill="currentColor" stroke="none"/>
	<use xlink:href="#gpPt7" id="gpPt9" stroke="currentColor" transform="rotate(180)"/>
	<use xlink:href="#gpPt9" id="gpPt10" fill="currentColor" stroke="none"/>
	<use xlink:href="#gpPt3" id="gpPt11" stroke="currentColor" transform="rotate(45)"/>
	<use xlink:href="#gpPt11" id="gpPt12" fill="currentColor" stroke="none"/>
	<path id="gpPt13" stroke-width="0.333" stroke="currentColor" d="M0,1.330 L1.265,0.411 L0.782,-1.067 L-0.782,-1.076 L-1.265,0.411 z"/>
	<use xlink:href="#gpPt13" id="gpPt14" fill="currentColor" stroke="none"/>
	<filter id="textbox" filterUnits="objectBoundingBox" x="0" y="0" height="1" width="1">
	  <feFlood flood-color="white" flood-opacity="1" result="bgnd"/>
	  <feComposite in="SourceGraphic" in2="bgnd" operator="atop"/>
	</filter>
	<filter id="greybox" filterUnits="objectBoundingBox" x="0" y="0" height="1" width="1">
	  <feFlood flood-color="lightgrey" flood-opacity="1" result="grey"/>
	  <feComposite in="SourceGraphic" in2="grey" operator="atop"/>
	</filter>
</defs>
<g fill="none" color="white" stroke="currentColor" stroke-width="1.00" stroke-linecap="butt" stroke-linejoin="miter">
</g>
<g fill="none" color="black" stroke="currentColor" stroke-width="1.00" stroke-linecap="butt" stroke-linejoin="miter">
	<path stroke="black" d="M56.00,340.00 L62.00,340.00 M787.11,340.00 L781.11,340.00  "/>	<g transform="translate(50.40,342.60)" stroke="none" fill="black" font-family="Helvetica" font-size="8.00" text-anchor="end">
		<text><tspan font-family="Helvetica"> 1</tspan></text>
	</g>
</g>
<g fill="none" color="black" stroke="currentColor" stroke-width="1.00" stroke-linecap="butt" stroke-linejoin="miter">
	<path stroke="black" d="M56.00,306.93 L59.00,306.93 M787.11,306.93 L784.11,306.93 M56.00,287.58 L59.00,287.58 M787.11,287.58 L784.11,287.58   M56.00,273.86 L59.00,273.86 M787.11,273.86 L784.11,273.86 M56.00,263.21 L59.00,263.21 M787.11,263.21 L784.11,263.21   M56.00,254.51 L59.00,254.51 M787.11,254.51 L784.11,254.51 M56.00,247.15 L59.00,247.15 M787.11,247.15 L784.11,247.15   M56.00,240.78 L59.00,240.78 M787.11,240.78 L784.11,240.78 M56.00,235.16 L59.00,235.16 M787.11,235.16 L784.11,235.16   M56.00,230.14 L62.00,230.14 M787.11,230.14 L781.11,230.14  "/>	<g transform="translate(50.40,232.74)" stroke="none" fill="black" font-family="Helvetica" font-size="8.00" text-anchor="end">
		<text><tspan font-family="Helvetica"> 10</tspan></text>
	</g>
</g>
<g fill="none" color="black" stroke="currentColor" stroke-width="1.00" stroke-linecap="butt" stroke-linejoin="miter">
	<path stroke="black" d="M56.00,197.06 L59.00,197.06 M787.11,197.06 L784.11,197.06 M56.00,177.72 L59.00,177.72 M787.11,177.72 L784.11,177.72   M56.00,163.99 L59.00,163.99 M787.11,163.99 L784.11,163.99 M56.00,153.35 L59.00,153.35 M787.11,153.35 L784.11,153.35   M56.00,144.65 L59.00,144.65 M787.11,144.65 L784.11,144.65 M56.00,137.29 L59.00,137.29 M787.11,137.29 L784.11,137.29   M56.00,130.92 L59.00,130.92 M787.11,130.92 L784.11,130.92 M56.00,125.30 L59.00,125.30 M787.11,125.30 L784.11,125.30   M56.00,120.27 L62.00,120.27 M787.11,120.27 L781.11,120.27  "/>	<g transform="translate(50.40,122.87)" stroke="none" fill="black" font-family="Helvetica" font-size="8.00" text-anchor="end">
		<text><tspan font-family="Helvetica"> 100</tspan></text>
	</g>
</g>
<g fill="none" color="black" stroke="currentColor" stroke-width="1.00" stroke-linecap="butt" stroke-linejoin="miter">
	<path stroke="black" d="M56.00,87.20 L59.00,87.20 M787.11,87.20 L784.11,87.20 M56.00,67.86 L59.00,67.86 M787.11,67.86 L784.11,67.86   M56.00,54.13 L59.00,54.13 M787.11,54.13 L784.11,54.13 M56.00,43.48 L59.00,43.48 M787.11,43.48 L784.11,43.48   M56.00,34.78 L59.00,34.78 M787.11,34.78 L784.11,34.78 M56.00,27.43 L59.00,27.43 M787.11,27.43 L784.11,27.43   M56.00,21.06 L59.00,21.06 M787.11,21.06 L784.11,21.06 M56.00,15.44 L59.00,15.44 M787.11,15.44 L784.11,15.44   M56.00,10.41 L62.00,10.41 M787.11,10.41 L781.11,10.41  "/>	<g transform="translate(50.40,13.01)" stroke="none" fill="black" font-family="Helvetica" font-size="8.00" text-anchor="end">
		<text><tspan font-family="Helvetica"> 1000</tspan></text>
	</g>
</g>
<g fill="none" color="black" stroke="currentColor" stroke-width="1.00" stroke-linecap="butt" stroke-linejoin="miter">
</g>
<g fill="none" color="black" stroke="currentColor" stroke-width="1.00" stroke-linecap="butt" stroke-linejoin="miter">
	<path stroke="black" d="M56.00,10.41 L56.00,340.00 L787.11,340.00 L787.11,10.41 L56.00,10.41 Z  "/></g>
<g fill="none" color="black" stroke="currentColor" stroke-width="1.00" stroke-linecap="butt" stroke-linejoin="miter">
	<g transform="translate(31.60,175.21) rotate(270)" stroke="none" fill="black" font-family="Helvetica" font-size="8.00" text-anchor="middle">
		<text><tspan font-family="Helvetica">Min. time in s</tspan></text>
	</g>
</g>
<g fill="none" color="black" stroke="currentColor" stroke-width="1.00" stroke-linecap="butt" stroke-linejoin="miter">
</g>
	<g id="gnuplot_plot_1a"><title>2LS</title>
<g fill="none" color="white" stroke="currentColor" stroke-width="2.00" stroke-linecap="butt" stroke-linejoin="miter">
</g>
<g fill="none" color="black" stroke="currentColor" stroke-width="2.00" stroke-linecap="butt" stroke-linejoin="miter">
	<g transform="translate(128.80,25.01)" stroke="none" fill="black" font-family="Helvetica" font-size="8.00" text-anchor="end">
		<text><tspan font-family="Helvetica">2LS</tspan></text>
	</g>
</g>
<g fill="none" color="black" stroke="currentColor" stroke-width="2.00" stroke-linecap="butt" stroke-linejoin="miter">
	<path stroke="rgb(190, 190, 190)" d="M134.40,22.41 L162.80,22.41 M633.58,340.00 L639.75,256.61  "/>	<use xlink:href="#gpPt13" transform="translate(148.60,22.41) scale(3.00)" color="rgb(190, 190, 190)"/>
</g>
	</g>
	<g id="gnuplot_plot_2a"><title>Bubaak</title>
<g fill="none" color="black" stroke="currentColor" stroke-width="2.00" stroke-linecap="butt" stroke-linejoin="miter">
	<g transform="translate(128.80,37.01)" stroke="none" fill="black" font-family="Helvetica" font-size="8.00" text-anchor="end">
		<text><tspan font-family="Helvetica">Bubaak</tspan></text>
	</g>
</g>
<g fill="none" color="black" stroke="currentColor" stroke-width="2.00" stroke-linecap="butt" stroke-linejoin="miter">
	<path stroke="rgb(255,   0, 255)" d="M134.40,34.41 L162.80,34.41  "/>	<use xlink:href="#gpPt11" transform="translate(148.60,34.41) scale(3.00)" color="rgb(255,   0, 255)"/>
</g>
	</g>
	<g id="gnuplot_plot_3a"><title>Bubaak-SpLit</title>
<g fill="none" color="black" stroke="currentColor" stroke-width="2.00" stroke-linecap="butt" stroke-linejoin="miter">
	<g transform="translate(128.80,49.01)" stroke="none" fill="black" font-family="Helvetica" font-size="8.00" text-anchor="end">
		<text><tspan font-family="Helvetica">Bubaak-SpLit</tspan></text>
	</g>
</g>
<g fill="none" color="black" stroke="currentColor" stroke-width="2.00" stroke-linecap="butt" stroke-linejoin="miter">
	<path stroke="rgb(255,   0, 255)" d="M134.40,46.41 L162.80,46.41 M494.50,340.00 L498.07,295.33 L503.73,259.18 L509.40,249.83 L515.07,209.17 L520.74,207.13   L526.40,202.48 L537.74,150.34 L549.07,140.91 L560.41,108.16 L571.74,62.05 L583.08,17.22  "/>	<use xlink:href="#gpPt9" transform="translate(148.60,46.41) scale(3.00)" color="rgb(255,   0, 255)"/>
</g>
	</g>
	<g id="gnuplot_plot_4a"><title>CBMC</title>
<g fill="none" color="black" stroke="currentColor" stroke-width="2.00" stroke-linecap="butt" stroke-linejoin="miter">
	<g transform="translate(128.80,61.01)" stroke="none" fill="black" font-family="Helvetica" font-size="8.00" text-anchor="end">
		<text><tspan font-family="Helvetica">CBMC</tspan></text>
	</g>
</g>
<g fill="none" color="black" stroke="currentColor" stroke-width="2.00" stroke-linecap="butt" stroke-linejoin="miter">
	<path stroke="rgb(255,   0,   0)" d="M134.40,58.41 L162.80,58.41  "/>	<use xlink:href="#gpPt1" transform="translate(148.60,58.41) scale(3.00)" color="rgb(255,   0,   0)"/>
</g>
	</g>
	<g id="gnuplot_plot_5a"><title>CVT-AlgoSel</title>
<g fill="none" color="black" stroke="currentColor" stroke-width="2.00" stroke-linecap="butt" stroke-linejoin="miter">
	<g transform="translate(128.80,73.01)" stroke="none" fill="black" font-family="Helvetica" font-size="8.00" text-anchor="end">
		<text><tspan font-family="Helvetica">CVT-AlgoSel</tspan></text>
	</g>
</g>
<g fill="none" color="black" stroke="currentColor" stroke-width="2.00" stroke-linecap="butt" stroke-linejoin="miter">
	<path stroke="rgb(  0, 100,   0)" d="M134.40,70.41 L162.80,70.41  "/>	<use xlink:href="#gpPt3" transform="translate(148.60,70.41) scale(3.00)" color="rgb(  0, 100,   0)"/>
</g>
	</g>
	<g id="gnuplot_plot_6a"><title>CVT-ParPort</title>
<g fill="none" color="black" stroke="currentColor" stroke-width="2.00" stroke-linecap="butt" stroke-linejoin="miter">
	<g transform="translate(128.80,85.01)" stroke="none" fill="black" font-family="Helvetica" font-size="8.00" text-anchor="end">
		<text><tspan font-family="Helvetica">CVT-ParPort</tspan></text>
	</g>
</g>
<g fill="none" color="black" stroke="currentColor" stroke-width="2.00" stroke-linecap="butt" stroke-linejoin="miter">
	<path stroke="rgb(  0, 100,   0)" d="M134.40,82.41 L162.80,82.41  "/>	<use xlink:href="#gpPt11" transform="translate(148.60,82.41) scale(3.00)" color="rgb(  0, 100,   0)"/>
</g>
	</g>
	<g id="gnuplot_plot_7a"><title>CPAchecker</title>
<g fill="none" color="black" stroke="currentColor" stroke-width="2.00" stroke-linecap="butt" stroke-linejoin="miter">
	<g transform="translate(128.80,97.01)" stroke="none" fill="black" font-family="Helvetica" font-size="8.00" text-anchor="end">
		<text><tspan font-family="Helvetica">CPAchecker</tspan></text>
	</g>
</g>
<g fill="none" color="black" stroke="currentColor" stroke-width="2.00" stroke-linecap="butt" stroke-linejoin="miter">
	<path stroke="rgb(  0,   0, 255)" d="M134.40,94.41 L162.80,94.41 M481.06,255.33 L486.73,253.69 L492.40,250.60 L498.07,250.20 L503.73,249.97 L509.40,248.56   L515.07,247.76 L526.40,245.80 L532.07,241.95 L537.74,240.76 L543.41,240.20 L549.07,238.89 L554.74,200.88 L560.41,186.66   L571.74,133.75 L577.41,119.75 L588.75,115.56 L600.08,106.86 L611.42,101.74 L622.75,101.53 L628.42,101.42 L639.75,100.80   L651.09,97.76 L662.42,85.49 L673.76,85.41 L685.09,85.33 L696.43,85.32 L707.76,74.74 L719.10,18.60  "/>	<use xlink:href="#gpPt2" transform="translate(481.06,255.33) scale(3.00)" color="rgb(  0,   0, 255)"/>
	<use xlink:href="#gpPt2" transform="translate(148.60,94.41) scale(3.00)" color="rgb(  0,   0, 255)"/>
</g>
	</g>
	<g id="gnuplot_plot_8a"><title>CPV</title>
<g fill="none" color="black" stroke="currentColor" stroke-width="2.00" stroke-linecap="butt" stroke-linejoin="miter">
	<g transform="translate(128.80,109.01)" stroke="none" fill="black" font-family="Helvetica" font-size="8.00" text-anchor="end">
		<text><tspan font-family="Helvetica">CPV</tspan></text>
	</g>
</g>
<g fill="none" color="black" stroke="currentColor" stroke-width="2.00" stroke-linecap="butt" stroke-linejoin="miter">
	<path stroke="rgb(160, 128,  32)" d="M134.40,106.41 L162.80,106.41 M481.06,323.50 L492.40,322.48 L503.73,320.29 L515.07,317.42 L526.40,316.36 L532.07,315.57   L543.41,315.44 L554.74,315.20 L566.08,314.61 L577.41,314.21 L588.75,314.07 L600.08,313.86 L611.42,312.37 L622.75,312.16   L634.09,308.30 L639.75,307.81 L651.09,166.87  "/>	<use xlink:href="#gpPt2" transform="translate(481.06,323.50) scale(3.00)" color="rgb(160, 128,  32)"/>
	<use xlink:href="#gpPt2" transform="translate(148.60,106.41) scale(3.00)" color="rgb(160, 128,  32)"/>
</g>
	</g>
	<g id="gnuplot_plot_9a"><title>Crux</title>
<g fill="none" color="black" stroke="currentColor" stroke-width="2.00" stroke-linecap="butt" stroke-linejoin="miter">
	<g transform="translate(128.80,121.01)" stroke="none" fill="black" font-family="Helvetica" font-size="8.00" text-anchor="end">
		<text><tspan font-family="Helvetica">Crux</tspan></text>
	</g>
</g>
<g fill="none" color="black" stroke="currentColor" stroke-width="2.00" stroke-linecap="butt" stroke-linejoin="miter">
	<path stroke="rgb(255,   0,   0)" d="M134.40,118.41 L162.80,118.41 M319.22,340.00 L322.37,309.05 L333.71,308.96 L339.38,305.58 L345.04,299.56  "/>	<use xlink:href="#gpPt10" transform="translate(148.60,118.41) scale(3.00)" color="rgb(255,   0,   0)"/>
</g>
	</g>
	<g id="gnuplot_plot_10a"><title>DIVINE</title>
<g fill="none" color="black" stroke="currentColor" stroke-width="2.00" stroke-linecap="butt" stroke-linejoin="miter">
	<g transform="translate(128.80,133.01)" stroke="none" fill="black" font-family="Helvetica" font-size="8.00" text-anchor="end">
		<text><tspan font-family="Helvetica">DIVINE</tspan></text>
	</g>
</g>
<g fill="none" color="black" stroke="currentColor" stroke-width="2.00" stroke-linecap="butt" stroke-linejoin="miter">
	<path stroke="rgb(139,   0,   0)" d="M134.40,130.41 L162.80,130.41 M481.06,239.60 L492.40,239.44 L503.73,238.67 L515.07,238.62 L526.40,238.60 L537.74,238.34   L549.07,238.25 L560.41,238.23 L571.74,238.17 L583.08,237.78 L594.41,237.73 L605.75,237.69 L611.42,218.15 L622.75,217.20   L628.42,214.25 L639.75,213.50 L651.09,130.15  "/>	<use xlink:href="#gpPt0" transform="translate(481.06,239.60) scale(3.00)" color="rgb(139,   0,   0)"/>
	<use xlink:href="#gpPt0" transform="translate(148.60,130.41) scale(3.00)" color="rgb(139,   0,   0)"/>
</g>
	</g>
	<g id="gnuplot_plot_11a"><title>EmergenTheta</title>
<g fill="none" color="black" stroke="currentColor" stroke-width="2.00" stroke-linecap="butt" stroke-linejoin="miter">
	<g transform="translate(128.80,145.01)" stroke="none" fill="black" font-family="Helvetica" font-size="8.00" text-anchor="end">
		<text><tspan font-family="Helvetica">EmergenTheta</tspan></text>
	</g>
</g>
<g fill="none" color="black" stroke="currentColor" stroke-width="2.00" stroke-linecap="butt" stroke-linejoin="miter">
	<path stroke="rgb(128,  96, 255)" d="M134.40,142.41 L162.80,142.41 M481.06,188.29 L486.73,76.04 L498.07,60.63 L509.40,56.31 L520.74,46.35 L532.07,41.74   L543.41,18.43  "/>	<use xlink:href="#gpPt9" transform="translate(481.06,188.29) scale(3.00)" color="rgb(128,  96, 255)"/>
	<use xlink:href="#gpPt9" transform="translate(148.60,142.41) scale(3.00)" color="rgb(128,  96, 255)"/>
</g>
	</g>
	<g id="gnuplot_plot_12a"><title>ESBMC-kind</title>
<g fill="none" color="black" stroke="currentColor" stroke-width="2.00" stroke-linecap="butt" stroke-linejoin="miter">
	<g transform="translate(128.80,157.01)" stroke="none" fill="black" font-family="Helvetica" font-size="8.00" text-anchor="end">
		<text><tspan font-family="Helvetica">ESBMC-kind</tspan></text>
	</g>
</g>
<g fill="none" color="black" stroke="currentColor" stroke-width="2.00" stroke-linecap="butt" stroke-linejoin="miter">
	<path stroke="rgb(255, 215,   0)" d="M134.40,154.41 L162.80,154.41 M261.15,340.00 L265.70,309.98 L277.03,216.52 L288.37,206.23  "/>	<use xlink:href="#gpPt5" transform="translate(148.60,154.41) scale(3.00)" color="rgb(255, 215,   0)"/>
</g>
	</g>
	<g id="gnuplot_plot_13a"><title>Gazer-Theta</title>
<g fill="none" color="black" stroke="currentColor" stroke-width="2.00" stroke-linecap="butt" stroke-linejoin="miter">
	<g transform="translate(128.80,169.01)" stroke="none" fill="black" font-family="Helvetica" font-size="8.00" text-anchor="end">
		<text><tspan font-family="Helvetica">Gazer-Theta</tspan></text>
	</g>
</g>
<g fill="none" color="black" stroke="currentColor" stroke-width="2.00" stroke-linecap="butt" stroke-linejoin="miter">
	<path stroke="rgb(128,  96, 255)" d="M134.40,166.41 L162.80,166.41  "/>	<use xlink:href="#gpPt2" transform="translate(148.60,166.41) scale(3.00)" color="rgb(128,  96, 255)"/>
</g>
	</g>
	<g id="gnuplot_plot_14a"><title>Goblint</title>
<g fill="none" color="black" stroke="currentColor" stroke-width="2.00" stroke-linecap="butt" stroke-linejoin="miter">
	<g transform="translate(128.80,181.01)" stroke="none" fill="black" font-family="Helvetica" font-size="8.00" text-anchor="end">
		<text><tspan font-family="Helvetica">Goblint</tspan></text>
	</g>
</g>
<g fill="none" color="black" stroke="currentColor" stroke-width="2.00" stroke-linecap="butt" stroke-linejoin="miter">
	<path stroke="rgb(  0, 139, 139)" d="M134.40,178.41 L162.80,178.41  "/>	<use xlink:href="#gpPt11" transform="translate(148.60,178.41) scale(3.00)" color="rgb(  0, 139, 139)"/>
</g>
	</g>
	<g id="gnuplot_plot_15a"><title>Graves-CPA</title>
<g fill="none" color="black" stroke="currentColor" stroke-width="2.00" stroke-linecap="butt" stroke-linejoin="miter">
	<g transform="translate(128.80,193.01)" stroke="none" fill="black" font-family="Helvetica" font-size="8.00" text-anchor="end">
		<text><tspan font-family="Helvetica">Graves-CPA</tspan></text>
	</g>
</g>
<g fill="none" color="black" stroke="currentColor" stroke-width="2.00" stroke-linecap="butt" stroke-linejoin="miter">
	<path stroke="rgb(  0, 100,   0)" d="M134.40,190.41 L162.80,190.41  "/>	<use xlink:href="#gpPt1" transform="translate(148.60,190.41) scale(3.00)" color="rgb(  0, 100,   0)"/>
</g>
	</g>
	<g id="gnuplot_plot_16a"><title>Graves-Par</title>
<g fill="none" color="black" stroke="currentColor" stroke-width="2.00" stroke-linecap="butt" stroke-linejoin="miter">
	<g transform="translate(128.80,205.01)" stroke="none" fill="black" font-family="Helvetica" font-size="8.00" text-anchor="end">
		<text><tspan font-family="Helvetica">Graves-Par</tspan></text>
	</g>
</g>
<g fill="none" color="black" stroke="currentColor" stroke-width="2.00" stroke-linecap="butt" stroke-linejoin="miter">
	<path stroke="rgb(  0, 100,   0)" d="M134.40,202.41 L162.80,202.41  "/>	<use xlink:href="#gpPt7" transform="translate(148.60,202.41) scale(3.00)" color="rgb(  0, 100,   0)"/>
</g>
	</g>
	<g id="gnuplot_plot_17a"><title>Korn</title>
<g fill="none" color="black" stroke="currentColor" stroke-width="2.00" stroke-linecap="butt" stroke-linejoin="miter">
	<g transform="translate(128.80,217.01)" stroke="none" fill="black" font-family="Helvetica" font-size="8.00" text-anchor="end">
		<text><tspan font-family="Helvetica">Korn</tspan></text>
	</g>
</g>
<g fill="none" color="black" stroke="currentColor" stroke-width="2.00" stroke-linecap="butt" stroke-linejoin="miter">
	<path stroke="rgb(  0, 139, 139)" d="M134.40,214.41 L162.80,214.41 M475.40,334.99 L481.06,334.09 L492.40,215.55 L503.73,215.49 L515.07,215.26 L526.40,213.48   L537.74,213.03 L549.07,211.65 L560.41,209.46 L571.74,209.06 L583.08,207.60 L594.41,204.94 L605.75,200.44 L617.08,198.39   L628.42,193.86 L639.75,190.01 L651.09,186.02  "/>	<use xlink:href="#gpPt0" transform="translate(475.40,334.99) scale(3.00)" color="rgb(  0, 139, 139)"/>
	<use xlink:href="#gpPt0" transform="translate(148.60,214.41) scale(3.00)" color="rgb(  0, 139, 139)"/>
</g>
	</g>
	<g id="gnuplot_plot_18a"><title>Mopsa</title>
<g fill="none" color="black" stroke="currentColor" stroke-width="2.00" stroke-linecap="butt" stroke-linejoin="miter">
	<g transform="translate(128.80,229.01)" stroke="none" fill="black" font-family="Helvetica" font-size="8.00" text-anchor="end">
		<text><tspan font-family="Helvetica">Mopsa</tspan></text>
	</g>
</g>
<g fill="none" color="black" stroke="currentColor" stroke-width="2.00" stroke-linecap="butt" stroke-linejoin="miter">
	<path stroke="rgb(165,  42,  42)" d="M134.40,226.41 L162.80,226.41 M481.06,250.07 L492.40,249.13 L503.73,248.96 L515.07,245.19  "/>	<use xlink:href="#gpPt3" transform="translate(481.06,250.07) scale(3.00)" color="rgb(165,  42,  42)"/>
	<use xlink:href="#gpPt3" transform="translate(148.60,226.41) scale(3.00)" color="rgb(165,  42,  42)"/>
</g>
	</g>
	<g id="gnuplot_plot_19a"><title>PeSCo-CPA</title>
<g fill="none" color="black" stroke="currentColor" stroke-width="2.00" stroke-linecap="butt" stroke-linejoin="miter">
	<g transform="translate(128.80,241.01)" stroke="none" fill="black" font-family="Helvetica" font-size="8.00" text-anchor="end">
		<text><tspan font-family="Helvetica">PeSCo-CPA</tspan></text>
	</g>
</g>
<g fill="none" color="black" stroke="currentColor" stroke-width="2.00" stroke-linecap="butt" stroke-linejoin="miter">
	<path stroke="rgb(  0, 100,   0)" d="M134.40,238.41 L162.80,238.41  "/>	<use xlink:href="#gpPt5" transform="translate(148.60,238.41) scale(3.00)" color="rgb(  0, 100,   0)"/>
</g>
	</g>
	<g id="gnuplot_plot_20a"><title>Pinaka</title>
<g fill="none" color="black" stroke="currentColor" stroke-width="2.00" stroke-linecap="butt" stroke-linejoin="miter">
	<g transform="translate(128.80,253.01)" stroke="none" fill="black" font-family="Helvetica" font-size="8.00" text-anchor="end">
		<text><tspan font-family="Helvetica">Pinaka</tspan></text>
	</g>
</g>
<g fill="none" color="black" stroke="currentColor" stroke-width="2.00" stroke-linecap="butt" stroke-linejoin="miter">
	<path stroke="rgb(190, 190, 190)" d="M134.40,250.41 L162.80,250.41  "/>	<use xlink:href="#gpPt5" transform="translate(148.60,250.41) scale(3.00)" color="rgb(190, 190, 190)"/>
</g>
	</g>
	<g id="gnuplot_plot_21a"><title>Symbiotic</title>
<g fill="none" color="black" stroke="currentColor" stroke-width="2.00" stroke-linecap="butt" stroke-linejoin="miter">
	<g transform="translate(128.80,265.01)" stroke="none" fill="black" font-family="Helvetica" font-size="8.00" text-anchor="end">
		<text><tspan font-family="Helvetica">Symbiotic</tspan></text>
	</g>
</g>
<g fill="none" color="black" stroke="currentColor" stroke-width="2.00" stroke-linecap="butt" stroke-linejoin="miter">
	<path stroke="rgb(255, 165,   0)" d="M134.40,262.41 L162.80,262.41 M557.59,340.00 L560.41,328.93 L566.08,300.11 L571.74,294.16 L577.41,260.63 L583.08,252.98   L588.75,251.13 L594.41,246.57 L600.08,226.81 L611.42,186.75 L617.08,74.23 L628.42,54.51 L639.75,52.52 L651.09,48.89   L662.42,40.15 L673.76,23.09  "/>	<use xlink:href="#gpPt5" transform="translate(148.60,262.41) scale(3.00)" color="rgb(255, 165,   0)"/>
</g>
	</g>
	<g id="gnuplot_plot_22a"><title>Theta</title>
<g fill="none" color="black" stroke="currentColor" stroke-width="2.00" stroke-linecap="butt" stroke-linejoin="miter">
	<g transform="translate(128.80,277.01)" stroke="none" fill="black" font-family="Helvetica" font-size="8.00" text-anchor="end">
		<text><tspan font-family="Helvetica">Theta</tspan></text>
	</g>
</g>
<g fill="none" color="black" stroke="currentColor" stroke-width="2.00" stroke-linecap="butt" stroke-linejoin="miter">
	<path stroke="rgb(128,  96, 255)" d="M134.40,274.41 L162.80,274.41 M481.06,234.74 L492.40,205.54 L503.73,198.47 L515.07,187.97 L520.74,187.34 L526.40,185.87   L537.74,168.51 L549.07,128.33 L560.41,74.58  "/>	<use xlink:href="#gpPt1" transform="translate(481.06,234.74) scale(3.00)" color="rgb(128,  96, 255)"/>
	<use xlink:href="#gpPt1" transform="translate(148.60,274.41) scale(3.00)" color="rgb(128,  96, 255)"/>
</g>
	</g>
	<g id="gnuplot_plot_23a"><title>UAutomizer</title>
<g fill="none" color="black" stroke="currentColor" stroke-width="2.00" stroke-linecap="butt" stroke-linejoin="miter">
	<g transform="translate(128.80,289.01)" stroke="none" fill="black" font-family="Helvetica" font-size="8.00" text-anchor="end">
		<text><tspan font-family="Helvetica">UAutomizer</tspan></text>
	</g>
</g>
<g fill="none" color="black" stroke="currentColor" stroke-width="2.00" stroke-linecap="butt" stroke-linejoin="miter">
	<path stroke="rgb(250, 128, 114)" d="M134.40,286.41 L162.80,286.41 M475.40,202.95 L481.06,202.65 L486.73,202.23 L492.40,201.11 L498.07,200.58 L503.73,200.52   L509.40,199.51 L520.74,199.47 L526.40,198.10 L537.74,197.01 L543.41,195.32 L549.07,193.84 L560.41,192.12 L566.08,191.47   L577.41,189.34 L588.75,188.66 L594.41,185.37 L605.75,183.37 L617.08,181.39 L628.42,168.39 L639.75,159.64 L651.09,150.26   L662.42,140.29 L673.76,119.53 L679.43,101.83 L690.76,96.28 L702.10,93.00  "/>	<use xlink:href="#gpPt5" transform="translate(475.40,202.95) scale(3.00)" color="rgb(250, 128, 114)"/>
	<use xlink:href="#gpPt5" transform="translate(148.60,286.41) scale(3.00)" color="rgb(250, 128, 114)"/>
</g>
	</g>
	<g id="gnuplot_plot_24a"><title>UKojak</title>
<g fill="none" color="black" stroke="currentColor" stroke-width="2.00" stroke-linecap="butt" stroke-linejoin="miter">
	<g transform="translate(128.80,301.01)" stroke="none" fill="black" font-family="Helvetica" font-size="8.00" text-anchor="end">
		<text><tspan font-family="Helvetica">UKojak</tspan></text>
	</g>
</g>
<g fill="none" color="black" stroke="currentColor" stroke-width="2.00" stroke-linecap="butt" stroke-linejoin="miter">
	<path stroke="rgb(250, 128, 114)" d="M134.40,298.41 L162.80,298.41 M475.40,204.29 L486.73,203.06 L492.40,202.61 L498.07,202.34 L503.73,202.15 L509.40,201.51   L515.07,200.76 L520.74,200.72 L532.07,199.09 L537.74,198.99 L543.41,198.62 L549.07,198.35 L554.74,197.65 L560.41,193.84   L571.74,176.86 L583.08,173.44 L594.41,166.54 L605.75,161.21 L617.08,149.43 L628.42,144.53 L639.75,134.65 L651.09,123.63   L662.42,115.93 L673.76,108.26 L685.09,98.68 L696.43,96.39 L707.76,87.46 L713.43,77.63  "/>	<use xlink:href="#gpPt9" transform="translate(475.40,204.29) scale(3.00)" color="rgb(250, 128, 114)"/>
	<use xlink:href="#gpPt9" transform="translate(148.60,298.41) scale(3.00)" color="rgb(250, 128, 114)"/>
</g>
	</g>
	<g id="gnuplot_plot_25a"><title>UTaipan</title>
<g fill="none" color="black" stroke="currentColor" stroke-width="2.00" stroke-linecap="butt" stroke-linejoin="miter">
	<g transform="translate(128.80,313.01)" stroke="none" fill="black" font-family="Helvetica" font-size="8.00" text-anchor="end">
		<text><tspan font-family="Helvetica">UTaipan</tspan></text>
	</g>
</g>
<g fill="none" color="black" stroke="currentColor" stroke-width="2.00" stroke-linecap="butt" stroke-linejoin="miter">
	<path stroke="rgb(250, 128, 114)" d="M134.40,310.41 L162.80,310.41 M475.40,204.29 L481.06,204.12 L486.73,203.13 L492.40,202.94 L498.07,200.00 L503.73,199.65   L515.07,199.47 L520.74,198.87 L526.40,198.74 L532.07,198.53 L543.41,195.95 L554.74,195.80 L560.41,195.49 L566.08,195.39   L571.74,191.28 L583.08,190.78 L594.41,190.77 L605.75,190.58 L617.08,190.53 L628.42,189.72 L639.75,188.79 L651.09,188.35   L662.42,187.06 L673.76,186.67 L685.09,184.25 L696.43,180.63 L707.76,101.51 L713.43,92.31  "/>	<use xlink:href="#gpPt13" transform="translate(475.40,204.29) scale(3.00)" color="rgb(250, 128, 114)"/>
	<use xlink:href="#gpPt13" transform="translate(148.60,310.41) scale(3.00)" color="rgb(250, 128, 114)"/>
</g>
	</g>
	<g id="gnuplot_plot_26a"><title>VeriAbs</title>
<g fill="none" color="black" stroke="currentColor" stroke-width="2.00" stroke-linecap="butt" stroke-linejoin="miter">
	<g transform="translate(128.80,325.01)" stroke="none" fill="black" font-family="Helvetica" font-size="8.00" text-anchor="end">
		<text><tspan font-family="Helvetica">VeriAbs</tspan></text>
	</g>
</g>
<g fill="none" color="black" stroke="currentColor" stroke-width="2.00" stroke-linecap="butt" stroke-linejoin="miter">
	<path stroke="rgb(200, 200,   0)" d="M134.40,322.41 L162.80,322.41 M481.06,268.78 L492.40,267.66 L498.07,240.71 L503.73,240.53 L509.40,240.29 L515.07,235.30   L526.40,198.49 L537.74,198.46 L549.07,196.92 L560.41,196.87 L571.74,196.27 L583.08,195.08 L594.41,194.75 L605.75,193.07   L617.08,192.92 L628.42,192.89 L639.75,190.33 L651.09,188.30 L662.42,187.73 L673.76,184.15 L685.09,174.86 L690.76,91.63   L702.10,63.43 L713.43,51.04  "/>	<use xlink:href="#gpPt2" transform="translate(481.06,268.78) scale(3.00)" color="rgb(200, 200,   0)"/>
	<use xlink:href="#gpPt2" transform="translate(148.60,322.41) scale(3.00)" color="rgb(200, 200,   0)"/>
</g>
	</g>
	<g id="gnuplot_plot_27a"><title>VeriAbsL</title>
<g fill="none" color="black" stroke="currentColor" stroke-width="2.00" stroke-linecap="butt" stroke-linejoin="miter">
	<g transform="translate(128.80,337.01)" stroke="none" fill="black" font-family="Helvetica" font-size="8.00" text-anchor="end">
		<text><tspan font-family="Helvetica">VeriAbsL</tspan></text>
	</g>
</g>
<g fill="none" color="black" stroke="currentColor" stroke-width="2.00" stroke-linecap="butt" stroke-linejoin="miter">
	<path stroke="rgb(200, 200,   0)" d="M134.40,334.41 L162.80,334.41 M481.06,212.35 L492.40,209.41 L503.73,209.13 L515.07,206.90 L526.40,203.17 L532.07,200.13   L537.74,199.79 L543.41,199.34 L549.07,199.10 L560.41,186.89 L571.74,186.06 L583.08,185.51 L594.41,184.43 L605.75,183.05   L617.08,181.96 L628.42,181.93 L639.75,180.83 L651.09,180.64 L662.42,179.92 L673.76,179.11 L685.09,177.76 L690.76,169.92   L696.43,169.33 L707.76,133.67 L719.10,116.38 L724.77,105.40 L730.43,88.64  "/>	<use xlink:href="#gpPt3" transform="translate(481.06,212.35) scale(3.00)" color="rgb(200, 200,   0)"/>
	<use xlink:href="#gpPt3" transform="translate(148.60,334.41) scale(3.00)" color="rgb(200, 200,   0)"/>
</g>
	</g>
<g fill="none" color="black" stroke="currentColor" stroke-width="2.00" stroke-linecap="butt" stroke-linejoin="miter">
</g>
<g fill="none" color="black" stroke="black" stroke-width="1.00" stroke-linecap="butt" stroke-linejoin="miter">
</g>
<g fill="none" color="black" stroke="currentColor" stroke-width="1.00" stroke-linecap="butt" stroke-linejoin="miter">
	<path stroke="black" d="M56.00,10.41 L56.00,340.00 L787.11,340.00 L787.11,10.41 L56.00,10.41 Z  "/></g>
<g fill="none" color="black" stroke="currentColor" stroke-width="1.00" stroke-linecap="butt" stroke-linejoin="miter">
</g>
<g fill="none" color="black" stroke="currentColor" stroke-width="1.00" stroke-linecap="butt" stroke-linejoin="miter">
	<path stroke="black" d="M129.68,357.60 L129.68,351.60  "/>	<g transform="translate(129.68,372.20)" stroke="none" fill="black" font-family="Helvetica" font-size="8.00" text-anchor="middle">
		<text><tspan font-family="Helvetica">-60</tspan></text>
	</g>
</g>
<g fill="none" color="black" stroke="currentColor" stroke-width="1.00" stroke-linecap="butt" stroke-linejoin="miter">
	<path stroke="black" d="M243.03,357.60 L243.03,351.60  "/>	<g transform="translate(243.03,372.20)" stroke="none" fill="black" font-family="Helvetica" font-size="8.00" text-anchor="middle">
		<text><tspan font-family="Helvetica">-40</tspan></text>
	</g>
</g>
<g fill="none" color="black" stroke="currentColor" stroke-width="1.00" stroke-linecap="butt" stroke-linejoin="miter">
	<path stroke="black" d="M356.38,357.60 L356.38,351.60  "/>	<g transform="translate(356.38,372.20)" stroke="none" fill="black" font-family="Helvetica" font-size="8.00" text-anchor="middle">
		<text><tspan font-family="Helvetica">-20</tspan></text>
	</g>
</g>
<g fill="none" color="black" stroke="currentColor" stroke-width="1.00" stroke-linecap="butt" stroke-linejoin="miter">
	<path stroke="black" d="M469.73,357.60 L469.73,351.60  "/>	<g transform="translate(469.73,372.20)" stroke="none" fill="black" font-family="Helvetica" font-size="8.00" text-anchor="middle">
		<text><tspan font-family="Helvetica"> 0</tspan></text>
	</g>
</g>
<g fill="none" color="black" stroke="currentColor" stroke-width="1.00" stroke-linecap="butt" stroke-linejoin="miter">
	<path stroke="black" d="M583.08,357.60 L583.08,351.60  "/>	<g transform="translate(583.08,372.20)" stroke="none" fill="black" font-family="Helvetica" font-size="8.00" text-anchor="middle">
		<text><tspan font-family="Helvetica"> 20</tspan></text>
	</g>
</g>
<g fill="none" color="black" stroke="currentColor" stroke-width="1.00" stroke-linecap="butt" stroke-linejoin="miter">
	<path stroke="black" d="M696.43,357.60 L696.43,351.60  "/>	<g transform="translate(696.43,372.20)" stroke="none" fill="black" font-family="Helvetica" font-size="8.00" text-anchor="middle">
		<text><tspan font-family="Helvetica"> 40</tspan></text>
	</g>
</g>
<g fill="none" color="black" stroke="currentColor" stroke-width="1.00" stroke-linecap="butt" stroke-linejoin="miter">
</g>
<g fill="none" color="black" stroke="currentColor" stroke-width="1.00" stroke-linecap="butt" stroke-linejoin="miter">
	<path stroke="black" d="M56.00,340.00 L56.00,357.60 L787.11,357.60 L787.11,340.00 L56.00,340.00 Z  "/></g>
<g fill="none" color="black" stroke="currentColor" stroke-width="1.00" stroke-linecap="butt" stroke-linejoin="miter">
	<g transform="translate(421.55,390.20)" stroke="none" fill="black" font-family="Helvetica" font-size="8.00" text-anchor="middle">
		<text><tspan font-family="Helvetica">Cumulative score</tspan></text>
	</g>
</g>
<g fill="none" color="black" stroke="currentColor" stroke-width="1.00" stroke-linecap="butt" stroke-linejoin="miter">
</g>
	<g id="gnuplot_plot_1b"><title>2LS</title>
<g fill="none" color="white" stroke="currentColor" stroke-width="2.00" stroke-linecap="butt" stroke-linejoin="miter">
</g>
<g fill="none" color="black" stroke="currentColor" stroke-width="2.00" stroke-linecap="butt" stroke-linejoin="miter">
	<path stroke="rgb(190, 190, 190)" d="M481.06,355.42 L492.40,355.39 L503.73,355.28 L515.07,355.26 L526.40,355.14 L537.74,355.06 L549.07,355.04 L560.41,355.03   L571.74,354.99 L583.08,354.97 L594.41,354.95 L605.75,354.81 L617.08,354.39 L622.75,353.72 L628.42,353.53 L630.00,340.00    "/>	<use xlink:href="#gpPt13" transform="translate(481.06,355.42) scale(3.00)" color="rgb(190, 190, 190)"/>
</g>
	</g>
	<g id="gnuplot_plot_2b"><title>Bubaak</title>
<g fill="none" color="black" stroke="currentColor" stroke-width="2.00" stroke-linecap="butt" stroke-linejoin="miter">
</g>
	</g>
	<g id="gnuplot_plot_3b"><title>Bubaak-SpLit</title>
<g fill="none" color="black" stroke="currentColor" stroke-width="2.00" stroke-linecap="butt" stroke-linejoin="miter">
	<path stroke="rgb(255,   0, 255)" d="M481.06,348.19 L492.40,347.49 L493.62,340.00  "/>	<use xlink:href="#gpPt9" transform="translate(481.06,348.19) scale(3.00)" color="rgb(255,   0, 255)"/>
</g>
	</g>
	<g id="gnuplot_plot_4b"><title>CBMC</title>
<g fill="none" color="black" stroke="currentColor" stroke-width="2.00" stroke-linecap="butt" stroke-linejoin="miter">
</g>
	</g>
	<g id="gnuplot_plot_5b"><title>CVT-AlgoSel</title>
<g fill="none" color="black" stroke="currentColor" stroke-width="2.00" stroke-linecap="butt" stroke-linejoin="miter">
</g>
	</g>
	<g id="gnuplot_plot_6b"><title>CVT-ParPort</title>
<g fill="none" color="black" stroke="currentColor" stroke-width="2.00" stroke-linecap="butt" stroke-linejoin="miter">
</g>
	</g>
	<g id="gnuplot_plot_7b"><title>CPAchecker</title>
<g fill="none" color="black" stroke="currentColor" stroke-width="2.00" stroke-linecap="butt" stroke-linejoin="miter">
</g>
	</g>
	<g id="gnuplot_plot_8b"><title>CPV</title>
<g fill="none" color="black" stroke="currentColor" stroke-width="2.00" stroke-linecap="butt" stroke-linejoin="miter">
</g>
	</g>
	<g id="gnuplot_plot_9b"><title>Crux</title>
<g fill="none" color="black" stroke="currentColor" stroke-width="2.00" stroke-linecap="butt" stroke-linejoin="miter">
	<path stroke="rgb(255,   0,   0)" d="M299.70,354.26 L311.04,354.22 L316.71,347.14 L318.45,340.00  "/>	<use xlink:href="#gpPt10" transform="translate(299.70,354.26) scale(3.00)" color="rgb(255,   0,   0)"/>
</g>
	</g>
	<g id="gnuplot_plot_10b"><title>DIVINE</title>
<g fill="none" color="black" stroke="currentColor" stroke-width="2.00" stroke-linecap="butt" stroke-linejoin="miter">
</g>
	</g>
	<g id="gnuplot_plot_11b"><title>EmergenTheta</title>
<g fill="none" color="black" stroke="currentColor" stroke-width="2.00" stroke-linecap="butt" stroke-linejoin="miter">
</g>
	</g>
	<g id="gnuplot_plot_12b"><title>ESBMC-kind</title>
<g fill="none" color="black" stroke="currentColor" stroke-width="2.00" stroke-linecap="butt" stroke-linejoin="miter">
	<path stroke="rgb(255, 215,   0)" d="M112.68,353.89 L124.01,353.82 L135.35,353.78 L146.68,353.72 L158.02,353.45 L169.35,353.36 L175.02,353.22 L186.35,353.11   L197.69,353.07 L209.02,352.90 L220.36,352.70 L231.69,352.65 L243.03,351.72 L254.36,350.73 L259.01,340.00  "/>	<use xlink:href="#gpPt5" transform="translate(112.68,353.89) scale(3.00)" color="rgb(255, 215,   0)"/>
</g>
	</g>
	<g id="gnuplot_plot_13b"><title>Gazer-Theta</title>
<g fill="none" color="black" stroke="currentColor" stroke-width="2.00" stroke-linecap="butt" stroke-linejoin="miter">
</g>
	</g>
	<g id="gnuplot_plot_14b"><title>Goblint</title>
<g fill="none" color="black" stroke="currentColor" stroke-width="2.00" stroke-linecap="butt" stroke-linejoin="miter">
	<path stroke="rgb(  0, 139, 139)" d="M481.06,355.63 L492.40,355.56 L503.73,355.55 L515.07,355.53 L526.40,355.50 L537.74,355.48 L549.07,355.48 L560.41,355.47   L571.74,355.47 L583.08,355.46 L594.41,355.06 L605.75,354.92 L617.08,354.83  "/>	<use xlink:href="#gpPt11" transform="translate(481.06,355.63) scale(3.00)" color="rgb(  0, 139, 139)"/>
</g>
	</g>
	<g id="gnuplot_plot_15b"><title>Graves-CPA</title>
<g fill="none" color="black" stroke="currentColor" stroke-width="2.00" stroke-linecap="butt" stroke-linejoin="miter">
</g>
	</g>
	<g id="gnuplot_plot_16b"><title>Graves-Par</title>
<g fill="none" color="black" stroke="currentColor" stroke-width="2.00" stroke-linecap="butt" stroke-linejoin="miter">
</g>
	</g>
	<g id="gnuplot_plot_17b"><title>Korn</title>
<g fill="none" color="black" stroke="currentColor" stroke-width="2.00" stroke-linecap="butt" stroke-linejoin="miter">
</g>
	</g>
	<g id="gnuplot_plot_18b"><title>Mopsa</title>
<g fill="none" color="black" stroke="currentColor" stroke-width="2.00" stroke-linecap="butt" stroke-linejoin="miter">
</g>
	</g>
	<g id="gnuplot_plot_19b"><title>PeSCo-CPA</title>
<g fill="none" color="black" stroke="currentColor" stroke-width="2.00" stroke-linecap="butt" stroke-linejoin="miter">
</g>
	</g>
	<g id="gnuplot_plot_20b"><title>Pinaka</title>
<g fill="none" color="black" stroke="currentColor" stroke-width="2.00" stroke-linecap="butt" stroke-linejoin="miter">
</g>
	</g>
	<g id="gnuplot_plot_21b"><title>Symbiotic</title>
<g fill="none" color="black" stroke="currentColor" stroke-width="2.00" stroke-linecap="butt" stroke-linejoin="miter">
	<path stroke="rgb(255, 165,   0)" d="M475.40,349.42 L481.06,349.40 L486.73,349.37 L492.40,349.37 L498.07,349.22 L509.40,349.17 L515.07,349.14 L520.74,349.14   L532.07,349.10 L537.74,349.09 L543.41,348.91 L549.07,348.88 L556.54,340.00  "/>	<use xlink:href="#gpPt5" transform="translate(475.40,349.42) scale(3.00)" color="rgb(255, 165,   0)"/>
</g>
	</g>
	<g id="gnuplot_plot_22b"><title>Theta</title>
<g fill="none" color="black" stroke="currentColor" stroke-width="2.00" stroke-linecap="butt" stroke-linejoin="miter">
</g>
	</g>
	<g id="gnuplot_plot_23b"><title>UAutomizer</title>
<g fill="none" color="black" stroke="currentColor" stroke-width="2.00" stroke-linecap="butt" stroke-linejoin="miter">
</g>
	</g>
	<g id="gnuplot_plot_24b"><title>UKojak</title>
<g fill="none" color="black" stroke="currentColor" stroke-width="2.00" stroke-linecap="butt" stroke-linejoin="miter">
</g>
	</g>
	<g id="gnuplot_plot_25b"><title>UTaipan</title>
<g fill="none" color="black" stroke="currentColor" stroke-width="2.00" stroke-linecap="butt" stroke-linejoin="miter">
</g>
	</g>
	<g id="gnuplot_plot_26b"><title>VeriAbs</title>
<g fill="none" color="black" stroke="currentColor" stroke-width="2.00" stroke-linecap="butt" stroke-linejoin="miter">
</g>
	</g>
	<g id="gnuplot_plot_27b"><title>VeriAbsL</title>
<g fill="none" color="black" stroke="currentColor" stroke-width="2.00" stroke-linecap="butt" stroke-linejoin="miter">
</g>
	</g>
<g fill="none" color="black" stroke="currentColor" stroke-width="2.00" stroke-linecap="butt" stroke-linejoin="miter">
</g>
<g fill="none" color="black" stroke="black" stroke-width="1.00" stroke-linecap="butt" stroke-linejoin="miter">
</g>
<g fill="none" color="black" stroke="currentColor" stroke-width="1.00" stroke-linecap="butt" stroke-linejoin="miter">
	<path stroke="black" d="M56.00,340.00 L56.00,357.60 L787.11,357.60 L787.11,340.00 L56.00,340.00 Z  "/></g>
<g fill="none" color="black" stroke="currentColor" stroke-width="1.00" stroke-linecap="butt" stroke-linejoin="miter">
</g>
</g>
</svg>