<?xml version="1.0" encoding="UTF-8" standalone="no"?>
<svg width="800" height="400" viewBox="0 0 800 400" xmlns="http://www.w3.org/2000/svg" xmlns:xlink="http://www.w3.org/1999/xlink">

<title>Gnuplot</title>
<desc>Produced by GNUPLOT 5.4 patchlevel 2 </desc>

<g id="gnuplot_canvas">

<rect x="0" y="0" width="800" height="400" fill="none"/>
<defs>

	<circle id="gpDot" r="0.5" stroke-width="0.5" stroke="currentColor"/>
	<path id="gpPt0" stroke-width="0.333" stroke="currentColor" d="M-1,0 h2 M0,-1 v2"/>
	<path id="gpPt1" stroke-width="0.333" stroke="currentColor" d="M-1,-1 L1,1 M1,-1 L-1,1"/>
	<path id="gpPt2" stroke-width="0.333" stroke="currentColor" d="M-1,0 L1,0 M0,-1 L0,1 M-1,-1 L1,1 M-1,1 L1,-1"/>
	<rect id="gpPt3" stroke-width="0.333" stroke="currentColor" x="-1" y="-1" width="2" height="2"/>
	<rect id="gpPt4" stroke-width="0.333" stroke="currentColor" fill="currentColor" x="-1" y="-1" width="2" height="2"/>
	<circle id="gpPt5" stroke-width="0.333" stroke="currentColor" cx="0" cy="0" r="1"/>
	<use xlink:href="#gpPt5" id="gpPt6" fill="currentColor" stroke="none"/>
	<path id="gpPt7" stroke-width="0.333" stroke="currentColor" d="M0,-1.33 L-1.33,0.67 L1.33,0.67 z"/>
	<use xlink:href="#gpPt7" id="gpPt8" fill="currentColor" stroke="none"/>
	<use xlink:href="#gpPt7" id="gpPt9" stroke="currentColor" transform="rotate(180)"/>
	<use xlink:href="#gpPt9" id="gpPt10" fill="currentColor" stroke="none"/>
	<use xlink:href="#gpPt3" id="gpPt11" stroke="currentColor" transform="rotate(45)"/>
	<use xlink:href="#gpPt11" id="gpPt12" fill="currentColor" stroke="none"/>
	<path id="gpPt13" stroke-width="0.333" stroke="currentColor" d="M0,1.330 L1.265,0.411 L0.782,-1.067 L-0.782,-1.076 L-1.265,0.411 z"/>
	<use xlink:href="#gpPt13" id="gpPt14" fill="currentColor" stroke="none"/>
	<filter id="textbox" filterUnits="objectBoundingBox" x="0" y="0" height="1" width="1">
	  <feFlood flood-color="white" flood-opacity="1" result="bgnd"/>
	  <feComposite in="SourceGraphic" in2="bgnd" operator="atop"/>
	</filter>
	<filter id="greybox" filterUnits="objectBoundingBox" x="0" y="0" height="1" width="1">
	  <feFlood flood-color="lightgrey" flood-opacity="1" result="grey"/>
	  <feComposite in="SourceGraphic" in2="grey" operator="atop"/>
	</filter>
</defs>
<g fill="none" color="white" stroke="currentColor" stroke-width="1.00" stroke-linecap="butt" stroke-linejoin="miter">
</g>
<g fill="none" color="black" stroke="currentColor" stroke-width="1.00" stroke-linecap="butt" stroke-linejoin="miter">
	<path stroke="black" d="M39.20,340.00 L45.20,340.00 M787.11,340.00 L781.11,340.00  "/>	<g transform="translate(33.60,342.60)" stroke="none" fill="black" font-family="Helvetica" font-size="8.00" text-anchor="end">
		<text><tspan font-family="Helvetica"> 1</tspan></text>
	</g>
</g>
<g fill="none" color="black" stroke="currentColor" stroke-width="1.00" stroke-linecap="butt" stroke-linejoin="miter">
	<path stroke="black" d="M39.20,306.93 L42.20,306.93 M787.11,306.93 L784.11,306.93 M39.20,287.58 L42.20,287.58 M787.11,287.58 L784.11,287.58   M39.20,273.86 L42.20,273.86 M787.11,273.86 L784.11,273.86 M39.20,263.21 L42.20,263.21 M787.11,263.21 L784.11,263.21   M39.20,254.51 L42.20,254.51 M787.11,254.51 L784.11,254.51 M39.20,247.15 L42.20,247.15 M787.11,247.15 L784.11,247.15   M39.20,240.78 L42.20,240.78 M787.11,240.78 L784.11,240.78 M39.20,235.16 L42.20,235.16 M787.11,235.16 L784.11,235.16   M39.20,230.14 L45.20,230.14 M787.11,230.14 L781.11,230.14  "/>	<g transform="translate(33.60,232.74)" stroke="none" fill="black" font-family="Helvetica" font-size="8.00" text-anchor="end">
		<text><tspan font-family="Helvetica"> 10</tspan></text>
	</g>
</g>
<g fill="none" color="black" stroke="currentColor" stroke-width="1.00" stroke-linecap="butt" stroke-linejoin="miter">
	<path stroke="black" d="M39.20,197.06 L42.20,197.06 M787.11,197.06 L784.11,197.06 M39.20,177.72 L42.20,177.72 M787.11,177.72 L784.11,177.72   M39.20,163.99 L42.20,163.99 M787.11,163.99 L784.11,163.99 M39.20,153.35 L42.20,153.35 M787.11,153.35 L784.11,153.35   M39.20,144.65 L42.20,144.65 M787.11,144.65 L784.11,144.65 M39.20,137.29 L42.20,137.29 M787.11,137.29 L784.11,137.29   M39.20,130.92 L42.20,130.92 M787.11,130.92 L784.11,130.92 M39.20,125.30 L42.20,125.30 M787.11,125.30 L784.11,125.30   M39.20,120.27 L45.20,120.27 M787.11,120.27 L781.11,120.27  "/>	<g transform="translate(33.60,122.87)" stroke="none" fill="black" font-family="Helvetica" font-size="8.00" text-anchor="end">
		<text><tspan font-family="Helvetica"> 100</tspan></text>
	</g>
</g>
<g fill="none" color="black" stroke="currentColor" stroke-width="1.00" stroke-linecap="butt" stroke-linejoin="miter">
	<path stroke="black" d="M39.20,87.20 L42.20,87.20 M787.11,87.20 L784.11,87.20 M39.20,67.86 L42.20,67.86 M787.11,67.86 L784.11,67.86   M39.20,54.13 L42.20,54.13 M787.11,54.13 L784.11,54.13 M39.20,43.48 L42.20,43.48 M787.11,43.48 L784.11,43.48   M39.20,34.78 L42.20,34.78 M787.11,34.78 L784.11,34.78 M39.20,27.43 L42.20,27.43 M787.11,27.43 L784.11,27.43   M39.20,21.06 L42.20,21.06 M787.11,21.06 L784.11,21.06 M39.20,15.44 L42.20,15.44 M787.11,15.44 L784.11,15.44   M39.20,10.41 L45.20,10.41 M787.11,10.41 L781.11,10.41  "/>	<g transform="translate(33.60,13.01)" stroke="none" fill="black" font-family="Helvetica" font-size="8.00" text-anchor="end">
		<text><tspan font-family="Helvetica"> 1000</tspan></text>
	</g>
</g>
<g fill="none" color="black" stroke="currentColor" stroke-width="1.00" stroke-linecap="butt" stroke-linejoin="miter">
</g>
<g fill="none" color="black" stroke="currentColor" stroke-width="1.00" stroke-linecap="butt" stroke-linejoin="miter">
	<path stroke="black" d="M39.20,10.41 L39.20,340.00 L787.11,340.00 L787.11,10.41 L39.20,10.41 Z  "/></g>
<g fill="none" color="black" stroke="currentColor" stroke-width="1.00" stroke-linecap="butt" stroke-linejoin="miter">
	<g transform="translate(14.80,175.21) rotate(270)" stroke="none" fill="black" font-family="Helvetica" font-size="8.00" text-anchor="middle">
		<text><tspan font-family="Helvetica">Min. time in s</tspan></text>
	</g>
</g>
<g fill="none" color="black" stroke="currentColor" stroke-width="1.00" stroke-linecap="butt" stroke-linejoin="miter">
</g>
	<g id="gnuplot_plot_1a"><title>2LS</title>
<g fill="none" color="white" stroke="currentColor" stroke-width="2.00" stroke-linecap="butt" stroke-linejoin="miter">
</g>
<g fill="none" color="black" stroke="currentColor" stroke-width="2.00" stroke-linecap="butt" stroke-linejoin="miter">
	<g transform="translate(106.40,25.01)" stroke="none" fill="black" font-family="Helvetica" font-size="8.00" text-anchor="end">
		<text><tspan font-family="Helvetica">2LS</tspan></text>
	</g>
</g>
<g fill="none" color="black" stroke="currentColor" stroke-width="2.00" stroke-linecap="butt" stroke-linejoin="miter">
	<path stroke="rgb(190, 190, 190)" d="M112.00,22.41 L140.40,22.41  "/>	<use xlink:href="#gpPt13" transform="translate(126.20,22.41) scale(3.00)" color="rgb(190, 190, 190)"/>
</g>
	</g>
	<g id="gnuplot_plot_2a"><title>Bubaak</title>
<g fill="none" color="black" stroke="currentColor" stroke-width="2.00" stroke-linecap="butt" stroke-linejoin="miter">
	<g transform="translate(106.40,37.01)" stroke="none" fill="black" font-family="Helvetica" font-size="8.00" text-anchor="end">
		<text><tspan font-family="Helvetica">Bubaak</tspan></text>
	</g>
</g>
<g fill="none" color="black" stroke="currentColor" stroke-width="2.00" stroke-linecap="butt" stroke-linejoin="miter">
	<path stroke="rgb(255,   0, 255)" d="M112.00,34.41 L140.40,34.41 M497.38,295.87 L504.12,295.15 L510.85,291.22 L517.59,277.80 L524.33,251.23 L531.07,233.39    "/>	<use xlink:href="#gpPt11" transform="translate(497.38,295.87) scale(3.00)" color="rgb(255,   0, 255)"/>
	<use xlink:href="#gpPt11" transform="translate(126.20,34.41) scale(3.00)" color="rgb(255,   0, 255)"/>
</g>
	</g>
	<g id="gnuplot_plot_3a"><title>CBMC</title>
<g fill="none" color="black" stroke="currentColor" stroke-width="2.00" stroke-linecap="butt" stroke-linejoin="miter">
	<g transform="translate(106.40,49.01)" stroke="none" fill="black" font-family="Helvetica" font-size="8.00" text-anchor="end">
		<text><tspan font-family="Helvetica">CBMC</tspan></text>
	</g>
</g>
<g fill="none" color="black" stroke="currentColor" stroke-width="2.00" stroke-linecap="butt" stroke-linejoin="miter">
	<path stroke="rgb(255,   0,   0)" d="M112.00,46.41 L140.40,46.41 M506.68,340.00 L510.85,244.00 L517.59,200.17  "/>	<use xlink:href="#gpPt1" transform="translate(126.20,46.41) scale(3.00)" color="rgb(255,   0,   0)"/>
</g>
	</g>
	<g id="gnuplot_plot_4a"><title>CVT-AlgoSel</title>
<g fill="none" color="black" stroke="currentColor" stroke-width="2.00" stroke-linecap="butt" stroke-linejoin="miter">
	<g transform="translate(106.40,61.01)" stroke="none" fill="black" font-family="Helvetica" font-size="8.00" text-anchor="end">
		<text><tspan font-family="Helvetica">CVT-AlgoSel</tspan></text>
	</g>
</g>
<g fill="none" color="black" stroke="currentColor" stroke-width="2.00" stroke-linecap="butt" stroke-linejoin="miter">
	<path stroke="rgb(255,   0, 255)" d="M112.00,58.41 L140.40,58.41 M497.38,140.95 L504.12,139.15  "/>	<use xlink:href="#gpPt3" transform="translate(497.38,140.95) scale(3.00)" color="rgb(255,   0, 255)"/>
	<use xlink:href="#gpPt3" transform="translate(126.20,58.41) scale(3.00)" color="rgb(255,   0, 255)"/>
</g>
	</g>
	<g id="gnuplot_plot_5a"><title>CVT-ParPort</title>
<g fill="none" color="black" stroke="currentColor" stroke-width="2.00" stroke-linecap="butt" stroke-linejoin="miter">
	<g transform="translate(106.40,73.01)" stroke="none" fill="black" font-family="Helvetica" font-size="8.00" text-anchor="end">
		<text><tspan font-family="Helvetica">CVT-ParPort</tspan></text>
	</g>
</g>
<g fill="none" color="black" stroke="currentColor" stroke-width="2.00" stroke-linecap="butt" stroke-linejoin="miter">
	<path stroke="rgb(255, 127,  80)" d="M112.00,70.41 L140.40,70.41 M497.38,300.84 L510.85,299.56 L524.33,299.09 L531.07,298.05 L544.54,297.11 L558.02,297.08   L571.50,295.00 L584.97,291.00 L598.45,289.95 L611.92,286.33 L625.40,285.85 L638.88,284.37 L652.35,277.37 L665.83,227.92   L672.57,213.92 L679.30,187.90 L686.04,186.89 L699.52,115.78 L712.99,81.51 L719.73,58.46  "/>	<use xlink:href="#gpPt11" transform="translate(497.38,300.84) scale(3.00)" color="rgb(255, 127,  80)"/>
	<use xlink:href="#gpPt11" transform="translate(126.20,70.41) scale(3.00)" color="rgb(255, 127,  80)"/>
</g>
	</g>
	<g id="gnuplot_plot_6a"><title>CPAchecker</title>
<g fill="none" color="black" stroke="currentColor" stroke-width="2.00" stroke-linecap="butt" stroke-linejoin="miter">
	<g transform="translate(106.40,85.01)" stroke="none" fill="black" font-family="Helvetica" font-size="8.00" text-anchor="end">
		<text><tspan font-family="Helvetica">CPAchecker</tspan></text>
	</g>
</g>
<g fill="none" color="black" stroke="currentColor" stroke-width="2.00" stroke-linecap="butt" stroke-linejoin="miter">
	<path stroke="rgb(  0,   0, 255)" d="M112.00,82.41 L140.40,82.41 M497.38,213.43 L504.12,212.82 L510.85,127.71 L524.33,117.40 L537.81,110.22 L544.54,102.30   L558.02,102.15 L571.50,101.42 L584.97,98.79 L598.45,85.92 L611.92,85.92 L625.40,85.90 L638.88,85.89 L652.35,81.62   L665.83,22.57  "/>	<use xlink:href="#gpPt2" transform="translate(497.38,213.43) scale(3.00)" color="rgb(  0,   0, 255)"/>
	<use xlink:href="#gpPt2" transform="translate(126.20,82.41) scale(3.00)" color="rgb(  0,   0, 255)"/>
</g>
	</g>
	<g id="gnuplot_plot_7a"><title>Crux</title>
<g fill="none" color="black" stroke="currentColor" stroke-width="2.00" stroke-linecap="butt" stroke-linejoin="miter">
	<g transform="translate(106.40,97.01)" stroke="none" fill="black" font-family="Helvetica" font-size="8.00" text-anchor="end">
		<text><tspan font-family="Helvetica">Crux</tspan></text>
	</g>
</g>
<g fill="none" color="black" stroke="currentColor" stroke-width="2.00" stroke-linecap="butt" stroke-linejoin="miter">
	<path stroke="rgb(255,   0,   0)" d="M112.00,94.41 L140.40,94.41 M286.97,340.00 L288.50,328.42 L295.24,324.93 L308.72,324.08 L315.46,313.02  "/>	<use xlink:href="#gpPt10" transform="translate(126.20,94.41) scale(3.00)" color="rgb(255,   0,   0)"/>
</g>
	</g>
	<g id="gnuplot_plot_8a"><title>DIVINE</title>
<g fill="none" color="black" stroke="currentColor" stroke-width="2.00" stroke-linecap="butt" stroke-linejoin="miter">
	<g transform="translate(106.40,109.01)" stroke="none" fill="black" font-family="Helvetica" font-size="8.00" text-anchor="end">
		<text><tspan font-family="Helvetica">DIVINE</tspan></text>
	</g>
</g>
<g fill="none" color="black" stroke="currentColor" stroke-width="2.00" stroke-linecap="butt" stroke-linejoin="miter">
	<path stroke="rgb(139,   0,   0)" d="M112.00,106.41 L140.40,106.41 M504.12,239.55 L517.59,239.51 L531.07,239.39 L544.54,239.28 L558.02,239.12 L571.50,239.04   L584.97,239.00 L598.45,238.89 L611.92,238.34 L625.40,238.33 L638.88,238.05 L652.35,238.04 L659.09,220.71 L665.83,220.62    "/>	<use xlink:href="#gpPt0" transform="translate(504.12,239.55) scale(3.00)" color="rgb(139,   0,   0)"/>
	<use xlink:href="#gpPt0" transform="translate(126.20,106.41) scale(3.00)" color="rgb(139,   0,   0)"/>
</g>
	</g>
	<g id="gnuplot_plot_9a"><title>ESBMC-kind</title>
<g fill="none" color="black" stroke="currentColor" stroke-width="2.00" stroke-linecap="butt" stroke-linejoin="miter">
	<g transform="translate(106.40,121.01)" stroke="none" fill="black" font-family="Helvetica" font-size="8.00" text-anchor="end">
		<text><tspan font-family="Helvetica">ESBMC-kind</tspan></text>
	</g>
</g>
<g fill="none" color="black" stroke="currentColor" stroke-width="2.00" stroke-linecap="butt" stroke-linejoin="miter">
	<path stroke="rgb( 85, 107,  47)" d="M112.00,118.41 L140.40,118.41 M656.92,340.00 L665.83,224.23 L679.30,149.41  "/>	<use xlink:href="#gpPt5" transform="translate(126.20,118.41) scale(3.00)" color="rgb( 85, 107,  47)"/>
</g>
	</g>
	<g id="gnuplot_plot_10a"><title>Gazer-Theta</title>
<g fill="none" color="black" stroke="currentColor" stroke-width="2.00" stroke-linecap="butt" stroke-linejoin="miter">
	<g transform="translate(106.40,133.01)" stroke="none" fill="black" font-family="Helvetica" font-size="8.00" text-anchor="end">
		<text><tspan font-family="Helvetica">Gazer-Theta</tspan></text>
	</g>
</g>
<g fill="none" color="black" stroke="currentColor" stroke-width="2.00" stroke-linecap="butt" stroke-linejoin="miter">
	<path stroke="rgb(160, 128,  32)" d="M112.00,130.41 L140.40,130.41  "/>	<use xlink:href="#gpPt2" transform="translate(126.20,130.41) scale(3.00)" color="rgb(160, 128,  32)"/>
</g>
	</g>
	<g id="gnuplot_plot_11a"><title>Graves-CPA</title>
<g fill="none" color="black" stroke="currentColor" stroke-width="2.00" stroke-linecap="butt" stroke-linejoin="miter">
	<g transform="translate(106.40,145.01)" stroke="none" fill="black" font-family="Helvetica" font-size="8.00" text-anchor="end">
		<text><tspan font-family="Helvetica">Graves-CPA</tspan></text>
	</g>
</g>
<g fill="none" color="black" stroke="currentColor" stroke-width="2.00" stroke-linecap="butt" stroke-linejoin="miter">
	<path stroke="rgb(255, 127,  80)" d="M112.00,142.41 L140.40,142.41 M504.12,234.64 L510.85,234.59 L517.59,232.09 L531.07,223.49 L537.81,197.29 L544.54,197.26   L558.02,196.17 L571.50,194.45 L584.97,167.55 L598.45,135.98 L611.92,130.72 L625.40,26.24  "/>	<use xlink:href="#gpPt1" transform="translate(504.12,234.64) scale(3.00)" color="rgb(255, 127,  80)"/>
	<use xlink:href="#gpPt1" transform="translate(126.20,142.41) scale(3.00)" color="rgb(255, 127,  80)"/>
</g>
	</g>
	<g id="gnuplot_plot_12a"><title>Graves-Par</title>
<g fill="none" color="black" stroke="currentColor" stroke-width="2.00" stroke-linecap="butt" stroke-linejoin="miter">
	<g transform="translate(106.40,157.01)" stroke="none" fill="black" font-family="Helvetica" font-size="8.00" text-anchor="end">
		<text><tspan font-family="Helvetica">Graves-Par</tspan></text>
	</g>
</g>
<g fill="none" color="black" stroke="currentColor" stroke-width="2.00" stroke-linecap="butt" stroke-linejoin="miter">
	<path stroke="rgb(255, 127,  80)" d="M112.00,154.41 L140.40,154.41 M497.38,159.40 L510.85,100.81  "/>	<use xlink:href="#gpPt7" transform="translate(497.38,159.40) scale(3.00)" color="rgb(255, 127,  80)"/>
	<use xlink:href="#gpPt7" transform="translate(126.20,154.41) scale(3.00)" color="rgb(255, 127,  80)"/>
</g>
	</g>
	<g id="gnuplot_plot_13a"><title>Korn</title>
<g fill="none" color="black" stroke="currentColor" stroke-width="2.00" stroke-linecap="butt" stroke-linejoin="miter">
	<g transform="translate(106.40,169.01)" stroke="none" fill="black" font-family="Helvetica" font-size="8.00" text-anchor="end">
		<text><tspan font-family="Helvetica">Korn</tspan></text>
	</g>
</g>
<g fill="none" color="black" stroke="currentColor" stroke-width="2.00" stroke-linecap="butt" stroke-linejoin="miter">
	<path stroke="rgb(  0, 139, 139)" d="M112.00,166.41 L140.40,166.41 M519.73,340.00 L524.33,331.41 L531.07,290.65 L537.81,252.07 L551.28,217.32 L564.76,216.42   L578.23,215.93 L591.71,215.24 L605.19,213.91 L618.66,212.65 L632.14,212.11 L645.61,209.92 L659.09,208.66 L672.57,206.26   L686.04,205.66 L699.52,201.87  "/>	<use xlink:href="#gpPt0" transform="translate(126.20,166.41) scale(3.00)" color="rgb(  0, 139, 139)"/>
</g>
	</g>
	<g id="gnuplot_plot_14a"><title>PeSCo-CPA</title>
<g fill="none" color="black" stroke="currentColor" stroke-width="2.00" stroke-linecap="butt" stroke-linejoin="miter">
	<g transform="translate(106.40,181.01)" stroke="none" fill="black" font-family="Helvetica" font-size="8.00" text-anchor="end">
		<text><tspan font-family="Helvetica">PeSCo-CPA</tspan></text>
	</g>
</g>
<g fill="none" color="black" stroke="currentColor" stroke-width="2.00" stroke-linecap="butt" stroke-linejoin="miter">
	<path stroke="rgb(  0,   0, 139)" d="M112.00,178.41 L140.40,178.41 M497.38,272.05 L504.12,271.49 L517.59,246.12 L531.07,245.96 L544.54,244.05 L558.02,243.35   L571.50,243.17 L584.97,242.44 L598.45,241.44 L611.92,240.92 L625.40,240.70 L638.88,240.50 L652.35,240.30 L659.09,199.02   L665.83,181.49 L679.30,138.86 L692.78,131.40 L706.25,88.31  "/>	<use xlink:href="#gpPt1" transform="translate(497.38,272.05) scale(3.00)" color="rgb(  0,   0, 139)"/>
	<use xlink:href="#gpPt1" transform="translate(126.20,178.41) scale(3.00)" color="rgb(  0,   0, 139)"/>
</g>
	</g>
	<g id="gnuplot_plot_15a"><title>Pinaka</title>
<g fill="none" color="black" stroke="currentColor" stroke-width="2.00" stroke-linecap="butt" stroke-linejoin="miter">
	<g transform="translate(106.40,193.01)" stroke="none" fill="black" font-family="Helvetica" font-size="8.00" text-anchor="end">
		<text><tspan font-family="Helvetica">Pinaka</tspan></text>
	</g>
</g>
<g fill="none" color="black" stroke="currentColor" stroke-width="2.00" stroke-linecap="butt" stroke-linejoin="miter">
	<path stroke="rgb(  0, 255,   0)" d="M112.00,190.41 L140.40,190.41  "/>	<use xlink:href="#gpPt14" transform="translate(126.20,190.41) scale(3.00)" color="rgb(  0, 255,   0)"/>
</g>
	</g>
	<g id="gnuplot_plot_16a"><title>Symbiotic</title>
<g fill="none" color="black" stroke="currentColor" stroke-width="2.00" stroke-linecap="butt" stroke-linejoin="miter">
	<g transform="translate(106.40,205.01)" stroke="none" fill="black" font-family="Helvetica" font-size="8.00" text-anchor="end">
		<text><tspan font-family="Helvetica">Symbiotic</tspan></text>
	</g>
</g>
<g fill="none" color="black" stroke="currentColor" stroke-width="2.00" stroke-linecap="butt" stroke-linejoin="miter">
	<path stroke="rgb(255, 165,   0)" d="M112.00,202.41 L140.40,202.41 M504.12,337.42 L510.85,309.76 L517.59,301.14 L524.33,272.17 L531.07,254.76 L537.81,246.73   L544.54,246.57 L551.28,85.12 L564.76,62.52 L578.23,60.28 L591.71,56.94 L605.19,48.70 L618.66,32.76  "/>	<use xlink:href="#gpPt5" transform="translate(504.12,337.42) scale(3.00)" color="rgb(255, 165,   0)"/>
	<use xlink:href="#gpPt5" transform="translate(126.20,202.41) scale(3.00)" color="rgb(255, 165,   0)"/>
</g>
	</g>
	<g id="gnuplot_plot_17a"><title>Theta</title>
<g fill="none" color="black" stroke="currentColor" stroke-width="2.00" stroke-linecap="butt" stroke-linejoin="miter">
	<g transform="translate(106.40,217.01)" stroke="none" fill="black" font-family="Helvetica" font-size="8.00" text-anchor="end">
		<text><tspan font-family="Helvetica">Theta</tspan></text>
	</g>
</g>
<g fill="none" color="black" stroke="currentColor" stroke-width="2.00" stroke-linecap="butt" stroke-linejoin="miter">
	<path stroke="rgb(255,   0, 255)" d="M112.00,214.41 L140.40,214.41 M504.12,185.72 L510.85,178.37 L517.59,178.24 L531.07,167.83 L544.54,119.39 L558.02,31.18    "/>	<use xlink:href="#gpPt1" transform="translate(504.12,185.72) scale(3.00)" color="rgb(255,   0, 255)"/>
	<use xlink:href="#gpPt1" transform="translate(126.20,214.41) scale(3.00)" color="rgb(255,   0, 255)"/>
</g>
	</g>
	<g id="gnuplot_plot_18a"><title>UAutomizer</title>
<g fill="none" color="black" stroke="currentColor" stroke-width="2.00" stroke-linecap="butt" stroke-linejoin="miter">
	<g transform="translate(106.40,229.01)" stroke="none" fill="black" font-family="Helvetica" font-size="8.00" text-anchor="end">
		<text><tspan font-family="Helvetica">UAutomizer</tspan></text>
	</g>
</g>
<g fill="none" color="black" stroke="currentColor" stroke-width="2.00" stroke-linecap="butt" stroke-linejoin="miter">
	<path stroke="rgb(250, 128, 114)" d="M112.00,226.41 L140.40,226.41 M497.38,196.90 L504.12,195.09 L517.59,194.78 L531.07,191.31 L544.54,191.24 L558.02,182.43   L571.50,179.98 L584.97,172.26 L598.45,157.46 L611.92,153.20 L625.40,143.34 L632.14,135.06 L645.61,122.94 L659.09,99.54    "/>	<use xlink:href="#gpPt5" transform="translate(497.38,196.90) scale(3.00)" color="rgb(250, 128, 114)"/>
	<use xlink:href="#gpPt5" transform="translate(126.20,226.41) scale(3.00)" color="rgb(250, 128, 114)"/>
</g>
	</g>
	<g id="gnuplot_plot_19a"><title>UKojak</title>
<g fill="none" color="black" stroke="currentColor" stroke-width="2.00" stroke-linecap="butt" stroke-linejoin="miter">
	<g transform="translate(106.40,241.01)" stroke="none" fill="black" font-family="Helvetica" font-size="8.00" text-anchor="end">
		<text><tspan font-family="Helvetica">UKojak</tspan></text>
	</g>
</g>
<g fill="none" color="black" stroke="currentColor" stroke-width="2.00" stroke-linecap="butt" stroke-linejoin="miter">
	<path stroke="rgb(255,   0, 255)" d="M112.00,238.41 L140.40,238.41 M497.38,197.80 L504.12,196.25 L517.59,178.93 L531.07,176.32 L544.54,173.08 L558.02,164.42   L571.50,157.97 L584.97,151.29 L598.45,142.32 L611.92,133.37 L618.66,129.37 L632.14,126.22 L645.61,113.77 L659.09,107.01   L672.57,97.29  "/>	<use xlink:href="#gpPt9" transform="translate(497.38,197.80) scale(3.00)" color="rgb(255,   0, 255)"/>
	<use xlink:href="#gpPt9" transform="translate(126.20,238.41) scale(3.00)" color="rgb(255,   0, 255)"/>
</g>
	</g>
	<g id="gnuplot_plot_20a"><title>UTaipan</title>
<g fill="none" color="black" stroke="currentColor" stroke-width="2.00" stroke-linecap="butt" stroke-linejoin="miter">
	<g transform="translate(106.40,253.01)" stroke="none" fill="black" font-family="Helvetica" font-size="8.00" text-anchor="end">
		<text><tspan font-family="Helvetica">UTaipan</tspan></text>
	</g>
</g>
<g fill="none" color="black" stroke="currentColor" stroke-width="2.00" stroke-linecap="butt" stroke-linejoin="miter">
	<path stroke="rgb(255, 165,   0)" d="M112.00,250.41 L140.40,250.41 M497.38,199.10 L504.12,198.30 L517.59,194.91 L531.07,194.72 L544.54,194.39 L558.02,192.62   L571.50,191.77 L584.97,190.80 L598.45,190.75 L611.92,188.11 L625.40,187.12 L638.88,187.07 L652.35,187.00 L665.83,184.95   L672.57,120.72  "/>	<use xlink:href="#gpPt13" transform="translate(497.38,199.10) scale(3.00)" color="rgb(255, 165,   0)"/>
	<use xlink:href="#gpPt13" transform="translate(126.20,250.41) scale(3.00)" color="rgb(255, 165,   0)"/>
</g>
	</g>
	<g id="gnuplot_plot_21a"><title>VeriAbs</title>
<g fill="none" color="black" stroke="currentColor" stroke-width="2.00" stroke-linecap="butt" stroke-linejoin="miter">
	<g transform="translate(106.40,265.01)" stroke="none" fill="black" font-family="Helvetica" font-size="8.00" text-anchor="end">
		<text><tspan font-family="Helvetica">VeriAbs</tspan></text>
	</g>
</g>
<g fill="none" color="black" stroke="currentColor" stroke-width="2.00" stroke-linecap="butt" stroke-linejoin="miter">
	<path stroke="rgb(255, 105, 180)" d="M112.00,262.41 L140.40,262.41 M504.12,209.61 L517.59,207.92 L531.07,207.73 L544.54,206.54 L558.02,206.19 L571.50,204.68   L584.97,204.32 L598.45,202.28 L611.92,200.99 L625.40,200.74 L638.88,197.81 L652.35,185.75 L659.09,130.54 L665.83,103.13   L672.57,79.08 L686.04,76.26 L699.52,55.37  "/>	<use xlink:href="#gpPt2" transform="translate(504.12,209.61) scale(3.00)" color="rgb(255, 105, 180)"/>
	<use xlink:href="#gpPt2" transform="translate(126.20,262.41) scale(3.00)" color="rgb(255, 105, 180)"/>
</g>
	</g>
	<g id="gnuplot_plot_22a"><title>VeriAbsL</title>
<g fill="none" color="black" stroke="currentColor" stroke-width="2.00" stroke-linecap="butt" stroke-linejoin="miter">
	<g transform="translate(106.40,277.01)" stroke="none" fill="black" font-family="Helvetica" font-size="8.00" text-anchor="end">
		<text><tspan font-family="Helvetica">VeriAbsL</tspan></text>
	</g>
</g>
<g fill="none" color="black" stroke="currentColor" stroke-width="2.00" stroke-linecap="butt" stroke-linejoin="miter">
	<path stroke="rgb(250, 128, 114)" d="M112.00,274.41 L140.40,274.41 M504.12,192.82 L517.59,191.95 L531.07,190.95 L544.54,189.22 L558.02,188.76 L571.50,187.58   L584.97,187.12 L598.45,186.65 L611.92,184.99 L625.40,184.89 L638.88,184.79 L652.35,183.73 L659.09,172.89 L665.83,171.70   L672.57,145.29 L686.04,129.58 L692.78,116.73 L706.25,111.60 L712.99,94.42  "/>	<use xlink:href="#gpPt13" transform="translate(504.12,192.82) scale(3.00)" color="rgb(250, 128, 114)"/>
	<use xlink:href="#gpPt13" transform="translate(126.20,274.41) scale(3.00)" color="rgb(250, 128, 114)"/>
</g>
	</g>
	<g id="gnuplot_plot_23a"><title>VeriFuzz</title>
<g fill="none" color="black" stroke="currentColor" stroke-width="2.00" stroke-linecap="butt" stroke-linejoin="miter">
	<g transform="translate(106.40,289.01)" stroke="none" fill="black" font-family="Helvetica" font-size="8.00" text-anchor="end">
		<text><tspan font-family="Helvetica">VeriFuzz</tspan></text>
	</g>
</g>
<g fill="none" color="black" stroke="currentColor" stroke-width="2.00" stroke-linecap="butt" stroke-linejoin="miter">
	<path stroke="rgb(190, 190, 190)" d="M112.00,286.41 L140.40,286.41 M497.38,266.83 L504.12,261.00 L510.85,191.59 L517.59,161.37 L524.33,106.74 L531.07,101.57    "/>	<use xlink:href="#gpPt2" transform="translate(497.38,266.83) scale(3.00)" color="rgb(190, 190, 190)"/>
	<use xlink:href="#gpPt2" transform="translate(126.20,286.41) scale(3.00)" color="rgb(190, 190, 190)"/>
</g>
	</g>
<g fill="none" color="black" stroke="currentColor" stroke-width="2.00" stroke-linecap="butt" stroke-linejoin="miter">
</g>
<g fill="none" color="black" stroke="black" stroke-width="1.00" stroke-linecap="butt" stroke-linejoin="miter">
</g>
<g fill="none" color="black" stroke="currentColor" stroke-width="1.00" stroke-linecap="butt" stroke-linejoin="miter">
	<path stroke="black" d="M39.20,10.41 L39.20,340.00 L787.11,340.00 L787.11,10.41 L39.20,10.41 Z  "/></g>
<g fill="none" color="black" stroke="currentColor" stroke-width="1.00" stroke-linecap="butt" stroke-linejoin="miter">
</g>
<g fill="none" color="black" stroke="currentColor" stroke-width="1.00" stroke-linecap="butt" stroke-linejoin="miter">
	<path stroke="black" d="M86.37,357.60 L86.37,351.60  "/>	<g transform="translate(86.37,372.20)" stroke="none" fill="black" font-family="Helvetica" font-size="8.00" text-anchor="middle">
		<text><tspan font-family="Helvetica">-60</tspan></text>
	</g>
</g>
<g fill="none" color="black" stroke="currentColor" stroke-width="1.00" stroke-linecap="butt" stroke-linejoin="miter">
	<path stroke="black" d="M221.12,357.60 L221.12,351.60  "/>	<g transform="translate(221.12,372.20)" stroke="none" fill="black" font-family="Helvetica" font-size="8.00" text-anchor="middle">
		<text><tspan font-family="Helvetica">-40</tspan></text>
	</g>
</g>
<g fill="none" color="black" stroke="currentColor" stroke-width="1.00" stroke-linecap="butt" stroke-linejoin="miter">
	<path stroke="black" d="M355.88,357.60 L355.88,351.60  "/>	<g transform="translate(355.88,372.20)" stroke="none" fill="black" font-family="Helvetica" font-size="8.00" text-anchor="middle">
		<text><tspan font-family="Helvetica">-20</tspan></text>
	</g>
</g>
<g fill="none" color="black" stroke="currentColor" stroke-width="1.00" stroke-linecap="butt" stroke-linejoin="miter">
	<path stroke="black" d="M490.64,357.60 L490.64,351.60  "/>	<g transform="translate(490.64,372.20)" stroke="none" fill="black" font-family="Helvetica" font-size="8.00" text-anchor="middle">
		<text><tspan font-family="Helvetica"> 0</tspan></text>
	</g>
</g>
<g fill="none" color="black" stroke="currentColor" stroke-width="1.00" stroke-linecap="butt" stroke-linejoin="miter">
	<path stroke="black" d="M625.40,357.60 L625.40,351.60  "/>	<g transform="translate(625.40,372.20)" stroke="none" fill="black" font-family="Helvetica" font-size="8.00" text-anchor="middle">
		<text><tspan font-family="Helvetica"> 20</tspan></text>
	</g>
</g>
<g fill="none" color="black" stroke="currentColor" stroke-width="1.00" stroke-linecap="butt" stroke-linejoin="miter">
	<path stroke="black" d="M760.16,357.60 L760.16,351.60  "/>	<g transform="translate(760.16,372.20)" stroke="none" fill="black" font-family="Helvetica" font-size="8.00" text-anchor="middle">
		<text><tspan font-family="Helvetica"> 40</tspan></text>
	</g>
</g>
<g fill="none" color="black" stroke="currentColor" stroke-width="1.00" stroke-linecap="butt" stroke-linejoin="miter">
</g>
<g fill="none" color="black" stroke="currentColor" stroke-width="1.00" stroke-linecap="butt" stroke-linejoin="miter">
	<path stroke="black" d="M39.20,340.00 L39.20,357.60 L787.11,357.60 L787.11,340.00 L39.20,340.00 Z  "/></g>
<g fill="none" color="black" stroke="currentColor" stroke-width="1.00" stroke-linecap="butt" stroke-linejoin="miter">
	<g transform="translate(413.15,390.20)" stroke="none" fill="black" font-family="Helvetica" font-size="8.00" text-anchor="middle">
		<text><tspan font-family="Helvetica">Cumulative score</tspan></text>
	</g>
</g>
<g fill="none" color="black" stroke="currentColor" stroke-width="1.00" stroke-linecap="butt" stroke-linejoin="miter">
</g>
	<g id="gnuplot_plot_1b"><title>2LS</title>
<g fill="none" color="white" stroke="currentColor" stroke-width="2.00" stroke-linecap="butt" stroke-linejoin="miter">
</g>
<g fill="none" color="black" stroke="currentColor" stroke-width="2.00" stroke-linecap="butt" stroke-linejoin="miter">
	<path stroke="rgb(190, 190, 190)" d="M504.12,355.31 L517.59,355.27 L531.07,355.12 L544.54,355.07 L558.02,354.80 L564.76,354.67 L578.23,354.59 L591.71,353.71   L598.45,353.44 L611.92,353.43 L625.40,353.41 L638.88,353.15 L652.35,353.10  "/>	<use xlink:href="#gpPt13" transform="translate(504.12,355.31) scale(3.00)" color="rgb(190, 190, 190)"/>
</g>
	</g>
	<g id="gnuplot_plot_2b"><title>Bubaak</title>
<g fill="none" color="black" stroke="currentColor" stroke-width="2.00" stroke-linecap="butt" stroke-linejoin="miter">
</g>
	</g>
	<g id="gnuplot_plot_3b"><title>CBMC</title>
<g fill="none" color="black" stroke="currentColor" stroke-width="2.00" stroke-linecap="butt" stroke-linejoin="miter">
	<path stroke="rgb(255,   0,   0)" d="M497.38,353.09 L504.12,352.49 L504.78,340.00  "/>	<use xlink:href="#gpPt1" transform="translate(497.38,353.09) scale(3.00)" color="rgb(255,   0,   0)"/>
</g>
	</g>
	<g id="gnuplot_plot_4b"><title>CVT-AlgoSel</title>
<g fill="none" color="black" stroke="currentColor" stroke-width="2.00" stroke-linecap="butt" stroke-linejoin="miter">
</g>
	</g>
	<g id="gnuplot_plot_5b"><title>CVT-ParPort</title>
<g fill="none" color="black" stroke="currentColor" stroke-width="2.00" stroke-linecap="butt" stroke-linejoin="miter">
</g>
	</g>
	<g id="gnuplot_plot_6b"><title>CPAchecker</title>
<g fill="none" color="black" stroke="currentColor" stroke-width="2.00" stroke-linecap="butt" stroke-linejoin="miter">
</g>
	</g>
	<g id="gnuplot_plot_7b"><title>Crux</title>
<g fill="none" color="black" stroke="currentColor" stroke-width="2.00" stroke-linecap="butt" stroke-linejoin="miter">
	<path stroke="rgb(255,   0,   0)" d="M281.77,349.90 L286.29,340.00  "/>	<use xlink:href="#gpPt10" transform="translate(281.77,349.90) scale(3.00)" color="rgb(255,   0,   0)"/>
</g>
	</g>
	<g id="gnuplot_plot_8b"><title>DIVINE</title>
<g fill="none" color="black" stroke="currentColor" stroke-width="2.00" stroke-linecap="butt" stroke-linejoin="miter">
</g>
	</g>
	<g id="gnuplot_plot_9b"><title>ESBMC-kind</title>
<g fill="none" color="black" stroke="currentColor" stroke-width="2.00" stroke-linecap="butt" stroke-linejoin="miter">
	<path stroke="rgb( 85, 107,  47)" d="M497.38,355.33 L504.12,355.13 L517.59,354.85 L531.07,354.73 L544.54,354.55 L558.02,354.50 L571.50,354.22 L584.97,354.03   L598.45,353.73 L611.92,353.30 L625.40,353.04 L638.88,353.01 L652.35,352.54 L653.22,340.00  "/>	<use xlink:href="#gpPt5" transform="translate(497.38,355.33) scale(3.00)" color="rgb( 85, 107,  47)"/>
</g>
	</g>
	<g id="gnuplot_plot_10b"><title>Gazer-Theta</title>
<g fill="none" color="black" stroke="currentColor" stroke-width="2.00" stroke-linecap="butt" stroke-linejoin="miter">
	<path stroke="rgb(160, 128,  32)" d="M504.12,353.36 L517.59,353.34 L531.07,353.29 L544.54,353.05 L558.02,352.80 L571.50,352.63 L584.97,352.53 L598.45,352.52   L611.92,352.38 L618.66,352.20 L632.14,351.84 L645.61,351.35 L652.35,350.61  "/>	<use xlink:href="#gpPt2" transform="translate(504.12,353.36) scale(3.00)" color="rgb(160, 128,  32)"/>
</g>
	</g>
	<g id="gnuplot_plot_11b"><title>Graves-CPA</title>
<g fill="none" color="black" stroke="currentColor" stroke-width="2.00" stroke-linecap="butt" stroke-linejoin="miter">
</g>
	</g>
	<g id="gnuplot_plot_12b"><title>Graves-Par</title>
<g fill="none" color="black" stroke="currentColor" stroke-width="2.00" stroke-linecap="butt" stroke-linejoin="miter">
</g>
	</g>
	<g id="gnuplot_plot_13b"><title>Korn</title>
<g fill="none" color="black" stroke="currentColor" stroke-width="2.00" stroke-linecap="butt" stroke-linejoin="miter">
	<path stroke="rgb(  0, 139, 139)" d="M497.38,346.66 L504.12,345.91 L510.85,343.03 L517.59,341.42 L519.54,340.00  "/>	<use xlink:href="#gpPt0" transform="translate(497.38,346.66) scale(3.00)" color="rgb(  0, 139, 139)"/>
</g>
	</g>
	<g id="gnuplot_plot_14b"><title>PeSCo-CPA</title>
<g fill="none" color="black" stroke="currentColor" stroke-width="2.00" stroke-linecap="butt" stroke-linejoin="miter">
</g>
	</g>
	<g id="gnuplot_plot_15b"><title>Pinaka</title>
<g fill="none" color="black" stroke="currentColor" stroke-width="2.00" stroke-linecap="butt" stroke-linejoin="miter">
	<path stroke="rgb(  0, 255,   0)" d="M497.38,356.81 L504.12,356.80  "/>	<use xlink:href="#gpPt14" transform="translate(497.38,356.81) scale(3.00)" color="rgb(  0, 255,   0)"/>
</g>
	</g>
	<g id="gnuplot_plot_16b"><title>Symbiotic</title>
<g fill="none" color="black" stroke="currentColor" stroke-width="2.00" stroke-linecap="butt" stroke-linejoin="miter">
</g>
	</g>
	<g id="gnuplot_plot_17b"><title>Theta</title>
<g fill="none" color="black" stroke="currentColor" stroke-width="2.00" stroke-linecap="butt" stroke-linejoin="miter">
</g>
	</g>
	<g id="gnuplot_plot_18b"><title>UAutomizer</title>
<g fill="none" color="black" stroke="currentColor" stroke-width="2.00" stroke-linecap="butt" stroke-linejoin="miter">
</g>
	</g>
	<g id="gnuplot_plot_19b"><title>UKojak</title>
<g fill="none" color="black" stroke="currentColor" stroke-width="2.00" stroke-linecap="butt" stroke-linejoin="miter">
</g>
	</g>
	<g id="gnuplot_plot_20b"><title>UTaipan</title>
<g fill="none" color="black" stroke="currentColor" stroke-width="2.00" stroke-linecap="butt" stroke-linejoin="miter">
</g>
	</g>
	<g id="gnuplot_plot_21b"><title>VeriAbs</title>
<g fill="none" color="black" stroke="currentColor" stroke-width="2.00" stroke-linecap="butt" stroke-linejoin="miter">
</g>
	</g>
	<g id="gnuplot_plot_22b"><title>VeriAbsL</title>
<g fill="none" color="black" stroke="currentColor" stroke-width="2.00" stroke-linecap="butt" stroke-linejoin="miter">
</g>
	</g>
	<g id="gnuplot_plot_23b"><title>VeriFuzz</title>
<g fill="none" color="black" stroke="currentColor" stroke-width="2.00" stroke-linecap="butt" stroke-linejoin="miter">
</g>
	</g>
<g fill="none" color="black" stroke="currentColor" stroke-width="2.00" stroke-linecap="butt" stroke-linejoin="miter">
</g>
<g fill="none" color="black" stroke="black" stroke-width="1.00" stroke-linecap="butt" stroke-linejoin="miter">
</g>
<g fill="none" color="black" stroke="currentColor" stroke-width="1.00" stroke-linecap="butt" stroke-linejoin="miter">
	<path stroke="black" d="M39.20,340.00 L39.20,357.60 L787.11,357.60 L787.11,340.00 L39.20,340.00 Z  "/></g>
<g fill="none" color="black" stroke="currentColor" stroke-width="1.00" stroke-linecap="butt" stroke-linejoin="miter">
</g>
</g>
</svg>