<?xml version="1.0" encoding="UTF-8" standalone="no"?>
<svg width="800" height="400" viewBox="0 0 800 400" xmlns="http://www.w3.org/2000/svg" xmlns:xlink="http://www.w3.org/1999/xlink">

<title>Gnuplot</title>
<desc>Produced by GNUPLOT 5.4 patchlevel 2 </desc>

<g id="gnuplot_canvas">

<rect x="0" y="0" width="800" height="400" fill="none"/>
<defs>

	<circle id="gpDot" r="0.5" stroke-width="0.5" stroke="currentColor"/>
	<path id="gpPt0" stroke-width="0.333" stroke="currentColor" d="M-1,0 h2 M0,-1 v2"/>
	<path id="gpPt1" stroke-width="0.333" stroke="currentColor" d="M-1,-1 L1,1 M1,-1 L-1,1"/>
	<path id="gpPt2" stroke-width="0.333" stroke="currentColor" d="M-1,0 L1,0 M0,-1 L0,1 M-1,-1 L1,1 M-1,1 L1,-1"/>
	<rect id="gpPt3" stroke-width="0.333" stroke="currentColor" x="-1" y="-1" width="2" height="2"/>
	<rect id="gpPt4" stroke-width="0.333" stroke="currentColor" fill="currentColor" x="-1" y="-1" width="2" height="2"/>
	<circle id="gpPt5" stroke-width="0.333" stroke="currentColor" cx="0" cy="0" r="1"/>
	<use xlink:href="#gpPt5" id="gpPt6" fill="currentColor" stroke="none"/>
	<path id="gpPt7" stroke-width="0.333" stroke="currentColor" d="M0,-1.33 L-1.33,0.67 L1.33,0.67 z"/>
	<use xlink:href="#gpPt7" id="gpPt8" fill="currentColor" stroke="none"/>
	<use xlink:href="#gpPt7" id="gpPt9" stroke="currentColor" transform="rotate(180)"/>
	<use xlink:href="#gpPt9" id="gpPt10" fill="currentColor" stroke="none"/>
	<use xlink:href="#gpPt3" id="gpPt11" stroke="currentColor" transform="rotate(45)"/>
	<use xlink:href="#gpPt11" id="gpPt12" fill="currentColor" stroke="none"/>
	<path id="gpPt13" stroke-width="0.333" stroke="currentColor" d="M0,1.330 L1.265,0.411 L0.782,-1.067 L-0.782,-1.076 L-1.265,0.411 z"/>
	<use xlink:href="#gpPt13" id="gpPt14" fill="currentColor" stroke="none"/>
	<filter id="textbox" filterUnits="objectBoundingBox" x="0" y="0" height="1" width="1">
	  <feFlood flood-color="white" flood-opacity="1" result="bgnd"/>
	  <feComposite in="SourceGraphic" in2="bgnd" operator="atop"/>
	</filter>
	<filter id="greybox" filterUnits="objectBoundingBox" x="0" y="0" height="1" width="1">
	  <feFlood flood-color="lightgrey" flood-opacity="1" result="grey"/>
	  <feComposite in="SourceGraphic" in2="grey" operator="atop"/>
	</filter>
</defs>
<g fill="none" color="white" stroke="currentColor" stroke-width="1.00" stroke-linecap="butt" stroke-linejoin="miter">
</g>
<g fill="none" color="black" stroke="currentColor" stroke-width="1.00" stroke-linecap="butt" stroke-linejoin="miter">
	<path stroke="black" d="M56.00,340.00 L62.00,340.00 M787.11,340.00 L781.11,340.00  "/>	<g transform="translate(50.40,342.60)" stroke="none" fill="black" font-family="Helvetica" font-size="8.00" text-anchor="end">
		<text><tspan font-family="Helvetica"> 1</tspan></text>
	</g>
</g>
<g fill="none" color="black" stroke="currentColor" stroke-width="1.00" stroke-linecap="butt" stroke-linejoin="miter">
	<path stroke="black" d="M56.00,306.93 L59.00,306.93 M787.11,306.93 L784.11,306.93 M56.00,287.58 L59.00,287.58 M787.11,287.58 L784.11,287.58   M56.00,273.86 L59.00,273.86 M787.11,273.86 L784.11,273.86 M56.00,263.21 L59.00,263.21 M787.11,263.21 L784.11,263.21   M56.00,254.51 L59.00,254.51 M787.11,254.51 L784.11,254.51 M56.00,247.15 L59.00,247.15 M787.11,247.15 L784.11,247.15   M56.00,240.78 L59.00,240.78 M787.11,240.78 L784.11,240.78 M56.00,235.16 L59.00,235.16 M787.11,235.16 L784.11,235.16   M56.00,230.14 L62.00,230.14 M787.11,230.14 L781.11,230.14  "/>	<g transform="translate(50.40,232.74)" stroke="none" fill="black" font-family="Helvetica" font-size="8.00" text-anchor="end">
		<text><tspan font-family="Helvetica"> 10</tspan></text>
	</g>
</g>
<g fill="none" color="black" stroke="currentColor" stroke-width="1.00" stroke-linecap="butt" stroke-linejoin="miter">
	<path stroke="black" d="M56.00,197.06 L59.00,197.06 M787.11,197.06 L784.11,197.06 M56.00,177.72 L59.00,177.72 M787.11,177.72 L784.11,177.72   M56.00,163.99 L59.00,163.99 M787.11,163.99 L784.11,163.99 M56.00,153.35 L59.00,153.35 M787.11,153.35 L784.11,153.35   M56.00,144.65 L59.00,144.65 M787.11,144.65 L784.11,144.65 M56.00,137.29 L59.00,137.29 M787.11,137.29 L784.11,137.29   M56.00,130.92 L59.00,130.92 M787.11,130.92 L784.11,130.92 M56.00,125.30 L59.00,125.30 M787.11,125.30 L784.11,125.30   M56.00,120.27 L62.00,120.27 M787.11,120.27 L781.11,120.27  "/>	<g transform="translate(50.40,122.87)" stroke="none" fill="black" font-family="Helvetica" font-size="8.00" text-anchor="end">
		<text><tspan font-family="Helvetica"> 100</tspan></text>
	</g>
</g>
<g fill="none" color="black" stroke="currentColor" stroke-width="1.00" stroke-linecap="butt" stroke-linejoin="miter">
	<path stroke="black" d="M56.00,87.20 L59.00,87.20 M787.11,87.20 L784.11,87.20 M56.00,67.86 L59.00,67.86 M787.11,67.86 L784.11,67.86   M56.00,54.13 L59.00,54.13 M787.11,54.13 L784.11,54.13 M56.00,43.48 L59.00,43.48 M787.11,43.48 L784.11,43.48   M56.00,34.78 L59.00,34.78 M787.11,34.78 L784.11,34.78 M56.00,27.43 L59.00,27.43 M787.11,27.43 L784.11,27.43   M56.00,21.06 L59.00,21.06 M787.11,21.06 L784.11,21.06 M56.00,15.44 L59.00,15.44 M787.11,15.44 L784.11,15.44   M56.00,10.41 L62.00,10.41 M787.11,10.41 L781.11,10.41  "/>	<g transform="translate(50.40,13.01)" stroke="none" fill="black" font-family="Helvetica" font-size="8.00" text-anchor="end">
		<text><tspan font-family="Helvetica"> 1000</tspan></text>
	</g>
</g>
<g fill="none" color="black" stroke="currentColor" stroke-width="1.00" stroke-linecap="butt" stroke-linejoin="miter">
</g>
<g fill="none" color="black" stroke="currentColor" stroke-width="1.00" stroke-linecap="butt" stroke-linejoin="miter">
	<path stroke="black" d="M56.00,10.41 L56.00,340.00 L787.11,340.00 L787.11,10.41 L56.00,10.41 Z  "/></g>
<g fill="none" color="black" stroke="currentColor" stroke-width="1.00" stroke-linecap="butt" stroke-linejoin="miter">
	<g transform="translate(31.60,175.21) rotate(270)" stroke="none" fill="black" font-family="Helvetica" font-size="8.00" text-anchor="middle">
		<text><tspan font-family="Helvetica">Min. time in s</tspan></text>
	</g>
</g>
<g fill="none" color="black" stroke="currentColor" stroke-width="1.00" stroke-linecap="butt" stroke-linejoin="miter">
</g>
	<g id="gnuplot_plot_1a"><title>Bubaak</title>
<g fill="none" color="white" stroke="currentColor" stroke-width="2.00" stroke-linecap="butt" stroke-linejoin="miter">
</g>
<g fill="none" color="black" stroke="currentColor" stroke-width="2.00" stroke-linecap="butt" stroke-linejoin="miter">
	<g transform="translate(128.80,25.01)" stroke="none" fill="black" font-family="Helvetica" font-size="8.00" text-anchor="end">
		<text><tspan font-family="Helvetica">Bubaak</tspan></text>
	</g>
</g>
<g fill="none" color="black" stroke="currentColor" stroke-width="2.00" stroke-linecap="butt" stroke-linejoin="miter">
	<path stroke="rgb(255,   0, 255)" d="M134.40,22.41 L162.80,22.41 M570.00,340.00 L570.66,336.65 L575.47,317.04 L577.88,305.94 L582.69,295.12 L587.50,268.32   L589.90,268.17 L594.71,268.07 L597.12,267.03 L601.93,260.95 L604.33,260.32 L606.74,252.88 L609.14,243.32 L613.95,136.67   L618.76,127.79 L623.57,126.15 L625.98,125.88 L630.79,67.51 L635.60,67.48 L640.41,67.46 L645.22,67.42 L650.03,67.40   L654.84,67.34  "/>	<use xlink:href="#gpPt11" transform="translate(148.60,22.41) scale(3.00)" color="rgb(255,   0, 255)"/>
</g>
	</g>
	<g id="gnuplot_plot_2a"><title>Bubaak-SpLit</title>
<g fill="none" color="black" stroke="currentColor" stroke-width="2.00" stroke-linecap="butt" stroke-linejoin="miter">
	<g transform="translate(128.80,37.01)" stroke="none" fill="black" font-family="Helvetica" font-size="8.00" text-anchor="end">
		<text><tspan font-family="Helvetica">Bubaak-SpLit</tspan></text>
	</g>
</g>
<g fill="none" color="black" stroke="currentColor" stroke-width="2.00" stroke-linecap="butt" stroke-linejoin="miter">
	<path stroke="rgb(255,   0, 255)" d="M134.40,34.41 L162.80,34.41 M613.84,340.00 L613.95,339.90 L616.36,335.88 L618.76,335.52 L621.17,334.75 L623.57,326.27   L625.98,325.10 L628.38,324.59 L630.79,323.60 L633.19,321.62 L635.60,321.29 L638.00,318.09 L640.41,316.25 L642.81,313.84   L645.22,311.45 L647.62,303.54 L652.43,301.75 L657.24,295.88 L662.05,284.95 L666.86,284.34 L671.67,281.60 L676.48,277.82   L681.29,277.63 L686.10,277.26 L690.91,275.63 L693.32,273.81 L698.13,269.56 L702.94,267.48 L705.34,229.58 L707.75,209.31   L712.56,126.65 L717.37,124.42 L719.77,39.13  "/>	<use xlink:href="#gpPt9" transform="translate(148.60,34.41) scale(3.00)" color="rgb(255,   0, 255)"/>
</g>
	</g>
	<g id="gnuplot_plot_3a"><title>CBMC</title>
<g fill="none" color="black" stroke="currentColor" stroke-width="2.00" stroke-linecap="butt" stroke-linejoin="miter">
	<g transform="translate(128.80,49.01)" stroke="none" fill="black" font-family="Helvetica" font-size="8.00" text-anchor="end">
		<text><tspan font-family="Helvetica">CBMC</tspan></text>
	</g>
</g>
<g fill="none" color="black" stroke="currentColor" stroke-width="2.00" stroke-linecap="butt" stroke-linejoin="miter">
	<path stroke="rgb(255,   0,   0)" d="M134.40,46.41 L162.80,46.41 M619.68,340.00 L621.17,334.28 L625.98,327.12 L628.38,302.76 L630.79,272.70 L635.60,268.54   L638.00,260.16 L642.81,259.00 L645.22,247.79 L647.62,234.49 L652.43,233.14 L657.24,226.87 L662.05,215.73 L664.46,207.48   L666.86,133.84 L669.27,133.01  "/>	<use xlink:href="#gpPt1" transform="translate(148.60,46.41) scale(3.00)" color="rgb(255,   0,   0)"/>
</g>
	</g>
	<g id="gnuplot_plot_4a"><title>CVT-AlgoSel</title>
<g fill="none" color="black" stroke="currentColor" stroke-width="2.00" stroke-linecap="butt" stroke-linejoin="miter">
	<g transform="translate(128.80,61.01)" stroke="none" fill="black" font-family="Helvetica" font-size="8.00" text-anchor="end">
		<text><tspan font-family="Helvetica">CVT-AlgoSel</tspan></text>
	</g>
</g>
<g fill="none" color="black" stroke="currentColor" stroke-width="2.00" stroke-linecap="butt" stroke-linejoin="miter">
	<path stroke="rgb(  0, 100,   0)" d="M134.40,58.41 L162.80,58.41 M373.46,150.04 L375.86,149.59 L380.67,149.39 L383.08,149.33 L387.89,149.31 L390.29,149.09   L392.70,148.95 L395.10,148.90 L399.91,148.83 L404.72,148.78 L409.53,148.63 L411.94,148.52 L414.34,148.49 L419.15,148.19   L423.96,148.09 L428.77,147.94 L431.17,147.88 L433.58,147.86 L435.98,147.63 L438.39,147.46 L440.79,146.92 L443.20,146.86   L445.60,145.65 L450.41,145.17 L452.82,145.15 L455.22,145.09 L457.63,145.02 L460.03,144.92 L464.84,144.75 L469.65,144.69   L472.06,144.67 L474.46,144.46 L476.87,144.43 L481.68,144.37 L484.08,144.36 L488.89,144.29 L493.70,143.97 L498.51,143.93   L503.32,143.92 L505.73,143.84 L508.13,143.66 L512.94,143.59 L515.35,143.21 L517.75,143.18 L522.56,142.96 L527.37,142.94   L532.18,142.56 L534.59,141.90 L539.40,141.89 L544.21,141.82 L549.02,141.77 L551.42,141.74 L556.23,141.34 L558.64,141.30   L561.04,141.25 L565.85,139.86 L570.66,139.16 L575.47,139.15 L577.88,139.13 L582.69,138.94 L585.09,138.91 L587.50,138.00   L589.90,136.78 L594.71,136.62 L599.52,136.07 L601.93,135.66 L606.74,132.81 L611.55,131.50 L613.95,127.81 L616.36,119.95   L618.76,102.65  "/>	<use xlink:href="#gpPt3" transform="translate(373.46,150.04) scale(3.00)" color="rgb(  0, 100,   0)"/>
	<use xlink:href="#gpPt3" transform="translate(148.60,58.41) scale(3.00)" color="rgb(  0, 100,   0)"/>
</g>
	</g>
	<g id="gnuplot_plot_5a"><title>CVT-ParPort</title>
<g fill="none" color="black" stroke="currentColor" stroke-width="2.00" stroke-linecap="butt" stroke-linejoin="miter">
	<g transform="translate(128.80,73.01)" stroke="none" fill="black" font-family="Helvetica" font-size="8.00" text-anchor="end">
		<text><tspan font-family="Helvetica">CVT-ParPort</tspan></text>
	</g>
</g>
<g fill="none" color="black" stroke="currentColor" stroke-width="2.00" stroke-linecap="butt" stroke-linejoin="miter">
	<path stroke="rgb(  0, 100,   0)" d="M134.40,70.41 L162.80,70.41  "/>	<use xlink:href="#gpPt11" transform="translate(148.60,70.41) scale(3.00)" color="rgb(  0, 100,   0)"/>
</g>
	</g>
	<g id="gnuplot_plot_6a"><title>CPAchecker</title>
<g fill="none" color="black" stroke="currentColor" stroke-width="2.00" stroke-linecap="butt" stroke-linejoin="miter">
	<g transform="translate(128.80,85.01)" stroke="none" fill="black" font-family="Helvetica" font-size="8.00" text-anchor="end">
		<text><tspan font-family="Helvetica">CPAchecker</tspan></text>
	</g>
</g>
<g fill="none" color="black" stroke="currentColor" stroke-width="2.00" stroke-linecap="butt" stroke-linejoin="miter">
	<path stroke="rgb(  0,   0, 255)" d="M134.40,82.41 L162.80,82.41 M375.86,258.97 L380.67,257.62 L383.08,255.96 L385.48,249.31 L390.29,248.85 L392.70,248.44   L397.51,248.27 L402.32,247.49 L407.13,247.08 L409.53,246.77 L411.94,246.45 L414.34,244.79 L419.15,244.70 L423.96,244.55   L428.77,244.32 L433.58,244.20 L435.98,244.11 L438.39,242.85 L443.20,242.59 L448.01,242.44 L452.82,242.32 L457.63,242.28   L462.44,242.23 L467.25,242.18 L469.65,241.02 L474.46,240.95 L479.27,240.75 L481.68,240.65 L484.08,240.51 L486.49,240.32   L491.30,240.19 L496.11,240.02 L500.92,239.26 L505.73,238.96 L508.13,238.90 L510.54,238.59 L512.94,238.15 L515.35,238.05   L517.75,237.97 L522.56,237.47 L524.97,237.44 L527.37,237.30 L529.78,237.11 L532.18,236.87 L534.59,236.24 L536.99,235.97   L541.80,235.64 L546.61,234.42 L551.42,234.27 L553.83,234.21 L556.23,233.72 L561.04,233.64 L565.85,233.21 L568.26,232.58   L570.66,232.28 L573.07,230.83 L575.47,230.11 L577.88,229.63 L582.69,229.19 L587.50,229.18 L592.31,226.82 L594.71,225.73   L597.12,222.27 L599.52,222.06 L601.93,221.54 L606.74,220.34 L611.55,218.20 L613.95,214.11 L616.36,212.19 L621.17,210.94   L625.98,205.03 L628.38,166.28 L630.79,159.74 L633.19,146.00 L635.60,146.00 L638.00,119.61  "/>	<use xlink:href="#gpPt2" transform="translate(375.86,258.97) scale(3.00)" color="rgb(  0,   0, 255)"/>
	<use xlink:href="#gpPt2" transform="translate(148.60,82.41) scale(3.00)" color="rgb(  0,   0, 255)"/>
</g>
	</g>
	<g id="gnuplot_plot_7a"><title>CPV</title>
<g fill="none" color="black" stroke="currentColor" stroke-width="2.00" stroke-linecap="butt" stroke-linejoin="miter">
	<g transform="translate(128.80,97.01)" stroke="none" fill="black" font-family="Helvetica" font-size="8.00" text-anchor="end">
		<text><tspan font-family="Helvetica">CPV</tspan></text>
	</g>
</g>
<g fill="none" color="black" stroke="currentColor" stroke-width="2.00" stroke-linecap="butt" stroke-linejoin="miter">
	<path stroke="rgb(160, 128,  32)" d="M134.40,94.41 L162.80,94.41 M375.86,325.10 L380.67,324.97 L385.48,324.60 L390.29,323.78 L392.70,323.28 L397.51,321.53   L402.32,320.93 L407.13,320.42 L411.94,318.50 L416.75,315.94 L421.56,315.90 L426.36,315.60 L431.17,315.50 L435.98,312.74   L438.39,310.77 L443.20,307.58 L448.01,306.15 L452.82,305.11 L457.63,302.91 L462.44,302.81 L467.25,301.35 L472.06,241.83   L476.87,237.92 L481.68,236.96 L484.08,235.96 L488.89,235.80 L491.30,235.42 L496.11,234.93 L500.92,234.91 L505.73,234.88   L508.13,234.48 L510.54,234.38 L512.94,232.99 L515.35,228.45 L520.16,228.12 L524.97,228.02 L529.78,201.32 L534.59,196.05   L539.40,183.46 L544.21,85.35  "/>	<use xlink:href="#gpPt2" transform="translate(375.86,325.10) scale(3.00)" color="rgb(160, 128,  32)"/>
	<use xlink:href="#gpPt2" transform="translate(148.60,94.41) scale(3.00)" color="rgb(160, 128,  32)"/>
</g>
	</g>
	<g id="gnuplot_plot_8a"><title>Crux</title>
<g fill="none" color="black" stroke="currentColor" stroke-width="2.00" stroke-linecap="butt" stroke-linejoin="miter">
	<g transform="translate(128.80,109.01)" stroke="none" fill="black" font-family="Helvetica" font-size="8.00" text-anchor="end">
		<text><tspan font-family="Helvetica">Crux</tspan></text>
	</g>
</g>
<g fill="none" color="black" stroke="currentColor" stroke-width="2.00" stroke-linecap="butt" stroke-linejoin="miter">
	<path stroke="rgb(255,   0,   0)" d="M134.40,106.41 L162.80,106.41 M511.43,340.00 L512.94,315.94 L515.35,309.02 L520.16,276.65 L524.97,254.40 L529.78,252.12   L532.18,246.05 L534.59,243.31 L536.99,237.58 L541.80,181.41  "/>	<use xlink:href="#gpPt10" transform="translate(148.60,106.41) scale(3.00)" color="rgb(255,   0,   0)"/>
</g>
	</g>
	<g id="gnuplot_plot_9a"><title>DIVINE</title>
<g fill="none" color="black" stroke="currentColor" stroke-width="2.00" stroke-linecap="butt" stroke-linejoin="miter">
	<g transform="translate(128.80,121.01)" stroke="none" fill="black" font-family="Helvetica" font-size="8.00" text-anchor="end">
		<text><tspan font-family="Helvetica">DIVINE</tspan></text>
	</g>
</g>
<g fill="none" color="black" stroke="currentColor" stroke-width="2.00" stroke-linecap="butt" stroke-linejoin="miter">
	<path stroke="rgb(139,   0,   0)" d="M134.40,118.41 L162.80,118.41 M375.86,323.69 L380.67,323.64 L385.48,323.40 L390.29,323.16 L395.10,323.15 L399.91,323.12   L404.72,322.67 L409.53,322.59 L414.34,321.43 L419.15,320.86 L423.96,319.45 L428.77,316.55 L433.58,315.86 L438.39,314.64   L443.20,314.46 L445.60,286.98 L448.01,286.74 L450.41,286.72 L452.82,286.59 L455.22,286.11 L457.63,286.04 L460.03,283.75   L462.44,280.95 L467.25,242.13 L472.06,239.70 L476.87,239.36 L481.68,239.35 L486.49,239.34 L491.30,239.32 L496.11,239.22   L500.92,239.13 L505.73,239.03 L510.54,238.76 L515.35,238.73 L520.16,238.62 L524.97,238.49 L529.78,238.42 L534.59,238.17   L539.40,237.83 L544.21,237.76 L549.02,237.14 L553.83,235.76 L558.64,234.60 L563.45,234.37 L568.26,234.34 L573.07,232.49   L575.47,222.99 L577.88,222.93 L580.28,222.79 L582.69,222.46 L585.09,222.40 L587.50,222.28 L589.90,222.16 L592.31,221.82   L594.71,221.70 L597.12,221.39 L599.52,221.20 L601.93,221.01 L604.33,220.97 L606.74,220.57 L609.14,220.53 L613.95,219.48   L616.36,219.29 L618.76,218.70 L621.17,218.66 L623.57,217.77 L625.98,217.68 L628.38,217.38 L630.79,216.83 L633.19,214.67   L635.60,211.68 L640.41,208.03 L642.81,207.78 L645.22,204.13 L647.62,203.53 L650.03,203.32 L652.43,201.90 L654.84,201.41   L657.24,198.86 L659.65,195.87 L662.05,194.73 L664.46,192.85 L666.86,185.54 L669.27,183.90 L671.67,177.60 L676.48,166.84   L681.29,166.36 L683.70,79.58  "/>	<use xlink:href="#gpPt0" transform="translate(375.86,323.69) scale(3.00)" color="rgb(139,   0,   0)"/>
	<use xlink:href="#gpPt0" transform="translate(148.60,118.41) scale(3.00)" color="rgb(139,   0,   0)"/>
</g>
	</g>
	<g id="gnuplot_plot_10a"><title>ESBMC-kind</title>
<g fill="none" color="black" stroke="currentColor" stroke-width="2.00" stroke-linecap="butt" stroke-linejoin="miter">
	<g transform="translate(128.80,133.01)" stroke="none" fill="black" font-family="Helvetica" font-size="8.00" text-anchor="end">
		<text><tspan font-family="Helvetica">ESBMC-kind</tspan></text>
	</g>
</g>
<g fill="none" color="black" stroke="currentColor" stroke-width="2.00" stroke-linecap="butt" stroke-linejoin="miter">
	<path stroke="rgb(255, 215,   0)" d="M134.40,130.41 L162.80,130.41 M610.69,340.00 L611.55,339.59 L616.36,329.91 L618.76,317.62 L621.17,291.68 L625.98,278.68   L628.38,274.31 L630.79,266.10 L633.19,227.10 L635.60,213.75 L640.41,212.83 L642.81,194.34 L647.62,194.21 L652.43,191.59   L654.84,96.75 L659.65,87.44 L662.05,67.64 L666.86,60.89 L671.67,56.92 L676.48,20.67  "/>	<use xlink:href="#gpPt5" transform="translate(148.60,130.41) scale(3.00)" color="rgb(255, 215,   0)"/>
</g>
	</g>
	<g id="gnuplot_plot_11a"><title>Gazer-Theta</title>
<g fill="none" color="black" stroke="currentColor" stroke-width="2.00" stroke-linecap="butt" stroke-linejoin="miter">
	<g transform="translate(128.80,145.01)" stroke="none" fill="black" font-family="Helvetica" font-size="8.00" text-anchor="end">
		<text><tspan font-family="Helvetica">Gazer-Theta</tspan></text>
	</g>
</g>
<g fill="none" color="black" stroke="currentColor" stroke-width="2.00" stroke-linecap="butt" stroke-linejoin="miter">
	<path stroke="rgb(128,  96, 255)" d="M134.40,142.41 L162.80,142.41 M592.26,340.00 L592.31,339.86 L597.12,336.16 L601.93,326.79 L604.33,306.85 L609.14,302.22   L611.55,284.79 L616.36,284.53 L618.76,273.61 L621.17,245.32 L623.57,228.50 L628.38,101.70 L630.79,61.72  "/>	<use xlink:href="#gpPt2" transform="translate(148.60,142.41) scale(3.00)" color="rgb(128,  96, 255)"/>
</g>
	</g>
	<g id="gnuplot_plot_12a"><title>Goblint</title>
<g fill="none" color="black" stroke="currentColor" stroke-width="2.00" stroke-linecap="butt" stroke-linejoin="miter">
	<g transform="translate(128.80,157.01)" stroke="none" fill="black" font-family="Helvetica" font-size="8.00" text-anchor="end">
		<text><tspan font-family="Helvetica">Goblint</tspan></text>
	</g>
</g>
<g fill="none" color="black" stroke="currentColor" stroke-width="2.00" stroke-linecap="butt" stroke-linejoin="miter">
	<path stroke="rgb(  0, 139, 139)" d="M134.40,154.41 L162.80,154.41 M533.08,340.00 L534.59,338.96 L539.40,317.32 L544.21,229.42 L549.02,215.80 L553.83,214.81   L558.64,174.26 L563.45,143.20  "/>	<use xlink:href="#gpPt11" transform="translate(148.60,154.41) scale(3.00)" color="rgb(  0, 139, 139)"/>
</g>
	</g>
	<g id="gnuplot_plot_13a"><title>Graves-CPA</title>
<g fill="none" color="black" stroke="currentColor" stroke-width="2.00" stroke-linecap="butt" stroke-linejoin="miter">
	<g transform="translate(128.80,169.01)" stroke="none" fill="black" font-family="Helvetica" font-size="8.00" text-anchor="end">
		<text><tspan font-family="Helvetica">Graves-CPA</tspan></text>
	</g>
</g>
<g fill="none" color="black" stroke="currentColor" stroke-width="2.00" stroke-linecap="butt" stroke-linejoin="miter">
	<path stroke="rgb(  0, 100,   0)" d="M134.40,166.41 L162.80,166.41  "/>	<use xlink:href="#gpPt1" transform="translate(148.60,166.41) scale(3.00)" color="rgb(  0, 100,   0)"/>
</g>
	</g>
	<g id="gnuplot_plot_14a"><title>Graves-Par</title>
<g fill="none" color="black" stroke="currentColor" stroke-width="2.00" stroke-linecap="butt" stroke-linejoin="miter">
	<g transform="translate(128.80,181.01)" stroke="none" fill="black" font-family="Helvetica" font-size="8.00" text-anchor="end">
		<text><tspan font-family="Helvetica">Graves-Par</tspan></text>
	</g>
</g>
<g fill="none" color="black" stroke="currentColor" stroke-width="2.00" stroke-linecap="butt" stroke-linejoin="miter">
	<path stroke="rgb(  0, 100,   0)" d="M134.40,178.41 L162.80,178.41  "/>	<use xlink:href="#gpPt7" transform="translate(148.60,178.41) scale(3.00)" color="rgb(  0, 100,   0)"/>
</g>
	</g>
	<g id="gnuplot_plot_15a"><title>Infer</title>
<g fill="none" color="black" stroke="currentColor" stroke-width="2.00" stroke-linecap="butt" stroke-linejoin="miter">
	<g transform="translate(128.80,193.01)" stroke="none" fill="black" font-family="Helvetica" font-size="8.00" text-anchor="end">
		<text><tspan font-family="Helvetica">Infer</tspan></text>
	</g>
</g>
<g fill="none" color="black" stroke="currentColor" stroke-width="2.00" stroke-linecap="butt" stroke-linejoin="miter">
	<path stroke="rgb(160, 255,  32)" d="M134.40,190.41 L162.80,190.41  "/>	<use xlink:href="#gpPt4" transform="translate(148.60,190.41) scale(3.00)" color="rgb(160, 255,  32)"/>
</g>
	</g>
	<g id="gnuplot_plot_16a"><title>Korn</title>
<g fill="none" color="black" stroke="currentColor" stroke-width="2.00" stroke-linecap="butt" stroke-linejoin="miter">
	<g transform="translate(128.80,205.01)" stroke="none" fill="black" font-family="Helvetica" font-size="8.00" text-anchor="end">
		<text><tspan font-family="Helvetica">Korn</tspan></text>
	</g>
</g>
<g fill="none" color="black" stroke="currentColor" stroke-width="2.00" stroke-linecap="butt" stroke-linejoin="miter">
	<path stroke="rgb(  0, 139, 139)" d="M134.40,202.41 L162.80,202.41 M388.13,340.00 L390.29,339.82 L392.70,339.67 L395.10,339.52 L397.51,339.14 L399.91,338.66   L402.32,338.12 L404.72,337.76 L407.13,336.73 L409.53,336.41 L411.94,336.23 L414.34,336.15 L416.75,336.15 L419.15,335.65   L421.56,335.06 L423.96,334.86 L426.36,334.57 L428.77,306.19 L431.17,257.26 L433.58,239.27 L435.98,224.72 L438.39,222.28   L443.20,221.63 L448.01,220.91 L452.82,219.93 L457.63,219.49 L462.44,218.05 L467.25,216.66 L472.06,216.52 L476.87,216.51   L481.68,216.43 L486.49,216.37 L491.30,216.34 L496.11,216.28 L500.92,216.19 L505.73,216.03 L510.54,215.93 L515.35,215.87   L520.16,215.83 L524.97,215.79 L529.78,215.70 L534.59,215.68 L539.40,215.59 L544.21,215.52 L549.02,215.49 L553.83,215.49   L558.64,215.15 L563.45,215.03 L568.26,214.97 L573.07,214.73 L577.88,214.66 L582.69,214.48 L587.50,214.29 L592.31,213.99   L597.12,213.77 L601.93,213.16 L606.74,212.96 L611.55,212.35 L616.36,212.24 L621.17,211.86 L625.98,211.15 L630.79,209.91   L635.60,209.60 L640.41,208.42 L645.22,206.32 L650.03,205.76 L654.84,204.76 L659.65,197.75 L664.46,189.12 L669.27,172.51    "/>	<use xlink:href="#gpPt0" transform="translate(148.60,202.41) scale(3.00)" color="rgb(  0, 139, 139)"/>
</g>
	</g>
	<g id="gnuplot_plot_17a"><title>Mopsa</title>
<g fill="none" color="black" stroke="currentColor" stroke-width="2.00" stroke-linecap="butt" stroke-linejoin="miter">
	<g transform="translate(128.80,217.01)" stroke="none" fill="black" font-family="Helvetica" font-size="8.00" text-anchor="end">
		<text><tspan font-family="Helvetica">Mopsa</tspan></text>
	</g>
</g>
<g fill="none" color="black" stroke="currentColor" stroke-width="2.00" stroke-linecap="butt" stroke-linejoin="miter">
	<path stroke="rgb(165,  42,  42)" d="M134.40,214.41 L162.80,214.41 M375.86,338.79 L380.67,338.66 L385.48,338.47 L390.29,338.13 L395.10,338.06 L399.91,337.55    "/>	<use xlink:href="#gpPt3" transform="translate(375.86,338.79) scale(3.00)" color="rgb(165,  42,  42)"/>
	<use xlink:href="#gpPt3" transform="translate(148.60,214.41) scale(3.00)" color="rgb(165,  42,  42)"/>
</g>
	</g>
	<g id="gnuplot_plot_18a"><title>PeSCo-CPA</title>
<g fill="none" color="black" stroke="currentColor" stroke-width="2.00" stroke-linecap="butt" stroke-linejoin="miter">
	<g transform="translate(128.80,229.01)" stroke="none" fill="black" font-family="Helvetica" font-size="8.00" text-anchor="end">
		<text><tspan font-family="Helvetica">PeSCo-CPA</tspan></text>
	</g>
</g>
<g fill="none" color="black" stroke="currentColor" stroke-width="2.00" stroke-linecap="butt" stroke-linejoin="miter">
	<path stroke="rgb(  0, 100,   0)" d="M134.40,226.41 L162.80,226.41 M375.86,318.78 L380.67,318.72 L385.48,318.27 L390.29,317.63 L395.10,317.62 L399.91,317.45   L404.72,316.96 L409.53,316.79 L414.34,316.55 L419.15,316.22 L423.96,316.06 L428.77,316.05 L433.58,315.78 L438.39,315.63   L443.20,315.60 L448.01,315.55 L452.82,314.80 L457.63,314.68 L462.44,313.97 L467.25,313.74 L472.06,313.44 L476.87,313.35   L481.68,312.81 L486.49,311.68 L491.30,311.54 L496.11,310.82 L500.92,309.27 L503.32,305.88 L505.73,305.61 L508.13,305.39   L510.54,305.32 L512.94,305.17 L515.35,305.12 L517.75,304.98 L520.16,304.88 L522.56,304.86 L524.97,304.84 L527.37,304.76   L529.78,304.70 L532.18,304.69 L534.59,304.63 L536.99,304.60 L539.40,304.57 L541.80,304.56 L544.21,304.35 L546.61,304.27   L549.02,304.11 L551.42,304.10 L553.83,303.73 L556.23,303.63 L558.64,303.33 L561.04,302.98 L565.85,302.92 L568.26,302.83   L570.66,302.83 L573.07,302.44 L575.47,302.30 L577.88,301.05 L580.28,300.67 L582.69,300.60 L585.09,299.26 L587.50,299.02   L589.90,299.02 L594.71,298.12 L597.12,298.07 L601.93,297.54 L604.33,296.67 L606.74,294.96 L611.55,280.36 L616.36,277.72   L618.76,275.39 L621.17,274.42 L625.98,267.93 L630.79,195.93 L633.19,191.08 L635.60,183.09 L640.41,181.10 L645.22,163.61   L647.62,139.19 L650.03,130.84 L654.84,115.82 L659.65,115.53 L664.46,115.37 L669.27,115.33 L674.08,115.25 L678.89,115.20   L683.70,114.74 L688.51,114.71 L693.32,114.30 L698.13,110.54  "/>	<use xlink:href="#gpPt5" transform="translate(375.86,318.78) scale(3.00)" color="rgb(  0, 100,   0)"/>
	<use xlink:href="#gpPt5" transform="translate(148.60,226.41) scale(3.00)" color="rgb(  0, 100,   0)"/>
</g>
	</g>
	<g id="gnuplot_plot_19a"><title>Pinaka</title>
<g fill="none" color="black" stroke="currentColor" stroke-width="2.00" stroke-linecap="butt" stroke-linejoin="miter">
	<g transform="translate(128.80,241.01)" stroke="none" fill="black" font-family="Helvetica" font-size="8.00" text-anchor="end">
		<text><tspan font-family="Helvetica">Pinaka</tspan></text>
	</g>
</g>
<g fill="none" color="black" stroke="currentColor" stroke-width="2.00" stroke-linecap="butt" stroke-linejoin="miter">
	<path stroke="rgb(190, 190, 190)" d="M134.40,238.41 L162.80,238.41 M613.76,340.00 L616.36,307.21 L621.17,306.92 L625.98,284.34 L630.79,278.81 L633.19,271.41   L635.60,263.41 L638.00,263.30 L642.81,244.34 L647.62,243.24 L652.43,192.62 L657.24,191.39 L659.65,155.88 L662.05,151.47    "/>	<use xlink:href="#gpPt5" transform="translate(148.60,238.41) scale(3.00)" color="rgb(190, 190, 190)"/>
</g>
	</g>
	<g id="gnuplot_plot_20a"><title>Symbiotic</title>
<g fill="none" color="black" stroke="currentColor" stroke-width="2.00" stroke-linecap="butt" stroke-linejoin="miter">
	<g transform="translate(128.80,253.01)" stroke="none" fill="black" font-family="Helvetica" font-size="8.00" text-anchor="end">
		<text><tspan font-family="Helvetica">Symbiotic</tspan></text>
	</g>
</g>
<g fill="none" color="black" stroke="currentColor" stroke-width="2.00" stroke-linecap="butt" stroke-linejoin="miter">
	<path stroke="rgb(255, 165,   0)" d="M134.40,250.41 L162.80,250.41 M631.57,340.00 L633.19,337.54 L635.60,337.39 L638.00,335.70 L640.41,327.14 L642.81,326.20   L645.22,323.89 L650.03,317.14 L652.43,297.40 L654.84,292.89 L659.65,289.75 L664.46,275.41 L669.27,267.17 L674.08,266.63   L676.48,260.96 L678.89,256.72 L681.29,243.10 L683.70,236.34 L686.10,232.21 L690.91,134.01 L695.72,127.54 L700.53,125.90   L702.94,116.14 L707.75,54.80 L712.56,54.79 L717.37,54.79 L722.18,54.78 L726.99,54.77 L731.80,54.76  "/>	<use xlink:href="#gpPt5" transform="translate(148.60,250.41) scale(3.00)" color="rgb(255, 165,   0)"/>
</g>
	</g>
	<g id="gnuplot_plot_21a"><title>Theta</title>
<g fill="none" color="black" stroke="currentColor" stroke-width="2.00" stroke-linecap="butt" stroke-linejoin="miter">
	<g transform="translate(128.80,265.01)" stroke="none" fill="black" font-family="Helvetica" font-size="8.00" text-anchor="end">
		<text><tspan font-family="Helvetica">Theta</tspan></text>
	</g>
</g>
<g fill="none" color="black" stroke="currentColor" stroke-width="2.00" stroke-linecap="butt" stroke-linejoin="miter">
	<path stroke="rgb(128,  96, 255)" d="M134.40,262.41 L162.80,262.41 M375.86,244.75 L380.67,243.81 L383.08,240.22 L385.48,238.93 L387.89,238.88 L390.29,237.63   L392.70,236.63 L395.10,231.55 L397.51,230.60 L399.91,228.77 L402.32,227.35 L404.72,226.38 L407.13,225.53 L409.53,224.49   L411.94,223.52 L414.34,221.56 L416.75,221.32 L419.15,219.36 L421.56,217.30 L423.96,216.05 L426.36,213.54 L428.77,212.11   L431.17,210.64 L433.58,205.66 L435.98,194.65 L438.39,166.03 L440.79,165.74 L445.60,102.50 L450.41,102.17 L455.22,101.75   L457.63,101.66 L462.44,100.40 L467.25,100.36 L472.06,100.32 L476.87,100.28 L481.68,100.28 L486.49,100.15 L491.30,99.78   L496.11,99.77 L500.92,98.89 L505.73,98.62 L508.13,38.49 L510.54,36.82 L512.94,33.80  "/>	<use xlink:href="#gpPt1" transform="translate(375.86,244.75) scale(3.00)" color="rgb(128,  96, 255)"/>
	<use xlink:href="#gpPt1" transform="translate(148.60,262.41) scale(3.00)" color="rgb(128,  96, 255)"/>
</g>
	</g>
	<g id="gnuplot_plot_22a"><title>UAutomizer</title>
<g fill="none" color="black" stroke="currentColor" stroke-width="2.00" stroke-linecap="butt" stroke-linejoin="miter">
	<g transform="translate(128.80,277.01)" stroke="none" fill="black" font-family="Helvetica" font-size="8.00" text-anchor="end">
		<text><tspan font-family="Helvetica">UAutomizer</tspan></text>
	</g>
</g>
<g fill="none" color="black" stroke="currentColor" stroke-width="2.00" stroke-linecap="butt" stroke-linejoin="miter">
	<path stroke="rgb(250, 128, 114)" d="M134.40,274.41 L162.80,274.41 M375.86,201.28 L378.27,201.25 L380.67,200.95 L383.08,200.69 L385.48,200.61 L390.29,199.73   L392.70,199.54 L395.10,199.43 L397.51,198.74 L399.91,195.15 L402.32,194.76 L407.13,194.71 L411.94,192.45 L414.34,192.26   L416.75,192.22 L421.56,192.10 L423.96,191.86 L428.77,190.82 L433.58,190.53 L435.98,189.35 L440.79,189.34 L445.60,189.24   L448.01,189.17 L452.82,188.30 L457.63,188.05 L462.44,187.89 L464.84,187.32 L469.65,186.68 L474.46,186.48 L479.27,185.93   L484.08,182.25 L488.89,179.83 L493.70,178.06 L496.11,176.58 L500.92,175.79 L503.32,175.23 L505.73,174.07 L510.54,173.88   L512.94,170.15 L517.75,169.82 L520.16,169.54 L524.97,168.71 L529.78,168.58 L534.59,168.38 L536.99,168.05 L539.40,167.92   L541.80,167.77 L546.61,167.18 L551.42,164.29 L553.83,163.67 L556.23,162.26 L558.64,161.61 L563.45,160.98 L568.26,160.62   L570.66,159.04 L575.47,158.80 L580.28,157.62 L585.09,156.60 L589.90,155.58 L594.71,155.32 L599.52,151.65 L604.33,150.84   L606.74,150.77 L611.55,147.69 L616.36,147.52 L618.76,143.97 L623.57,142.16 L628.38,139.70 L633.19,138.42 L638.00,138.05   L640.41,137.56 L642.81,131.73 L647.62,130.02 L650.03,128.43 L652.43,125.88 L657.24,121.65 L662.05,115.64 L666.86,115.23   L671.67,104.44 L676.48,103.64 L681.29,103.15 L683.70,102.42 L688.51,101.80 L690.91,101.75 L695.72,97.81 L698.13,92.98   L702.94,90.81 L707.75,83.95 L712.56,81.50 L714.96,76.48 L717.37,76.29 L722.18,76.22 L726.99,71.54 L729.39,69.34   L734.20,66.60 L739.01,64.41 L743.82,64.23 L748.63,62.58 L751.04,35.88 L753.44,32.15 L758.25,30.54 L763.06,30.14    "/>	<use xlink:href="#gpPt5" transform="translate(375.86,201.28) scale(3.00)" color="rgb(250, 128, 114)"/>
	<use xlink:href="#gpPt5" transform="translate(758.25,30.54) scale(3.00)" color="rgb(250, 128, 114)"/>
	<use xlink:href="#gpPt5" transform="translate(148.60,274.41) scale(3.00)" color="rgb(250, 128, 114)"/>
</g>
	</g>
	<g id="gnuplot_plot_23a"><title>UKojak</title>
<g fill="none" color="black" stroke="currentColor" stroke-width="2.00" stroke-linecap="butt" stroke-linejoin="miter">
	<g transform="translate(128.80,289.01)" stroke="none" fill="black" font-family="Helvetica" font-size="8.00" text-anchor="end">
		<text><tspan font-family="Helvetica">UKojak</tspan></text>
	</g>
</g>
<g fill="none" color="black" stroke="currentColor" stroke-width="2.00" stroke-linecap="butt" stroke-linejoin="miter">
	<path stroke="rgb(250, 128, 114)" d="M134.40,286.41 L162.80,286.41 M373.46,203.85 L378.27,203.75 L380.67,202.74 L385.48,200.49 L387.89,200.30 L390.29,200.25   L392.70,200.17 L395.10,197.78 L397.51,197.28 L399.91,197.16 L404.72,196.31 L407.13,195.57 L409.53,194.55 L414.34,193.38   L419.15,192.27 L421.56,191.67 L426.36,191.06 L428.77,190.69 L433.58,189.73 L438.39,189.56 L443.20,188.49 L448.01,187.42   L450.41,186.08 L455.22,185.97 L457.63,183.12 L462.44,183.09 L464.84,182.82 L467.25,181.72 L469.65,179.26 L474.46,177.57   L479.27,174.69 L481.68,173.51 L486.49,171.21 L491.30,170.81 L493.70,170.68 L496.11,169.37 L498.51,167.89 L503.32,166.58   L505.73,164.83 L510.54,162.29 L512.94,158.47 L515.35,156.22 L520.16,154.53 L524.97,154.25 L527.37,151.76 L529.78,150.31   L534.59,148.35 L536.99,144.75 L539.40,143.40 L541.80,143.01 L546.61,142.23 L551.42,139.68 L556.23,137.02 L561.04,136.36   L563.45,133.88 L568.26,132.87 L573.07,128.43 L575.47,127.25 L580.28,126.34 L582.69,125.55 L587.50,118.86 L589.90,118.36   L594.71,111.07 L597.12,100.75  "/>	<use xlink:href="#gpPt9" transform="translate(373.46,203.85) scale(3.00)" color="rgb(250, 128, 114)"/>
	<use xlink:href="#gpPt9" transform="translate(148.60,286.41) scale(3.00)" color="rgb(250, 128, 114)"/>
</g>
	</g>
	<g id="gnuplot_plot_24a"><title>UTaipan</title>
<g fill="none" color="black" stroke="currentColor" stroke-width="2.00" stroke-linecap="butt" stroke-linejoin="miter">
	<g transform="translate(128.80,301.01)" stroke="none" fill="black" font-family="Helvetica" font-size="8.00" text-anchor="end">
		<text><tspan font-family="Helvetica">UTaipan</tspan></text>
	</g>
</g>
<g fill="none" color="black" stroke="currentColor" stroke-width="2.00" stroke-linecap="butt" stroke-linejoin="miter">
	<path stroke="rgb(250, 128, 114)" d="M134.40,298.41 L162.80,298.41 M373.46,204.15 L375.86,203.02 L378.27,201.22 L380.67,200.61 L383.08,200.38 L387.89,200.14   L392.70,198.44 L397.51,197.76 L402.32,197.30 L407.13,196.71 L409.53,196.49 L411.94,196.13 L416.75,195.47 L419.15,194.75   L421.56,192.96 L426.36,192.85 L428.77,192.84 L433.58,192.45 L438.39,191.46 L440.79,191.38 L443.20,191.12 L445.60,190.83   L448.01,190.79 L452.82,190.68 L455.22,190.33 L460.03,189.29 L464.84,188.81 L469.65,188.15 L474.46,187.59 L479.27,186.87   L484.08,185.88 L488.89,181.02 L493.70,180.70 L496.11,179.66 L498.51,179.58 L500.92,177.27 L503.32,177.14 L508.13,175.26   L512.94,175.00 L517.75,174.82 L522.56,172.23 L527.37,171.39 L529.78,169.78 L532.18,169.55 L534.59,167.83 L539.40,166.86   L541.80,165.41 L546.61,164.02 L551.42,162.13 L553.83,158.73 L558.64,158.60 L563.45,157.68 L568.26,157.34 L573.07,156.45   L575.47,155.97 L577.88,155.26 L582.69,154.57 L585.09,151.93 L587.50,151.37 L592.31,150.70 L594.71,149.85 L599.52,147.81   L601.93,146.32 L606.74,146.21 L609.14,145.22 L613.95,145.20 L618.76,143.36 L621.17,142.61 L625.98,139.78 L630.79,138.25   L635.60,134.32 L638.00,131.89 L642.81,126.43 L645.22,119.99 L650.03,119.28 L654.84,117.43 L657.24,111.56 L662.05,110.23   L666.86,109.32 L671.67,107.18 L676.48,102.36 L678.89,97.81 L681.29,97.58 L683.70,92.87 L688.51,90.07 L693.32,85.98   L695.72,80.94 L700.53,78.39 L705.34,71.02 L707.75,70.41 L712.56,69.54 L717.37,67.87 L722.18,59.07 L724.58,33.06   L729.39,32.98 L734.20,32.65  "/>	<use xlink:href="#gpPt13" transform="translate(373.46,204.15) scale(3.00)" color="rgb(250, 128, 114)"/>
	<use xlink:href="#gpPt13" transform="translate(148.60,298.41) scale(3.00)" color="rgb(250, 128, 114)"/>
</g>
	</g>
	<g id="gnuplot_plot_25a"><title>VeriAbs</title>
<g fill="none" color="black" stroke="currentColor" stroke-width="2.00" stroke-linecap="butt" stroke-linejoin="miter">
	<g transform="translate(128.80,313.01)" stroke="none" fill="black" font-family="Helvetica" font-size="8.00" text-anchor="end">
		<text><tspan font-family="Helvetica">VeriAbs</tspan></text>
	</g>
</g>
<g fill="none" color="black" stroke="currentColor" stroke-width="2.00" stroke-linecap="butt" stroke-linejoin="miter">
	<path stroke="rgb(200, 200,   0)" d="M134.40,310.41 L162.80,310.41 M298.90,202.44 L303.71,202.14 L308.52,201.87 L313.33,201.84 L318.14,201.79 L322.95,201.45   L327.76,201.32 L332.57,201.26 L337.38,201.22 L342.19,201.18 L347.00,201.16 L351.81,201.11 L356.62,201.00 L361.43,200.79   L366.24,200.78 L371.05,200.74 L375.86,200.74 L380.67,200.72 L385.48,200.45 L390.29,200.26 L395.10,200.06 L399.91,200.05   L404.72,199.41 L409.53,199.34 L414.34,197.45 L419.15,197.30 L423.96,197.29 L428.77,197.20 L433.58,195.01 L435.98,191.61   L438.39,190.99 L443.20,190.90 L448.01,190.61 L452.82,190.35 L455.22,190.15 L457.63,189.99 L460.03,189.94 L462.44,189.63   L464.84,189.63 L467.25,189.59 L472.06,189.43 L474.46,189.41 L476.87,189.30 L479.27,189.30 L481.68,189.12 L484.08,189.11   L486.49,189.07 L491.30,188.75 L493.70,188.54 L496.11,188.51 L498.51,188.04 L503.32,187.92 L505.73,187.54 L510.54,186.51   L512.94,185.84 L517.75,185.10 L520.16,183.91 L522.56,183.68 L524.97,183.60 L529.78,183.57 L532.18,183.52 L536.99,181.55   L539.40,180.36 L544.21,179.46 L546.61,178.80 L551.42,178.71 L553.83,175.09 L556.23,173.31 L561.04,172.90 L563.45,172.51   L565.85,172.44 L568.26,172.05 L573.07,170.01 L575.47,169.32 L577.88,165.53 L580.28,163.84 L585.09,157.93 L587.50,155.04   L592.31,150.13 L597.12,142.87 L601.93,139.67 L606.74,134.79 L611.55,128.97 L613.95,126.86 L616.36,125.73 L618.76,85.58   L621.17,79.37  "/>	<use xlink:href="#gpPt2" transform="translate(298.90,202.44) scale(3.00)" color="rgb(200, 200,   0)"/>
	<use xlink:href="#gpPt2" transform="translate(148.60,310.41) scale(3.00)" color="rgb(200, 200,   0)"/>
</g>
	</g>
	<g id="gnuplot_plot_26a"><title>VeriAbsL</title>
<g fill="none" color="black" stroke="currentColor" stroke-width="2.00" stroke-linecap="butt" stroke-linejoin="miter">
	<g transform="translate(128.80,325.01)" stroke="none" fill="black" font-family="Helvetica" font-size="8.00" text-anchor="end">
		<text><tspan font-family="Helvetica">VeriAbsL</tspan></text>
	</g>
</g>
<g fill="none" color="black" stroke="currentColor" stroke-width="2.00" stroke-linecap="butt" stroke-linejoin="miter">
	<path stroke="rgb(200, 200,   0)" d="M134.40,322.41 L162.80,322.41 M298.90,212.83 L303.71,212.77 L308.52,212.65 L313.33,212.43 L318.14,212.24 L322.95,212.14   L327.76,212.09 L332.57,212.06 L337.38,211.83 L342.19,211.75 L347.00,211.69 L351.81,211.41 L356.62,211.35 L361.43,211.34   L366.24,211.21 L371.05,211.20 L375.86,211.16 L380.67,211.11 L385.48,210.96 L390.29,210.81 L395.10,210.75 L399.91,210.09   L404.72,209.89 L409.53,209.47 L414.34,209.39 L419.15,208.26 L423.96,206.89 L428.77,205.54 L433.58,205.42 L438.39,204.40   L443.20,202.24 L448.01,201.96 L452.82,200.35 L455.22,199.30 L457.63,199.26 L460.03,199.11 L462.44,199.09 L464.84,199.07   L467.25,198.85 L469.65,198.67 L474.46,198.39 L476.87,198.30 L479.27,198.18 L481.68,198.02 L484.08,197.97 L486.49,197.59   L488.89,197.55 L491.30,197.38 L493.70,197.23 L496.11,197.22 L498.51,197.10 L500.92,197.08 L503.32,196.40 L505.73,196.21   L510.54,196.03 L512.94,196.02 L515.35,195.87 L517.75,195.42 L520.16,195.03 L522.56,194.47 L524.97,194.45 L527.37,192.81   L529.78,191.53 L532.18,191.40 L534.59,188.12 L536.99,187.75 L539.40,187.10 L544.21,182.20 L546.61,174.21 L551.42,137.76   L556.23,136.76 L558.64,132.86 L561.04,115.56 L563.45,93.82 L565.85,64.84 L570.66,64.21 L573.07,64.20 L577.88,64.02   L582.69,63.93 L587.50,63.64 L592.31,63.05 L597.12,60.80 L601.93,50.22 L604.33,32.59  "/>	<use xlink:href="#gpPt3" transform="translate(298.90,212.83) scale(3.00)" color="rgb(200, 200,   0)"/>
	<use xlink:href="#gpPt3" transform="translate(148.60,322.41) scale(3.00)" color="rgb(200, 200,   0)"/>
</g>
	</g>
<g fill="none" color="black" stroke="currentColor" stroke-width="2.00" stroke-linecap="butt" stroke-linejoin="miter">
</g>
<g fill="none" color="black" stroke="black" stroke-width="1.00" stroke-linecap="butt" stroke-linejoin="miter">
</g>
<g fill="none" color="black" stroke="currentColor" stroke-width="1.00" stroke-linecap="butt" stroke-linejoin="miter">
	<path stroke="black" d="M56.00,10.41 L56.00,340.00 L787.11,340.00 L787.11,10.41 L56.00,10.41 Z  "/></g>
<g fill="none" color="black" stroke="currentColor" stroke-width="1.00" stroke-linecap="butt" stroke-linejoin="miter">
</g>
<g fill="none" color="black" stroke="currentColor" stroke-width="1.00" stroke-linecap="butt" stroke-linejoin="miter">
	<path stroke="black" d="M130.55,357.60 L130.55,351.60  "/>	<g transform="translate(130.55,372.20)" stroke="none" fill="black" font-family="Helvetica" font-size="8.00" text-anchor="middle">
		<text><tspan font-family="Helvetica">-100</tspan></text>
	</g>
</g>
<g fill="none" color="black" stroke="currentColor" stroke-width="1.00" stroke-linecap="butt" stroke-linejoin="miter">
	<path stroke="black" d="M250.80,357.60 L250.80,351.60  "/>	<g transform="translate(250.80,372.20)" stroke="none" fill="black" font-family="Helvetica" font-size="8.00" text-anchor="middle">
		<text><tspan font-family="Helvetica">-50</tspan></text>
	</g>
</g>
<g fill="none" color="black" stroke="currentColor" stroke-width="1.00" stroke-linecap="butt" stroke-linejoin="miter">
	<path stroke="black" d="M371.05,357.60 L371.05,351.60  "/>	<g transform="translate(371.05,372.20)" stroke="none" fill="black" font-family="Helvetica" font-size="8.00" text-anchor="middle">
		<text><tspan font-family="Helvetica"> 0</tspan></text>
	</g>
</g>
<g fill="none" color="black" stroke="currentColor" stroke-width="1.00" stroke-linecap="butt" stroke-linejoin="miter">
	<path stroke="black" d="M491.30,357.60 L491.30,351.60  "/>	<g transform="translate(491.30,372.20)" stroke="none" fill="black" font-family="Helvetica" font-size="8.00" text-anchor="middle">
		<text><tspan font-family="Helvetica"> 50</tspan></text>
	</g>
</g>
<g fill="none" color="black" stroke="currentColor" stroke-width="1.00" stroke-linecap="butt" stroke-linejoin="miter">
	<path stroke="black" d="M611.55,357.60 L611.55,351.60  "/>	<g transform="translate(611.55,372.20)" stroke="none" fill="black" font-family="Helvetica" font-size="8.00" text-anchor="middle">
		<text><tspan font-family="Helvetica"> 100</tspan></text>
	</g>
</g>
<g fill="none" color="black" stroke="currentColor" stroke-width="1.00" stroke-linecap="butt" stroke-linejoin="miter">
	<path stroke="black" d="M731.80,357.60 L731.80,351.60  "/>	<g transform="translate(731.80,372.20)" stroke="none" fill="black" font-family="Helvetica" font-size="8.00" text-anchor="middle">
		<text><tspan font-family="Helvetica"> 150</tspan></text>
	</g>
</g>
<g fill="none" color="black" stroke="currentColor" stroke-width="1.00" stroke-linecap="butt" stroke-linejoin="miter">
</g>
<g fill="none" color="black" stroke="currentColor" stroke-width="1.00" stroke-linecap="butt" stroke-linejoin="miter">
	<path stroke="black" d="M56.00,340.00 L56.00,357.60 L787.11,357.60 L787.11,340.00 L56.00,340.00 Z  "/></g>
<g fill="none" color="black" stroke="currentColor" stroke-width="1.00" stroke-linecap="butt" stroke-linejoin="miter">
	<g transform="translate(421.55,390.20)" stroke="none" fill="black" font-family="Helvetica" font-size="8.00" text-anchor="middle">
		<text><tspan font-family="Helvetica">Cumulative score</tspan></text>
	</g>
</g>
<g fill="none" color="black" stroke="currentColor" stroke-width="1.00" stroke-linecap="butt" stroke-linejoin="miter">
</g>
	<g id="gnuplot_plot_1b"><title>Bubaak</title>
<g fill="none" color="white" stroke="currentColor" stroke-width="2.00" stroke-linecap="butt" stroke-linejoin="miter">
</g>
<g fill="none" color="black" stroke="currentColor" stroke-width="2.00" stroke-linecap="butt" stroke-linejoin="miter">
	<path stroke="rgb(255,   0, 255)" d="M296.50,354.92 L301.31,354.91 L303.71,354.91 L308.52,354.90 L310.93,354.88 L313.33,354.88 L315.74,354.88 L320.55,354.88   L325.36,354.88 L330.17,354.88 L334.98,354.87 L339.79,354.86 L342.19,354.86 L347.00,354.85 L351.81,354.85 L354.22,354.84   L359.03,354.84 L363.84,354.83 L368.65,354.83 L371.05,354.82 L373.46,354.81 L378.27,354.81 L380.67,354.80 L383.08,354.80   L385.48,354.79 L390.29,354.77 L395.10,354.77 L399.91,354.76 L402.32,354.76 L404.72,354.75 L409.53,354.75 L411.94,354.74   L414.34,354.73 L416.75,354.72 L419.15,354.70 L423.96,354.67 L428.77,354.64 L431.17,354.62 L433.58,354.57 L438.39,354.55   L443.20,354.51 L448.01,354.50 L452.82,354.47 L455.22,354.42 L457.63,354.42 L462.44,354.37 L467.25,354.32 L469.65,354.23   L474.46,354.21 L479.27,354.18 L484.08,354.14 L488.89,354.02 L491.30,353.91 L493.70,353.83 L498.51,353.28 L500.92,352.92   L505.73,352.78 L508.13,352.36 L510.54,351.58 L512.94,351.26 L515.35,351.05 L517.75,350.31 L520.16,350.07 L524.97,349.72   L527.37,348.16 L529.78,348.07 L534.59,348.05 L536.99,348.02 L541.80,347.91 L544.21,347.90 L546.61,347.85 L551.42,347.79   L556.23,347.48 L558.64,347.46 L561.04,346.67 L563.45,346.45 L565.85,346.14 L568.26,343.01 L569.94,340.00  "/>	<use xlink:href="#gpPt11" transform="translate(296.50,354.92) scale(3.00)" color="rgb(255,   0, 255)"/>
</g>
	</g>
	<g id="gnuplot_plot_2b"><title>Bubaak-SpLit</title>
<g fill="none" color="black" stroke="currentColor" stroke-width="2.00" stroke-linecap="butt" stroke-linejoin="miter">
	<path stroke="rgb(255,   0, 255)" d="M375.86,349.02 L380.67,349.00 L385.48,348.98 L390.29,348.98 L395.10,348.95 L399.91,348.94 L404.72,348.90 L409.53,348.86   L414.34,348.86 L419.15,348.85 L423.96,348.84 L428.77,348.82 L433.58,348.79 L438.39,348.74 L443.20,348.72 L448.01,348.70   L452.82,348.67 L457.63,348.66 L462.44,348.48 L467.25,348.44 L472.06,348.44 L476.87,348.37 L481.68,348.34 L486.49,348.23   L491.30,348.21 L496.11,348.18 L500.92,348.06 L505.73,347.89 L510.54,347.87 L515.35,347.65 L517.75,347.03 L520.16,347.03   L522.56,347.00 L524.97,346.99 L527.37,346.98 L529.78,346.97 L532.18,346.97 L534.59,346.96 L536.99,346.93 L539.40,346.90   L544.21,346.84 L546.61,346.79 L549.02,346.73 L551.42,346.72 L553.83,346.68 L556.23,346.59 L558.64,346.59 L561.04,346.30   L563.45,345.82 L565.85,345.69 L568.26,345.53 L570.66,345.35 L573.07,345.00 L577.88,344.43 L580.28,343.99 L582.69,343.95   L585.09,343.38 L587.50,343.37 L589.90,342.37 L592.31,342.07 L594.71,342.04 L599.52,341.76 L604.33,341.56 L609.14,341.51   L613.82,340.00  "/>	<use xlink:href="#gpPt9" transform="translate(375.86,349.02) scale(3.00)" color="rgb(255,   0, 255)"/>
</g>
	</g>
	<g id="gnuplot_plot_3b"><title>CBMC</title>
<g fill="none" color="black" stroke="currentColor" stroke-width="2.00" stroke-linecap="butt" stroke-linejoin="miter">
	<path stroke="rgb(255,   0,   0)" d="M373.46,355.33 L375.86,355.32 L378.27,355.27 L380.67,355.27 L383.08,355.26 L385.48,355.26 L387.89,355.21 L390.29,355.19   L395.10,355.18 L399.91,355.12 L404.72,355.12 L409.53,355.10 L411.94,355.10 L414.34,355.05 L419.15,355.04 L421.56,355.02   L423.96,354.94 L426.36,354.90 L431.17,354.88 L433.58,354.87 L438.39,354.82 L443.20,354.79 L445.60,354.76 L448.01,354.65   L450.41,354.61 L455.22,354.53 L457.63,354.51 L462.44,354.35 L464.84,354.16 L467.25,354.05 L469.65,354.01 L474.46,354.00   L476.87,353.83 L481.68,353.46 L484.08,353.24 L488.89,352.96 L493.70,352.93 L496.11,352.83 L498.51,352.73 L500.92,352.68   L505.73,352.42 L508.13,352.38 L512.94,352.29 L517.75,352.23 L520.16,352.21 L522.56,352.06 L527.37,352.05 L532.18,351.96   L534.59,351.79 L539.40,351.70 L541.80,351.58 L546.61,351.50 L551.42,351.21 L553.83,350.56 L558.64,350.36 L561.04,350.05   L565.85,349.98 L570.66,349.69 L573.07,349.27 L575.47,349.19 L580.28,349.12 L582.69,348.96 L587.50,348.85 L589.90,348.59   L592.31,347.52 L597.12,343.83 L599.52,343.58 L601.93,343.14 L604.33,342.37 L606.74,341.84 L609.14,341.75 L613.95,341.72   L618.76,341.27 L619.63,340.00  "/>	<use xlink:href="#gpPt1" transform="translate(373.46,355.33) scale(3.00)" color="rgb(255,   0,   0)"/>
</g>
	</g>
	<g id="gnuplot_plot_4b"><title>CVT-AlgoSel</title>
<g fill="none" color="black" stroke="currentColor" stroke-width="2.00" stroke-linecap="butt" stroke-linejoin="miter">
</g>
	</g>
	<g id="gnuplot_plot_5b"><title>CVT-ParPort</title>
<g fill="none" color="black" stroke="currentColor" stroke-width="2.00" stroke-linecap="butt" stroke-linejoin="miter">
</g>
	</g>
	<g id="gnuplot_plot_6b"><title>CPAchecker</title>
<g fill="none" color="black" stroke="currentColor" stroke-width="2.00" stroke-linecap="butt" stroke-linejoin="miter">
</g>
	</g>
	<g id="gnuplot_plot_7b"><title>CPV</title>
<g fill="none" color="black" stroke="currentColor" stroke-width="2.00" stroke-linecap="butt" stroke-linejoin="miter">
</g>
	</g>
	<g id="gnuplot_plot_8b"><title>Crux</title>
<g fill="none" color="black" stroke="currentColor" stroke-width="2.00" stroke-linecap="butt" stroke-linejoin="miter">
	<path stroke="rgb(255,   0,   0)" d="M298.90,356.32 L303.71,356.32 L308.52,356.31 L313.33,356.30 L318.14,356.28 L322.95,356.27 L327.76,356.26 L332.57,356.25   L334.98,356.25 L339.79,356.24 L344.60,356.24 L347.00,356.22 L349.41,356.22 L351.81,356.22 L354.22,356.21 L359.03,356.20   L361.43,356.20 L363.84,356.20 L368.65,356.19 L371.05,356.18 L375.86,356.17 L378.27,356.17 L383.08,356.16 L385.48,356.15   L387.89,356.14 L392.70,356.12 L395.10,356.09 L399.91,356.08 L402.32,356.07 L404.72,356.06 L407.13,356.06 L409.53,356.04   L411.94,356.03 L414.34,356.03 L416.75,356.02 L421.56,356.00 L426.36,355.99 L431.17,355.98 L435.98,355.96 L440.79,355.95   L445.60,355.93 L448.01,355.91 L452.82,355.90 L455.22,355.88 L460.03,355.83 L462.44,355.78 L467.25,355.60 L472.06,355.59   L474.46,355.40 L476.87,354.85 L481.68,354.62 L486.49,352.89 L491.30,352.80 L496.11,348.15 L500.92,346.52 L505.73,346.28   L508.13,344.61 L510.54,344.55 L511.21,340.00  "/>	<use xlink:href="#gpPt10" transform="translate(298.90,356.32) scale(3.00)" color="rgb(255,   0,   0)"/>
</g>
	</g>
	<g id="gnuplot_plot_9b"><title>DIVINE</title>
<g fill="none" color="black" stroke="currentColor" stroke-width="2.00" stroke-linecap="butt" stroke-linejoin="miter">
</g>
	</g>
	<g id="gnuplot_plot_10b"><title>ESBMC-kind</title>
<g fill="none" color="black" stroke="currentColor" stroke-width="2.00" stroke-linecap="butt" stroke-linejoin="miter">
	<path stroke="rgb(255, 215,   0)" d="M375.86,354.60 L378.27,354.56 L380.67,354.54 L385.48,354.52 L387.89,354.49 L392.70,354.48 L395.10,354.48 L399.91,354.48   L404.72,354.46 L407.13,354.41 L409.53,354.41 L411.94,354.40 L414.34,354.40 L416.75,354.37 L419.15,354.37 L423.96,354.34   L428.77,354.34 L431.17,354.33 L433.58,354.31 L438.39,354.29 L440.79,354.27 L443.20,354.27 L448.01,354.25 L450.41,354.23   L455.22,354.17 L460.03,354.16 L462.44,354.11 L467.25,354.11 L472.06,354.09 L476.87,354.09 L481.68,354.08 L486.49,354.07   L488.89,354.07 L491.30,354.05 L493.70,354.01 L496.11,354.01 L500.92,353.94 L503.32,353.89 L505.73,353.85 L508.13,353.75   L512.94,353.75 L515.35,353.71 L520.16,353.63 L524.97,353.59 L527.37,353.59 L529.78,353.59 L534.59,353.56 L536.99,353.54   L539.40,353.53 L544.21,353.49 L549.02,353.46 L553.83,353.36 L556.23,353.34 L558.64,353.32 L561.04,353.25 L563.45,353.24   L565.85,353.01 L570.66,352.99 L573.07,352.95 L577.88,352.87 L580.28,352.76 L585.09,352.70 L589.90,350.34 L594.71,348.53   L597.12,348.30 L601.93,343.57 L604.33,342.82 L609.14,340.27 L610.68,340.00  "/>	<use xlink:href="#gpPt5" transform="translate(375.86,354.60) scale(3.00)" color="rgb(255, 215,   0)"/>
</g>
	</g>
	<g id="gnuplot_plot_11b"><title>Gazer-Theta</title>
<g fill="none" color="black" stroke="currentColor" stroke-width="2.00" stroke-linecap="butt" stroke-linejoin="miter">
	<path stroke="rgb(128,  96, 255)" d="M375.86,352.52 L380.67,352.50 L385.48,352.40 L390.29,352.24 L395.10,352.11 L399.91,352.02 L404.72,351.99 L409.53,351.99   L414.34,351.86 L419.15,351.72 L421.56,351.58 L426.36,351.58 L431.17,351.57 L435.98,351.56 L438.39,351.33 L440.79,351.32   L443.20,351.27 L445.60,351.26 L448.01,351.23 L450.41,351.20 L452.82,351.20 L455.22,351.20 L457.63,351.18 L462.44,351.15   L464.84,351.05 L467.25,350.99 L469.65,350.96 L472.06,350.87 L474.46,350.82 L479.27,350.79 L481.68,350.78 L486.49,350.77   L491.30,350.62 L493.70,350.61 L496.11,350.61 L500.92,350.61 L503.32,350.58 L505.73,350.56 L510.54,350.45 L512.94,350.34   L517.75,350.21 L522.56,350.13 L524.97,350.07 L527.37,350.05 L532.18,349.91 L534.59,349.88 L536.99,349.87 L539.40,349.76   L541.80,349.74 L546.61,349.71 L551.42,349.65 L553.83,349.04 L556.23,349.01 L561.04,348.80 L563.45,348.50 L565.85,348.38   L568.26,348.15 L573.07,347.36 L575.47,346.18 L580.28,345.49 L582.69,345.16 L587.50,344.49 L592.25,340.00  "/>	<use xlink:href="#gpPt2" transform="translate(375.86,352.52) scale(3.00)" color="rgb(128,  96, 255)"/>
</g>
	</g>
	<g id="gnuplot_plot_12b"><title>Goblint</title>
<g fill="none" color="black" stroke="currentColor" stroke-width="2.00" stroke-linecap="butt" stroke-linejoin="miter">
	<path stroke="rgb(  0, 139, 139)" d="M375.86,355.89 L380.67,355.82 L385.48,355.80 L390.29,355.79 L395.10,355.62 L399.91,355.60 L404.72,355.58 L409.53,355.58   L414.34,355.44 L419.15,355.43 L423.96,355.35 L428.77,355.33 L433.58,355.29 L438.39,355.17 L443.20,355.10 L448.01,355.07   L452.82,354.99 L457.63,354.91 L462.44,354.88 L467.25,354.88 L472.06,354.86 L476.87,354.78 L481.68,354.69 L486.49,354.61   L491.30,354.31 L496.11,354.21 L500.92,354.16 L505.73,354.12 L510.54,353.73 L515.35,352.98 L520.16,351.30 L524.97,349.08   L529.78,340.82 L533.03,340.00  "/>	<use xlink:href="#gpPt11" transform="translate(375.86,355.89) scale(3.00)" color="rgb(  0, 139, 139)"/>
</g>
	</g>
	<g id="gnuplot_plot_13b"><title>Graves-CPA</title>
<g fill="none" color="black" stroke="currentColor" stroke-width="2.00" stroke-linecap="butt" stroke-linejoin="miter">
</g>
	</g>
	<g id="gnuplot_plot_14b"><title>Graves-Par</title>
<g fill="none" color="black" stroke="currentColor" stroke-width="2.00" stroke-linecap="butt" stroke-linejoin="miter">
</g>
	</g>
	<g id="gnuplot_plot_15b"><title>Infer</title>
<g fill="none" color="black" stroke="currentColor" stroke-width="2.00" stroke-linecap="butt" stroke-linejoin="miter">
</g>
	</g>
	<g id="gnuplot_plot_16b"><title>Korn</title>
<g fill="none" color="black" stroke="currentColor" stroke-width="2.00" stroke-linecap="butt" stroke-linejoin="miter">
	<path stroke="rgb(  0, 139, 139)" d="M334.98,340.91 L337.38,340.76 L339.79,340.62 L342.19,340.59 L344.60,340.55 L347.00,340.53 L349.41,340.50 L351.81,340.49   L354.22,340.45 L356.62,340.37 L359.03,340.31 L361.43,340.30 L363.84,340.25 L366.24,340.22 L368.65,340.21 L371.05,340.21   L373.46,340.19 L375.86,340.10 L378.27,340.09 L380.67,340.06 L383.08,340.01 L385.48,340.01 L387.89,340.01 L388.19,340.00    "/>	<use xlink:href="#gpPt0" transform="translate(334.98,340.91) scale(3.00)" color="rgb(  0, 139, 139)"/>
</g>
	</g>
	<g id="gnuplot_plot_17b"><title>Mopsa</title>
<g fill="none" color="black" stroke="currentColor" stroke-width="2.00" stroke-linecap="butt" stroke-linejoin="miter">
</g>
	</g>
	<g id="gnuplot_plot_18b"><title>PeSCo-CPA</title>
<g fill="none" color="black" stroke="currentColor" stroke-width="2.00" stroke-linecap="butt" stroke-linejoin="miter">
</g>
	</g>
	<g id="gnuplot_plot_19b"><title>Pinaka</title>
<g fill="none" color="black" stroke="currentColor" stroke-width="2.00" stroke-linecap="butt" stroke-linejoin="miter">
	<path stroke="rgb(190, 190, 190)" d="M375.86,357.03 L378.27,357.00 L380.67,356.99 L385.48,356.89 L390.29,356.88 L392.70,356.87 L397.51,356.86 L399.91,356.86   L404.72,356.85 L407.13,356.85 L411.94,356.85 L414.34,356.85 L419.15,356.84 L423.96,356.84 L426.36,356.84 L431.17,356.84   L435.98,356.84 L438.39,356.83 L443.20,356.83 L448.01,356.83 L452.82,356.83 L457.63,356.82 L462.44,356.82 L464.84,356.82   L467.25,356.82 L469.65,356.81 L472.06,356.81 L474.46,356.81 L479.27,356.80 L481.68,356.80 L484.08,356.79 L486.49,356.78   L491.30,356.78 L493.70,356.77 L498.51,356.76 L500.92,356.76 L503.32,356.74 L508.13,356.74 L512.94,356.73 L517.75,356.68   L522.56,356.67 L524.97,356.67 L527.37,356.66 L532.18,356.66 L536.99,356.63 L539.40,356.63 L541.80,356.60 L544.21,356.59   L549.02,356.59 L553.83,356.46 L558.64,356.45 L563.45,356.20 L565.85,355.98 L568.26,355.86 L573.07,355.66 L577.88,355.64   L582.69,354.73 L587.50,354.07 L592.31,353.80 L597.12,351.93 L599.52,351.70 L601.93,351.29 L604.33,350.59 L606.74,349.91   L611.55,347.82 L613.04,340.00  "/>	<use xlink:href="#gpPt5" transform="translate(375.86,357.03) scale(3.00)" color="rgb(190, 190, 190)"/>
</g>
	</g>
	<g id="gnuplot_plot_20b"><title>Symbiotic</title>
<g fill="none" color="black" stroke="currentColor" stroke-width="2.00" stroke-linecap="butt" stroke-linejoin="miter">
	<path stroke="rgb(255, 165,   0)" d="M375.86,350.06 L380.67,350.05 L385.48,350.04 L390.29,350.03 L395.10,350.01 L399.91,349.99 L404.72,349.99 L409.53,349.98   L414.34,349.97 L419.15,349.97 L423.96,349.95 L428.77,349.93 L433.58,349.91 L438.39,349.90 L443.20,349.88 L448.01,349.86   L452.82,349.81 L457.63,349.80 L462.44,349.76 L467.25,349.76 L472.06,349.72 L476.87,349.66 L481.68,349.43 L486.49,349.40   L491.30,349.36 L496.11,349.33 L500.92,349.28 L505.73,349.25 L510.54,348.99 L512.94,347.89 L515.35,347.82 L517.75,347.81   L520.16,347.75 L522.56,347.69 L527.37,347.60 L529.78,347.60 L532.18,347.59 L534.59,347.55 L536.99,347.55 L539.40,347.54   L544.21,347.52 L546.61,347.50 L549.02,347.47 L551.42,347.47 L553.83,347.43 L556.23,347.35 L558.64,347.28 L561.04,347.26   L563.45,347.24 L565.85,347.06 L568.26,346.66 L573.07,346.28 L575.47,346.20 L577.88,346.10 L580.28,345.98 L582.69,345.92   L585.09,345.27 L587.50,344.73 L589.90,344.67 L592.31,344.28 L594.71,344.13 L599.52,343.57 L601.93,343.43 L606.74,343.27   L611.55,343.19 L616.36,343.07 L618.76,342.86 L621.17,341.85 L623.57,341.39 L625.98,341.25 L628.38,341.01 L630.79,340.43   L631.54,340.00  "/>	<use xlink:href="#gpPt5" transform="translate(375.86,350.06) scale(3.00)" color="rgb(255, 165,   0)"/>
</g>
	</g>
	<g id="gnuplot_plot_21b"><title>Theta</title>
<g fill="none" color="black" stroke="currentColor" stroke-width="2.00" stroke-linecap="butt" stroke-linejoin="miter">
</g>
	</g>
	<g id="gnuplot_plot_22b"><title>UAutomizer</title>
<g fill="none" color="black" stroke="currentColor" stroke-width="2.00" stroke-linecap="butt" stroke-linejoin="miter">
</g>
	</g>
	<g id="gnuplot_plot_23b"><title>UKojak</title>
<g fill="none" color="black" stroke="currentColor" stroke-width="2.00" stroke-linecap="butt" stroke-linejoin="miter">
</g>
	</g>
	<g id="gnuplot_plot_24b"><title>UTaipan</title>
<g fill="none" color="black" stroke="currentColor" stroke-width="2.00" stroke-linecap="butt" stroke-linejoin="miter">
</g>
	</g>
	<g id="gnuplot_plot_25b"><title>VeriAbs</title>
<g fill="none" color="black" stroke="currentColor" stroke-width="2.00" stroke-linecap="butt" stroke-linejoin="miter">
</g>
	</g>
	<g id="gnuplot_plot_26b"><title>VeriAbsL</title>
<g fill="none" color="black" stroke="currentColor" stroke-width="2.00" stroke-linecap="butt" stroke-linejoin="miter">
</g>
	</g>
<g fill="none" color="black" stroke="currentColor" stroke-width="2.00" stroke-linecap="butt" stroke-linejoin="miter">
</g>
<g fill="none" color="black" stroke="black" stroke-width="1.00" stroke-linecap="butt" stroke-linejoin="miter">
</g>
<g fill="none" color="black" stroke="currentColor" stroke-width="1.00" stroke-linecap="butt" stroke-linejoin="miter">
	<path stroke="black" d="M56.00,340.00 L56.00,357.60 L787.11,357.60 L787.11,340.00 L56.00,340.00 Z  "/></g>
<g fill="none" color="black" stroke="currentColor" stroke-width="1.00" stroke-linecap="butt" stroke-linejoin="miter">
</g>
</g>
</svg>