<?xml version="1.0" encoding="UTF-8" standalone="no"?>
<svg width="800" height="400" viewBox="0 0 800 400" xmlns="http://www.w3.org/2000/svg" xmlns:xlink="http://www.w3.org/1999/xlink">

<title>Gnuplot</title>
<desc>Produced by GNUPLOT 6.0 patchlevel 0 </desc>

<g id="gnuplot_canvas">

<rect x="0" y="0" width="800" height="400" fill="none"/>
<defs>

	<circle id="gpDot" r="0.5" stroke-width="0.5" stroke="currentColor"/>
	<path id="gpPt0" stroke-width="0.333" stroke="currentColor" d="M-1,0 h2 M0,-1 v2"/>
	<path id="gpPt1" stroke-width="0.333" stroke="currentColor" d="M-1,-1 L1,1 M1,-1 L-1,1"/>
	<path id="gpPt2" stroke-width="0.333" stroke="currentColor" d="M-1,0 L1,0 M0,-1 L0,1 M-1,-1 L1,1 M-1,1 L1,-1"/>
	<rect id="gpPt3" stroke-width="0.333" stroke="currentColor" x="-1" y="-1" width="2" height="2"/>
	<rect id="gpPt4" stroke-width="0.333" stroke="currentColor" fill="currentColor" x="-1" y="-1" width="2" height="2"/>
	<circle id="gpPt5" stroke-width="0.333" stroke="currentColor" cx="0" cy="0" r="1"/>
	<use xlink:href="#gpPt5" id="gpPt6" fill="currentColor" stroke="none"/>
	<path id="gpPt7" stroke-width="0.333" stroke="currentColor" d="M0,-1.33 L-1.33,0.67 L1.33,0.67 z"/>
	<use xlink:href="#gpPt7" id="gpPt8" fill="currentColor" stroke="none"/>
	<use xlink:href="#gpPt7" id="gpPt9" stroke="currentColor" transform="rotate(180)"/>
	<use xlink:href="#gpPt9" id="gpPt10" fill="currentColor" stroke="none"/>
	<use xlink:href="#gpPt3" id="gpPt11" stroke="currentColor" transform="rotate(45)"/>
	<use xlink:href="#gpPt11" id="gpPt12" fill="currentColor" stroke="none"/>
	<path id="gpPt13" stroke-width="0.333" stroke="currentColor" d="M0,1.330 L1.265,0.411 L0.782,-1.067 L-0.782,-1.076 L-1.265,0.411 z"/>
	<use xlink:href="#gpPt13" id="gpPt14" fill="currentColor" stroke="none"/>
	<filter id="textbox" filterUnits="objectBoundingBox" x="0" y="0" height="1" width="1">
	  <feFlood flood-color="white" flood-opacity="1" result="bgnd"/>
	  <feComposite in="SourceGraphic" in2="bgnd" operator="atop"/>
	</filter>
	<filter id="greybox" filterUnits="objectBoundingBox" x="0" y="0" height="1" width="1">
	  <feFlood flood-color="lightgrey" flood-opacity="1" result="grey"/>
	  <feComposite in="SourceGraphic" in2="grey" operator="atop"/>
	</filter>
</defs>
<g fill="none" color="white" stroke="currentColor" stroke-width="1.00" stroke-linecap="butt" stroke-linejoin="miter">
</g>
<g fill="none" color="black" stroke="currentColor" stroke-width="1.00" stroke-linecap="butt" stroke-linejoin="miter">
	<path stroke="black" d="M56.00,340.00 L62.00,340.00 M787.11,340.00 L781.11,340.00  "/>	<g transform="translate(50.40,342.60)" stroke="none" fill="black" font-family="Helvetica" font-size="8.00" text-anchor="end">
		<text><tspan font-family="Helvetica"> 1</tspan></text>
	</g>
</g>
<g fill="none" color="black" stroke="currentColor" stroke-width="1.00" stroke-linecap="butt" stroke-linejoin="miter">
	<path stroke="black" d="M56.00,306.93 L59.00,306.93 M787.11,306.93 L784.11,306.93 M56.00,287.58 L59.00,287.58 M787.11,287.58 L784.11,287.58   M56.00,273.86 L59.00,273.86 M787.11,273.86 L784.11,273.86 M56.00,263.21 L59.00,263.21 M787.11,263.21 L784.11,263.21   M56.00,254.51 L59.00,254.51 M787.11,254.51 L784.11,254.51 M56.00,247.15 L59.00,247.15 M787.11,247.15 L784.11,247.15   M56.00,240.78 L59.00,240.78 M787.11,240.78 L784.11,240.78 M56.00,235.16 L59.00,235.16 M787.11,235.16 L784.11,235.16   M56.00,230.14 L62.00,230.14 M787.11,230.14 L781.11,230.14  "/>	<g transform="translate(50.40,232.74)" stroke="none" fill="black" font-family="Helvetica" font-size="8.00" text-anchor="end">
		<text><tspan font-family="Helvetica"> 10</tspan></text>
	</g>
</g>
<g fill="none" color="black" stroke="currentColor" stroke-width="1.00" stroke-linecap="butt" stroke-linejoin="miter">
	<path stroke="black" d="M56.00,197.06 L59.00,197.06 M787.11,197.06 L784.11,197.06 M56.00,177.72 L59.00,177.72 M787.11,177.72 L784.11,177.72   M56.00,163.99 L59.00,163.99 M787.11,163.99 L784.11,163.99 M56.00,153.35 L59.00,153.35 M787.11,153.35 L784.11,153.35   M56.00,144.65 L59.00,144.65 M787.11,144.65 L784.11,144.65 M56.00,137.29 L59.00,137.29 M787.11,137.29 L784.11,137.29   M56.00,130.92 L59.00,130.92 M787.11,130.92 L784.11,130.92 M56.00,125.30 L59.00,125.30 M787.11,125.30 L784.11,125.30   M56.00,120.27 L62.00,120.27 M787.11,120.27 L781.11,120.27  "/>	<g transform="translate(50.40,122.87)" stroke="none" fill="black" font-family="Helvetica" font-size="8.00" text-anchor="end">
		<text><tspan font-family="Helvetica"> 100</tspan></text>
	</g>
</g>
<g fill="none" color="black" stroke="currentColor" stroke-width="1.00" stroke-linecap="butt" stroke-linejoin="miter">
	<path stroke="black" d="M56.00,87.20 L59.00,87.20 M787.11,87.20 L784.11,87.20 M56.00,67.86 L59.00,67.86 M787.11,67.86 L784.11,67.86   M56.00,54.13 L59.00,54.13 M787.11,54.13 L784.11,54.13 M56.00,43.48 L59.00,43.48 M787.11,43.48 L784.11,43.48   M56.00,34.78 L59.00,34.78 M787.11,34.78 L784.11,34.78 M56.00,27.43 L59.00,27.43 M787.11,27.43 L784.11,27.43   M56.00,21.06 L59.00,21.06 M787.11,21.06 L784.11,21.06 M56.00,15.44 L59.00,15.44 M787.11,15.44 L784.11,15.44   M56.00,10.41 L62.00,10.41 M787.11,10.41 L781.11,10.41  "/>	<g transform="translate(50.40,13.01)" stroke="none" fill="black" font-family="Helvetica" font-size="8.00" text-anchor="end">
		<text><tspan font-family="Helvetica"> 1000</tspan></text>
	</g>
</g>
<g fill="none" color="black" stroke="currentColor" stroke-width="1.00" stroke-linecap="butt" stroke-linejoin="miter">
</g>
<g fill="none" color="black" stroke="currentColor" stroke-width="1.00" stroke-linecap="butt" stroke-linejoin="miter">
	<path stroke="black" d="M56.00,10.41 L56.00,340.00 L787.11,340.00 L787.11,10.41 L56.00,10.41 Z  "/></g>
<g fill="none" color="black" stroke="currentColor" stroke-width="1.00" stroke-linecap="butt" stroke-linejoin="miter">
</g>
	<g id="gnuplot_plot_1a"><title>Bubaak</title>
<g fill="none" color="white" stroke="black" stroke-width="2.00" stroke-linecap="butt" stroke-linejoin="miter">
</g>
<g fill="none" color="black" stroke="currentColor" stroke-width="2.00" stroke-linecap="butt" stroke-linejoin="miter">
	<g transform="translate(128.80,25.01)" stroke="none" fill="black" font-family="Helvetica" font-size="8.00" text-anchor="end">
		<text><tspan font-family="Helvetica">Bubaak</tspan></text>
	</g>
</g>
<g fill="none" color="black" stroke="currentColor" stroke-width="2.00" stroke-linecap="butt" stroke-linejoin="miter">
	<path stroke="rgb(255,   0, 255)" d="M134.40,22.41 L162.80,22.41 M487.06,340.00 L489.54,325.35 L494.67,307.98 L497.23,307.50 L499.80,307.36 L504.93,302.94   L507.49,297.25 L510.06,267.48 L515.19,266.36 L520.32,257.17 L522.88,246.77 L528.01,246.07 L530.58,230.62 L535.71,196.08   L538.28,196.02 L540.84,195.92 L545.97,195.45 L551.10,139.66 L556.23,131.19 L561.36,125.35 L566.49,122.56 L569.06,64.59   L574.19,62.63 L579.32,62.62 L584.45,62.55 L589.58,62.54 L594.71,62.54 L599.84,61.10  "/>	<use xlink:href="#gpPt11" transform="translate(148.60,22.41) scale(3.00)" color="rgb(255,   0, 255)"/>
</g>
	</g>
	<g id="gnuplot_plot_2a"><title>Bubaak-SpLit</title>
<g fill="none" color="black" stroke="currentColor" stroke-width="2.00" stroke-linecap="butt" stroke-linejoin="miter">
	<g transform="translate(128.80,37.01)" stroke="none" fill="black" font-family="Helvetica" font-size="8.00" text-anchor="end">
		<text><tspan font-family="Helvetica">Bubaak-SpLit</tspan></text>
	</g>
</g>
<g fill="none" color="black" stroke="currentColor" stroke-width="2.00" stroke-linecap="butt" stroke-linejoin="miter">
	<path stroke="rgb(255,   0, 255)" d="M134.40,34.41 L162.80,34.41 M517.68,340.00 L517.75,339.98 L522.88,339.19 L525.45,338.24 L528.01,337.67 L530.58,337.02   L533.15,336.86 L538.28,336.12 L543.41,334.44 L545.97,332.05 L548.54,328.39 L551.10,325.82 L553.67,321.81 L556.23,320.90   L558.80,319.33 L561.36,317.74 L563.93,317.24 L566.49,312.61 L571.62,312.22 L576.76,298.77 L581.89,297.41 L584.45,270.09   L587.02,268.17 L589.58,258.28 L594.71,244.59 L597.28,232.75 L599.84,215.67 L602.41,203.53 L607.54,182.28 L612.67,182.26   L617.80,182.07 L622.93,182.01 L628.06,176.22 L633.19,174.57 L638.32,145.79 L643.45,144.53 L646.02,131.02 L648.58,128.72   L653.71,114.08 L658.85,109.55 L663.98,75.45 L669.11,66.70 L674.24,65.16  "/>	<use xlink:href="#gpPt9" transform="translate(148.60,34.41) scale(3.00)" color="rgb(255,   0, 255)"/>
</g>
	</g>
	<g id="gnuplot_plot_3a"><title>CBMC</title>
<g fill="none" color="black" stroke="currentColor" stroke-width="2.00" stroke-linecap="butt" stroke-linejoin="miter">
	<g transform="translate(128.80,49.01)" stroke="none" fill="black" font-family="Helvetica" font-size="8.00" text-anchor="end">
		<text><tspan font-family="Helvetica">CBMC</tspan></text>
	</g>
</g>
<g fill="none" color="black" stroke="currentColor" stroke-width="2.00" stroke-linecap="butt" stroke-linejoin="miter">
	<path stroke="rgb(255,   0,   0)" stroke-dasharray=" 2,4" d="M134.40,46.41 L162.80,46.41 M635.77,340.00 L638.32,338.28 L640.89,309.90 L643.45,278.49 L648.58,268.92 L651.15,261.85   L653.71,252.67 L656.28,250.95 L661.41,234.80 L666.54,234.41 L669.11,142.73 L671.67,142.23  "/>	<use xlink:href="#gpPt1" transform="translate(148.60,46.41) scale(2.10)" color="rgb(255,   0,   0)"/>
</g>
	</g>
	<g id="gnuplot_plot_4a"><title>CPAchecker</title>
<g fill="none" color="black" stroke="currentColor" stroke-width="2.00" stroke-linecap="butt" stroke-linejoin="miter">
	<g transform="translate(128.80,61.01)" stroke="none" fill="black" font-family="Helvetica" font-size="8.00" text-anchor="end">
		<text><tspan font-family="Helvetica">CPAchecker</tspan></text>
	</g>
</g>
<g fill="none" color="black" stroke="currentColor" stroke-width="2.00" stroke-linecap="butt" stroke-linejoin="miter">
	<path stroke="rgb(  0,   0, 255)" d="M134.40,58.41 L162.80,58.41 M381.79,264.22 L386.92,263.58 L392.05,263.42 L394.62,260.22 L399.75,259.98 L402.32,258.93   L404.88,256.82 L410.01,255.63 L415.14,254.94 L417.71,254.94 L420.27,254.84 L422.84,254.54 L425.40,254.01 L427.97,253.57   L433.10,253.19 L438.23,252.97 L443.36,252.86 L448.49,252.80 L451.06,251.09 L456.19,251.04 L461.32,250.88 L466.45,250.41   L469.01,250.39 L471.58,250.00 L474.14,249.70 L476.71,249.60 L481.84,249.50 L486.97,249.29 L489.54,249.07 L494.67,248.38   L497.23,248.20 L499.80,248.20 L504.93,248.11 L510.06,247.53 L515.19,247.26 L520.32,247.14 L525.45,246.69 L530.58,246.60   L535.71,246.48 L540.84,246.05 L543.41,245.56 L548.54,244.81 L551.10,244.67 L553.67,244.26 L558.80,243.19 L563.93,242.69   L569.06,242.49 L571.62,242.32 L574.19,241.82 L576.76,241.77 L579.32,241.73 L581.89,241.49 L584.45,240.79 L587.02,240.77   L589.58,240.28 L592.15,239.95 L597.28,238.95 L599.84,238.85 L604.97,238.73 L610.10,238.15 L612.67,237.82 L615.24,234.89   L617.80,234.88 L622.93,234.42 L628.06,233.09 L630.63,230.37 L635.76,227.34 L638.32,220.95 L643.45,214.28 L646.02,213.73   L648.58,181.80 L653.71,167.71 L656.28,163.07 L658.85,156.97 L663.98,153.35 L666.54,127.55  "/>	<use xlink:href="#gpPt2" transform="translate(381.79,264.22) scale(3.00)" color="rgb(  0,   0, 255)"/>
	<use xlink:href="#gpPt2" transform="translate(148.60,58.41) scale(3.00)" color="rgb(  0,   0, 255)"/>
</g>
	</g>
	<g id="gnuplot_plot_5a"><title>CPV</title>
<g fill="none" color="black" stroke="currentColor" stroke-width="2.00" stroke-linecap="butt" stroke-linejoin="miter">
	<g transform="translate(128.80,73.01)" stroke="none" fill="black" font-family="Helvetica" font-size="8.00" text-anchor="end">
		<text><tspan font-family="Helvetica">CPV</tspan></text>
	</g>
</g>
<g fill="none" color="black" stroke="currentColor" stroke-width="2.00" stroke-linecap="butt" stroke-linejoin="miter">
	<path stroke="rgb(160, 128,  32)" d="M134.40,70.41 L162.80,70.41 M381.79,317.20 L386.92,316.32 L392.05,316.26 L397.18,315.85 L402.32,315.64 L407.45,315.25   L412.58,315.12 L417.71,315.03 L422.84,314.93 L425.40,314.48 L430.53,314.31 L435.66,314.30 L440.79,313.89 L445.93,313.68   L451.06,312.45 L453.62,312.39 L458.75,311.93 L461.32,311.89 L466.45,311.80 L471.58,311.49 L476.71,311.45 L479.27,311.25   L484.40,309.95 L489.54,309.92 L494.67,308.08 L499.80,301.23 L504.93,283.14 L507.49,244.91 L510.06,244.23 L512.62,243.08   L517.75,243.05 L522.88,242.86 L528.01,242.44 L533.15,240.68 L535.71,233.63 L540.84,226.79 L545.97,216.84 L551.10,200.59   L556.23,189.98 L561.36,172.28 L566.49,61.66  "/>	<use xlink:href="#gpPt2" transform="translate(381.79,317.20) scale(3.00)" color="rgb(160, 128,  32)"/>
	<use xlink:href="#gpPt2" transform="translate(148.60,70.41) scale(3.00)" color="rgb(160, 128,  32)"/>
</g>
	</g>
	<g id="gnuplot_plot_6a"><title>Crux</title>
<g fill="none" color="black" stroke="currentColor" stroke-width="2.00" stroke-linecap="butt" stroke-linejoin="miter">
	<g transform="translate(128.80,85.01)" stroke="none" fill="black" font-family="Helvetica" font-size="8.00" text-anchor="end">
		<text><tspan font-family="Helvetica">Crux</tspan></text>
	</g>
</g>
<g fill="none" color="black" stroke="currentColor" stroke-width="2.00" stroke-linecap="butt" stroke-linejoin="miter">
	<path stroke="rgb(255,   0,   0)" stroke-dasharray=" 2,4" d="M134.40,82.41 L162.80,82.41 M527.14,340.00 L528.01,324.58 L530.58,316.04 L535.71,287.88 L540.84,281.99 L545.97,274.86   L548.54,267.87 L551.10,259.00 L553.67,250.49 L558.80,185.74  "/>	<use xlink:href="#gpPt10" transform="translate(148.60,82.41) scale(2.10)" color="rgb(255,   0,   0)"/>
</g>
	</g>
	<g id="gnuplot_plot_7a"><title>DIVINE</title>
<g fill="none" color="black" stroke="currentColor" stroke-width="2.00" stroke-linecap="butt" stroke-linejoin="miter">
	<g transform="translate(128.80,97.01)" stroke="none" fill="black" font-family="Helvetica" font-size="8.00" text-anchor="end">
		<text><tspan font-family="Helvetica">DIVINE</tspan></text>
	</g>
</g>
<g fill="none" color="black" stroke="currentColor" stroke-width="2.00" stroke-linecap="butt" stroke-linejoin="miter">
	<path stroke="rgb(139,   0,   0)" stroke-dasharray=" 2,4" d="M134.40,94.41 L162.80,94.41 M381.79,325.39 L386.92,325.37 L392.05,325.30 L397.18,324.99 L402.32,324.79 L407.45,324.39   L412.58,323.89 L417.71,323.73 L422.84,323.45 L427.97,323.36 L433.10,323.08 L438.23,322.83 L443.36,322.19 L448.49,316.73   L453.62,313.27 L456.19,287.36 L458.75,287.13 L461.32,286.97 L463.88,286.61 L466.45,284.10 L469.01,282.85 L471.58,281.80   L474.14,275.14 L479.27,254.16 L484.40,253.98 L489.54,253.81 L494.67,253.71 L499.80,241.96 L504.93,240.82 L510.06,240.64   L515.19,239.90 L520.32,239.72 L525.45,239.61 L530.58,239.27 L535.71,239.26 L540.84,239.06 L545.97,238.94 L551.10,238.84   L556.23,238.42 L561.36,238.32 L566.49,238.01 L571.62,237.86 L576.76,237.83 L581.89,236.97 L587.02,236.64 L592.15,233.97   L594.71,223.80 L597.28,223.33 L599.84,223.33 L602.41,223.24 L604.97,223.22 L607.54,223.20 L610.10,223.16 L612.67,222.75   L615.24,222.59 L617.80,222.35 L620.37,222.22 L622.93,221.77 L625.50,221.63 L628.06,220.87 L630.63,220.85 L633.19,220.42   L635.76,220.11 L640.89,218.95 L643.45,218.90 L648.58,217.45 L651.15,217.27 L653.71,217.14 L656.28,216.20 L658.85,214.84   L661.41,213.37 L663.98,213.14 L666.54,206.39 L669.11,205.61 L671.67,205.50 L674.24,205.32 L676.80,204.92 L679.37,204.88   L681.93,204.78 L684.50,202.00 L687.06,201.85 L689.63,200.55 L692.19,198.61 L694.76,186.47 L697.32,178.43 L702.46,171.40   L707.59,165.39  "/>	<use xlink:href="#gpPt0" transform="translate(381.79,325.39) scale(2.10)" color="rgb(139,   0,   0)"/>
	<use xlink:href="#gpPt0" transform="translate(148.60,94.41) scale(2.10)" color="rgb(139,   0,   0)"/>
</g>
	</g>
	<g id="gnuplot_plot_8a"><title>ESBMC-kind</title>
<g fill="none" color="black" stroke="currentColor" stroke-width="2.00" stroke-linecap="butt" stroke-linejoin="miter">
	<g transform="translate(128.80,109.01)" stroke="none" fill="black" font-family="Helvetica" font-size="8.00" text-anchor="end">
		<text><tspan font-family="Helvetica">ESBMC-kind</tspan></text>
	</g>
</g>
<g fill="none" color="black" stroke="currentColor" stroke-width="2.00" stroke-linecap="butt" stroke-linejoin="miter">
	<path stroke="rgb(255, 215,   0)" d="M134.40,106.41 L162.80,106.41 M629.35,340.00 L630.63,336.56 L635.76,335.53 L638.32,319.18 L640.89,301.76 L646.02,278.80   L648.58,269.06 L653.71,231.38 L656.28,228.81 L658.85,213.94 L661.41,213.42 L666.54,202.58 L671.67,195.20 L674.24,103.40   L679.37,99.09 L681.93,79.40 L687.06,74.99 L692.19,56.08 L697.32,25.62 L702.46,21.60  "/>	<use xlink:href="#gpPt5" transform="translate(148.60,106.41) scale(3.00)" color="rgb(255, 215,   0)"/>
</g>
	</g>
	<g id="gnuplot_plot_9a"><title>Gazer-Theta</title>
<g fill="none" color="black" stroke="currentColor" stroke-width="2.00" stroke-linecap="butt" stroke-linejoin="miter">
	<g transform="translate(128.80,121.01)" stroke="none" fill="black" font-family="Helvetica" font-size="8.00" text-anchor="end">
		<text><tspan font-family="Helvetica">Gazer-Theta</tspan></text>
	</g>
</g>
<g fill="none" color="black" stroke="currentColor" stroke-width="2.00" stroke-linecap="butt" stroke-linejoin="miter">
	<path stroke="rgb(128,  96, 255)" stroke-dasharray=" 2,4" d="M134.40,118.41 L162.80,118.41 M613.06,340.00 L615.24,338.55 L620.37,330.05 L622.93,310.44 L628.06,304.85 L630.63,300.53   L635.76,287.99 L638.32,265.73 L640.89,220.45 L646.02,64.22 L648.58,61.98  "/>	<use xlink:href="#gpPt2" transform="translate(148.60,118.41) scale(2.10)" color="rgb(128,  96, 255)"/>
</g>
	</g>
	<g id="gnuplot_plot_10a"><title>Goblint</title>
<g fill="none" color="black" stroke="currentColor" stroke-width="2.00" stroke-linecap="butt" stroke-linejoin="miter">
	<g transform="translate(128.80,133.01)" stroke="none" fill="black" font-family="Helvetica" font-size="8.00" text-anchor="end">
		<text><tspan font-family="Helvetica">Goblint</tspan></text>
	</g>
</g>
<g fill="none" color="black" stroke="currentColor" stroke-width="2.00" stroke-linecap="butt" stroke-linejoin="miter">
	<path stroke="rgb(  0, 139, 139)" d="M134.40,130.41 L162.80,130.41 M557.24,340.00 L561.36,324.72 L566.49,310.78 L571.62,303.06 L576.76,234.11 L581.89,222.14   L587.02,219.89  "/>	<use xlink:href="#gpPt11" transform="translate(148.60,130.41) scale(3.00)" color="rgb(  0, 139, 139)"/>
</g>
	</g>
	<g id="gnuplot_plot_11a"><title>Graves-CPA</title>
<g fill="none" color="black" stroke="currentColor" stroke-width="2.00" stroke-linecap="butt" stroke-linejoin="miter">
	<g transform="translate(128.80,145.01)" stroke="none" fill="black" font-family="Helvetica" font-size="8.00" text-anchor="end">
		<text><tspan font-family="Helvetica">Graves-CPA</tspan></text>
	</g>
</g>
<g fill="none" color="black" stroke="currentColor" stroke-width="2.00" stroke-linecap="butt" stroke-linejoin="miter">
	<path stroke="rgb(  0, 100,   0)" stroke-dasharray=" 2,4" d="M134.40,142.41 L162.80,142.41  "/>	<use xlink:href="#gpPt1" transform="translate(148.60,142.41) scale(2.10)" color="rgb(  0, 100,   0)"/>
</g>
	</g>
	<g id="gnuplot_plot_12a"><title>Hornix</title>
<g fill="none" color="black" stroke="currentColor" stroke-width="2.00" stroke-linecap="butt" stroke-linejoin="miter">
	<g transform="translate(128.80,157.01)" stroke="none" fill="black" font-family="Helvetica" font-size="8.00" text-anchor="end">
		<text><tspan font-family="Helvetica">Hornix</tspan></text>
	</g>
</g>
<g fill="none" color="black" stroke="currentColor" stroke-width="2.00" stroke-linecap="butt" stroke-linejoin="miter">
	<path stroke="rgb(  0,   0, 128)" d="M134.40,154.41 L162.80,154.41 M648.93,340.00 L651.15,337.47 L656.28,337.25 L661.41,337.15 L663.98,333.70 L669.11,325.02   L671.67,323.39 L674.24,314.94 L679.37,311.98 L684.50,311.95 L689.63,311.11 L692.19,310.21 L697.32,286.39 L702.46,278.17   L707.59,275.77 L712.72,274.59 L717.85,264.59 L722.98,246.19 L728.11,164.06 L730.67,83.70  "/>	<use xlink:href="#gpPt3" transform="translate(148.60,154.41) scale(3.00)" color="rgb(  0,   0, 128)"/>
</g>
	</g>
	<g id="gnuplot_plot_13a"><title>Infer</title>
<g fill="none" color="black" stroke="currentColor" stroke-width="2.00" stroke-linecap="butt" stroke-linejoin="miter">
	<g transform="translate(128.80,169.01)" stroke="none" fill="black" font-family="Helvetica" font-size="8.00" text-anchor="end">
		<text><tspan font-family="Helvetica">Infer</tspan></text>
	</g>
</g>
<g fill="none" color="black" stroke="currentColor" stroke-width="2.00" stroke-linecap="butt" stroke-linejoin="miter">
	<path stroke="rgb(160, 255,  32)" stroke-dasharray=" 2,4" d="M134.40,166.41 L162.80,166.41  "/>	<use xlink:href="#gpPt4" transform="translate(148.60,166.41) scale(2.10)" color="rgb(160, 255,  32)"/>
</g>
	</g>
	<g id="gnuplot_plot_14a"><title>Korn</title>
<g fill="none" color="black" stroke="currentColor" stroke-width="2.00" stroke-linecap="butt" stroke-linejoin="miter">
	<g transform="translate(128.80,181.01)" stroke="none" fill="black" font-family="Helvetica" font-size="8.00" text-anchor="end">
		<text><tspan font-family="Helvetica">Korn</tspan></text>
	</g>
</g>
<g fill="none" color="black" stroke="currentColor" stroke-width="2.00" stroke-linecap="butt" stroke-linejoin="miter">
	<path stroke="rgb(  0, 139, 139)" d="M134.40,178.41 L162.80,178.41 M444.14,340.00 L445.93,339.84 L448.49,339.83 L451.06,339.71 L453.62,339.48 L456.19,339.45   L458.75,339.29 L461.32,339.28 L463.88,339.19 L466.45,338.57 L469.01,338.50 L471.58,338.40 L474.14,336.80 L476.71,336.00   L479.27,331.62 L481.84,329.64 L484.40,320.82 L486.97,310.79 L489.54,297.23 L492.10,276.76 L494.67,254.71 L497.23,252.85   L499.80,209.76 L504.93,190.96 L510.06,190.72 L515.19,190.69 L520.32,189.87 L525.45,188.91 L530.58,186.05 L535.71,186.03   L540.84,186.00 L545.97,185.98 L551.10,185.97 L556.23,185.96 L561.36,185.92 L566.49,185.87 L571.62,185.87 L576.76,185.86   L581.89,185.84 L587.02,185.84 L592.15,185.76 L597.28,185.73 L602.41,185.73 L607.54,185.67 L612.67,185.64 L617.80,185.59   L622.93,185.57 L628.06,185.48 L633.19,185.47 L638.32,185.44 L643.45,185.42 L648.58,185.24 L653.71,185.10 L658.85,185.05   L663.98,185.05 L669.11,185.02 L674.24,184.84 L679.37,184.61 L684.50,184.46 L689.63,184.09 L694.76,184.09 L699.89,184.04   L705.02,183.87 L710.15,183.51 L715.28,182.49 L720.41,182.24 L725.54,181.88 L730.67,180.63 L735.80,178.97 L740.93,171.00   L746.07,169.75 L751.20,127.64  "/>	<use xlink:href="#gpPt0" transform="translate(148.60,178.41) scale(3.00)" color="rgb(  0, 139, 139)"/>
</g>
	</g>
	<g id="gnuplot_plot_15a"><title>Mopsa</title>
<g fill="none" color="black" stroke="currentColor" stroke-width="2.00" stroke-linecap="butt" stroke-linejoin="miter">
	<g transform="translate(128.80,193.01)" stroke="none" fill="black" font-family="Helvetica" font-size="8.00" text-anchor="end">
		<text><tspan font-family="Helvetica">Mopsa</tspan></text>
	</g>
</g>
<g fill="none" color="black" stroke="currentColor" stroke-width="2.00" stroke-linecap="butt" stroke-linejoin="miter">
	<path stroke="rgb(165,  42,  42)" d="M134.40,190.41 L162.80,190.41 M381.79,337.27 L386.92,337.25 L392.05,336.79 L397.18,302.19 L402.32,301.35 L407.45,301.03   L412.58,300.95 L417.71,300.57 L422.84,300.54 L427.97,300.51 L433.10,300.44 L438.23,300.38 L443.36,300.20 L448.49,299.77   L453.62,299.74 L458.75,299.72 L463.88,299.45 L469.01,299.34 L474.14,299.24 L479.27,298.39 L484.40,298.11 L489.54,298.06   L494.67,296.31 L499.80,295.44 L504.93,263.73 L510.06,263.65 L515.19,167.39 L520.32,166.06 L525.45,46.93 L530.58,46.40    "/>	<use xlink:href="#gpPt3" transform="translate(381.79,337.27) scale(3.00)" color="rgb(165,  42,  42)"/>
	<use xlink:href="#gpPt3" transform="translate(148.60,190.41) scale(3.00)" color="rgb(165,  42,  42)"/>
</g>
	</g>
	<g id="gnuplot_plot_16a"><title>Nacpa</title>
<g fill="none" color="black" stroke="currentColor" stroke-width="2.00" stroke-linecap="butt" stroke-linejoin="miter">
	<g transform="translate(128.80,205.01)" stroke="none" fill="black" font-family="Helvetica" font-size="8.00" text-anchor="end">
		<text><tspan font-family="Helvetica">Nacpa</tspan></text>
	</g>
</g>
<g fill="none" color="black" stroke="currentColor" stroke-width="2.00" stroke-linecap="butt" stroke-linejoin="miter">
	<path stroke="rgb(148,   0, 211)" stroke-dasharray=" 5,8" d="M134.40,202.41 L162.80,202.41 M626.26,340.00 L628.06,338.22 L630.63,318.12 L633.19,313.18 L635.76,311.73 L638.32,311.28   L640.89,267.79 L646.02,260.39 L648.58,209.08 L653.71,197.60 L658.85,189.87 L661.41,174.08 L663.98,167.39 L666.54,136.46    "/>	<use xlink:href="#gpPt13" transform="translate(148.60,202.41) scale(2.10)" color="rgb(148,   0, 211)"/>
</g>
	</g>
	<g id="gnuplot_plot_17a"><title>PeSCo-CPA</title>
<g fill="none" color="black" stroke="currentColor" stroke-width="2.00" stroke-linecap="butt" stroke-linejoin="miter">
	<g transform="translate(128.80,217.01)" stroke="none" fill="black" font-family="Helvetica" font-size="8.00" text-anchor="end">
		<text><tspan font-family="Helvetica">PeSCo-CPA</tspan></text>
	</g>
</g>
<g fill="none" color="black" stroke="currentColor" stroke-width="2.00" stroke-linecap="butt" stroke-linejoin="miter">
	<path stroke="rgb(  0, 100,   0)" stroke-dasharray=" 2,4" d="M134.40,214.41 L162.80,214.41 M381.79,331.22 L386.92,330.87 L392.05,329.92 L397.18,329.85 L402.32,329.79 L407.45,329.69   L412.58,329.29 L417.71,329.21 L422.84,329.16 L427.97,329.05 L433.10,328.99 L438.23,328.76 L443.36,328.64 L448.49,328.48   L453.62,328.00 L456.19,327.12 L461.32,326.82 L466.45,326.56 L471.58,326.52 L474.14,325.91 L476.71,325.75 L479.27,325.70   L484.40,325.61 L486.97,325.59 L489.54,325.52 L494.67,325.45 L497.23,325.39 L499.80,325.32 L502.36,325.28 L504.93,325.26   L507.49,325.20 L510.06,325.00 L512.62,324.93 L517.75,324.89 L522.88,324.88 L525.45,324.81 L528.01,324.75 L533.15,324.68   L535.71,324.17 L540.84,324.03 L543.41,323.99 L545.97,323.90 L548.54,323.81 L551.10,323.43 L553.67,323.12 L556.23,322.79   L558.80,322.69 L561.36,322.57 L563.93,322.42 L566.49,322.37 L571.62,322.35 L574.19,322.27 L576.76,322.18 L581.89,321.83   L584.45,321.83 L587.02,321.74 L589.58,321.60 L594.71,320.91 L597.28,320.80 L599.84,319.17 L602.41,318.30 L607.54,312.61   L610.10,310.68 L612.67,309.31 L615.24,308.14 L620.37,307.52 L622.93,305.15 L628.06,302.83 L630.63,301.75 L633.19,297.11   L635.76,291.79 L640.89,290.65 L646.02,284.10 L651.15,275.01 L653.71,211.44 L658.85,201.35 L661.41,200.68 L666.54,189.90   L671.67,164.03 L674.24,147.39 L679.37,116.04 L684.50,116.04 L689.63,115.94 L694.76,115.91 L699.89,115.89 L705.02,115.38   L710.15,115.38 L715.28,115.16 L720.41,114.65 L725.54,113.26  "/>	<use xlink:href="#gpPt5" transform="translate(381.79,331.22) scale(2.10)" color="rgb(  0, 100,   0)"/>
	<use xlink:href="#gpPt5" transform="translate(148.60,214.41) scale(2.10)" color="rgb(  0, 100,   0)"/>
</g>
	</g>
	<g id="gnuplot_plot_18a"><title>Pinaka</title>
<g fill="none" color="black" stroke="currentColor" stroke-width="2.00" stroke-linecap="butt" stroke-linejoin="miter">
	<g transform="translate(128.80,229.01)" stroke="none" fill="black" font-family="Helvetica" font-size="8.00" text-anchor="end">
		<text><tspan font-family="Helvetica">Pinaka</tspan></text>
	</g>
</g>
<g fill="none" color="black" stroke="currentColor" stroke-width="2.00" stroke-linecap="butt" stroke-linejoin="miter">
	<path stroke="rgb(190, 190, 190)" stroke-dasharray=" 2,4" d="M134.40,226.41 L162.80,226.41 M639.02,340.00 L640.89,318.25 L646.02,318.03 L651.15,294.36 L656.28,291.57 L658.85,280.66   L661.41,276.66 L663.98,274.13 L669.11,248.93 L674.24,242.78 L679.37,202.50 L684.50,198.70 L687.06,167.47 L689.63,165.13    "/>	<use xlink:href="#gpPt5" transform="translate(148.60,226.41) scale(2.10)" color="rgb(190, 190, 190)"/>
</g>
	</g>
	<g id="gnuplot_plot_19a"><title>SVF-SVC</title>
<g fill="none" color="black" stroke="currentColor" stroke-width="2.00" stroke-linecap="butt" stroke-linejoin="miter">
	<g transform="translate(128.80,241.01)" stroke="none" fill="black" font-family="Helvetica" font-size="8.00" text-anchor="end">
		<text><tspan font-family="Helvetica">SVF-SVC</tspan></text>
	</g>
</g>
<g fill="none" color="black" stroke="currentColor" stroke-width="2.00" stroke-linecap="butt" stroke-linejoin="miter">
	<path stroke="rgb(255, 165,   0)" d="M134.40,238.41 L162.80,238.41  "/>	<use xlink:href="#gpPt7" transform="translate(148.60,238.41) scale(3.00)" color="rgb(255, 165,   0)"/>
</g>
	</g>
	<g id="gnuplot_plot_20a"><title>Symbiotic</title>
<g fill="none" color="black" stroke="currentColor" stroke-width="2.00" stroke-linecap="butt" stroke-linejoin="miter">
	<g transform="translate(128.80,253.01)" stroke="none" fill="black" font-family="Helvetica" font-size="8.00" text-anchor="end">
		<text><tspan font-family="Helvetica">Symbiotic</tspan></text>
	</g>
</g>
<g fill="none" color="black" stroke="currentColor" stroke-width="2.00" stroke-linecap="butt" stroke-linejoin="miter">
	<path stroke="rgb(255, 165,   0)" d="M134.40,250.41 L162.80,250.41 M665.89,340.00 L666.54,339.16 L671.67,333.31 L674.24,308.42 L679.37,303.04 L681.93,302.51   L687.06,294.55 L692.19,284.27 L697.32,283.13 L699.89,266.69 L702.46,263.86 L705.02,252.69 L707.59,251.62 L710.15,245.50   L715.28,141.23 L720.41,127.83 L725.54,126.98 L728.11,120.42 L733.24,54.82 L738.37,54.81 L743.50,54.81 L748.63,54.81   L753.76,54.80 L758.89,54.80  "/>	<use xlink:href="#gpPt5" transform="translate(148.60,250.41) scale(3.00)" color="rgb(255, 165,   0)"/>
</g>
	</g>
	<g id="gnuplot_plot_21a"><title>Theta</title>
<g fill="none" color="black" stroke="currentColor" stroke-width="2.00" stroke-linecap="butt" stroke-linejoin="miter">
	<g transform="translate(128.80,265.01)" stroke="none" fill="black" font-family="Helvetica" font-size="8.00" text-anchor="end">
		<text><tspan font-family="Helvetica">Theta</tspan></text>
	</g>
</g>
<g fill="none" color="black" stroke="currentColor" stroke-width="2.00" stroke-linecap="butt" stroke-linejoin="miter">
	<path stroke="rgb(128,  96, 255)" d="M134.40,262.41 L162.80,262.41 M381.79,242.04 L386.92,237.86 L392.05,234.60 L394.62,234.53 L399.75,234.50 L402.32,234.31   L404.88,232.15 L410.01,231.02 L412.58,231.01 L415.14,230.84 L420.27,230.80 L422.84,229.61 L427.97,228.21 L430.53,226.99   L433.10,226.73 L435.66,226.24 L440.79,223.82 L445.93,223.59 L451.06,222.86 L456.19,222.01 L458.75,219.64 L461.32,219.08   L463.88,218.76 L469.01,218.61 L474.14,217.63 L476.71,217.08 L481.84,215.02 L486.97,214.87 L489.54,214.07 L492.10,213.81   L494.67,211.52 L497.23,210.98 L499.80,206.58 L502.36,203.48 L507.49,201.91 L512.62,199.74 L517.75,197.61 L520.32,194.48   L522.88,192.29 L528.01,182.62 L533.15,181.85 L535.71,174.77 L540.84,156.61 L543.41,153.07 L548.54,150.08 L553.67,126.58   L556.23,109.23 L561.36,101.89 L563.93,100.85 L569.06,91.40 L574.19,80.00 L576.76,72.09 L579.32,64.70 L581.89,53.22   L584.45,38.01 L587.02,25.23 L592.15,24.64 L597.28,21.09 L602.41,17.13  "/>	<use xlink:href="#gpPt1" transform="translate(381.79,242.04) scale(3.00)" color="rgb(128,  96, 255)"/>
	<use xlink:href="#gpPt1" transform="translate(148.60,262.41) scale(3.00)" color="rgb(128,  96, 255)"/>
</g>
	</g>
	<g id="gnuplot_plot_22a"><title>UAutomizer</title>
<g fill="none" color="black" stroke="currentColor" stroke-width="2.00" stroke-linecap="butt" stroke-linejoin="miter">
	<g transform="translate(128.80,277.01)" stroke="none" fill="black" font-family="Helvetica" font-size="8.00" text-anchor="end">
		<text><tspan font-family="Helvetica">UAutomizer</tspan></text>
	</g>
</g>
<g fill="none" color="black" stroke="currentColor" stroke-width="2.00" stroke-linecap="butt" stroke-linejoin="miter">
	<path stroke="rgb(250, 128, 114)" d="M134.40,274.41 L162.80,274.41 M297.14,208.73 L299.70,205.76 L302.27,204.55 L307.40,204.24 L309.96,204.21 L315.10,203.69   L317.66,203.56 L322.79,203.26 L325.36,202.98 L327.92,202.28 L330.49,200.87 L333.05,200.63 L335.62,199.79 L338.18,199.31   L343.31,199.28 L345.88,199.23 L351.01,199.18 L353.57,198.09 L358.71,197.81 L361.27,196.16 L366.40,195.94 L371.53,195.89   L376.66,195.30 L381.79,194.77 L384.36,194.61 L389.49,194.58 L394.62,193.82 L399.75,192.00 L404.88,189.99 L407.45,188.50   L412.58,187.49 L417.71,186.90 L420.27,185.70 L425.40,184.45 L430.53,183.98 L433.10,183.42 L438.23,182.86 L440.79,180.47   L443.36,179.84 L448.49,179.14 L453.62,176.77 L458.75,176.24 L461.32,175.99 L466.45,174.69 L471.58,173.14 L474.14,173.13   L476.71,172.89 L481.84,172.74 L486.97,172.46 L492.10,171.65 L494.67,169.58 L497.23,168.66 L502.36,168.14 L507.49,166.34   L510.06,163.31 L515.19,163.02 L517.75,162.11 L522.88,161.80 L528.01,161.07 L533.15,160.78 L538.28,160.15 L543.41,159.86   L548.54,158.49 L551.10,157.68 L553.67,152.78 L556.23,149.68 L558.80,146.63 L563.93,146.45 L569.06,145.50 L574.19,145.48   L579.32,141.44 L584.45,137.95 L589.58,136.26 L594.71,132.65 L599.84,128.15 L604.97,121.99 L610.10,121.72 L615.24,120.04   L617.80,115.57 L622.93,114.82 L625.50,114.45 L630.63,113.90 L635.76,109.01 L638.32,102.82 L640.89,102.40 L643.45,101.70   L646.02,89.10 L651.15,85.28 L656.28,80.40 L661.41,79.38 L666.54,78.28 L669.11,75.28 L671.67,65.61 L676.80,65.41   L681.93,63.57 L687.06,62.74 L692.19,49.51 L694.76,32.85 L699.89,28.67  "/>	<use xlink:href="#gpPt5" transform="translate(297.14,208.73) scale(3.00)" color="rgb(250, 128, 114)"/>
	<use xlink:href="#gpPt5" transform="translate(148.60,274.41) scale(3.00)" color="rgb(250, 128, 114)"/>
</g>
	</g>
	<g id="gnuplot_plot_23a"><title>UKojak</title>
<g fill="none" color="black" stroke="currentColor" stroke-width="2.00" stroke-linecap="butt" stroke-linejoin="miter">
	<g transform="translate(128.80,289.01)" stroke="none" fill="black" font-family="Helvetica" font-size="8.00" text-anchor="end">
		<text><tspan font-family="Helvetica">UKojak</tspan></text>
	</g>
</g>
<g fill="none" color="black" stroke="currentColor" stroke-width="2.00" stroke-linecap="butt" stroke-linejoin="miter">
	<path stroke="rgb(250, 128, 114)" d="M134.40,286.41 L162.80,286.41 M379.23,208.97 L384.36,208.64 L386.92,208.01 L389.49,207.50 L394.62,207.25 L397.18,205.87   L399.75,204.91 L402.32,204.77 L404.88,204.18 L407.45,202.65 L410.01,202.06 L415.14,201.82 L417.71,200.61 L420.27,197.57   L425.40,196.93 L430.53,196.48 L433.10,196.36 L438.23,195.02 L443.36,194.11 L448.49,193.14 L453.62,193.09 L458.75,192.49   L461.32,192.25 L466.45,191.04 L469.01,188.66 L474.14,187.25 L476.71,185.03 L479.27,183.91 L481.84,183.77 L486.97,182.30   L492.10,181.82 L497.23,180.35 L502.36,179.53 L507.49,178.40 L512.62,175.12 L515.19,173.66 L517.75,172.92 L522.88,172.09   L525.45,170.14 L528.01,168.66 L530.58,168.38 L535.71,167.84 L538.28,162.07 L543.41,161.81 L545.97,161.40 L548.54,153.22   L551.10,153.19 L556.23,150.15 L558.80,149.38 L563.93,145.71 L569.06,144.72 L574.19,142.06 L579.32,140.99 L584.45,139.34   L587.02,138.76 L589.58,137.77 L592.15,134.52 L597.28,133.97 L599.84,130.01 L604.97,123.42 L610.10,122.06 L615.24,121.22   L617.80,105.07 L622.93,95.62  "/>	<use xlink:href="#gpPt9" transform="translate(379.23,208.97) scale(3.00)" color="rgb(250, 128, 114)"/>
	<use xlink:href="#gpPt9" transform="translate(148.60,286.41) scale(3.00)" color="rgb(250, 128, 114)"/>
</g>
	</g>
	<g id="gnuplot_plot_24a"><title>UTaipan</title>
<g fill="none" color="black" stroke="currentColor" stroke-width="2.00" stroke-linecap="butt" stroke-linejoin="miter">
	<g transform="translate(128.80,301.01)" stroke="none" fill="black" font-family="Helvetica" font-size="8.00" text-anchor="end">
		<text><tspan font-family="Helvetica">UTaipan</tspan></text>
	</g>
</g>
<g fill="none" color="black" stroke="currentColor" stroke-width="2.00" stroke-linecap="butt" stroke-linejoin="miter">
	<path stroke="rgb(250, 128, 114)" d="M134.40,298.41 L162.80,298.41 M379.23,210.64 L381.79,209.38 L384.36,208.43 L389.49,207.59 L392.05,207.29 L397.18,204.46   L399.75,203.29 L404.88,203.05 L407.45,202.14 L410.01,201.64 L415.14,201.16 L420.27,200.51 L422.84,199.69 L427.97,199.45   L430.53,199.11 L435.66,198.88 L438.23,198.71 L443.36,198.29 L445.93,197.81 L448.49,197.14 L453.62,196.32 L458.75,196.10   L463.88,194.53 L466.45,194.46 L471.58,194.08 L476.71,194.05 L481.84,193.35 L484.40,192.99 L486.97,192.45 L492.10,187.89   L497.23,186.60 L499.80,185.02 L504.93,183.79 L507.49,183.76 L510.06,183.69 L512.62,183.10 L517.75,182.30 L522.88,182.06   L528.01,181.65 L533.15,180.80 L538.28,178.55 L540.84,175.97 L545.97,175.38 L551.10,175.01 L556.23,172.09 L558.80,171.62   L561.36,171.26 L563.93,170.35 L569.06,167.63 L574.19,164.57 L576.76,164.55 L581.89,162.01 L584.45,161.90 L589.58,160.00   L592.15,158.37 L597.28,158.28 L602.41,157.68 L604.97,157.41 L610.10,157.26 L612.67,154.84 L617.80,154.00 L620.37,153.40   L625.50,153.24 L628.06,152.47 L633.19,151.23 L635.76,148.49 L640.89,143.38 L643.45,141.39 L648.58,139.15 L653.71,138.38   L658.85,135.57 L663.98,135.43 L666.54,132.73 L671.67,131.84 L676.80,125.51 L681.93,124.81 L684.50,123.09 L689.63,119.75   L692.19,116.02 L697.32,107.05 L699.89,106.66 L702.46,106.58 L707.59,102.98 L712.72,102.51 L715.28,101.21 L720.41,93.27   L725.54,87.74 L730.67,86.37 L735.80,78.49 L738.37,75.06 L743.50,63.52 L748.63,59.28 L751.20,33.02 L756.33,32.55   L761.46,31.53  "/>	<use xlink:href="#gpPt13" transform="translate(379.23,210.64) scale(3.00)" color="rgb(250, 128, 114)"/>
	<use xlink:href="#gpPt13" transform="translate(148.60,298.41) scale(3.00)" color="rgb(250, 128, 114)"/>
</g>
	</g>
	<g id="gnuplot_plot_25a"><title>VeriAbs</title>
<g fill="none" color="black" stroke="currentColor" stroke-width="2.00" stroke-linecap="butt" stroke-linejoin="miter">
	<g transform="translate(128.80,313.01)" stroke="none" fill="black" font-family="Helvetica" font-size="8.00" text-anchor="end">
		<text><tspan font-family="Helvetica">VeriAbs</tspan></text>
	</g>
</g>
<g fill="none" color="black" stroke="currentColor" stroke-width="2.00" stroke-linecap="butt" stroke-linejoin="miter">
	<path stroke="rgb(200, 200,   0)" stroke-dasharray=" 2,4" d="M134.40,310.41 L162.80,310.41 M299.70,206.88 L304.83,206.74 L309.96,206.32 L315.10,206.12 L320.23,205.91 L325.36,205.29   L330.49,205.25 L335.62,205.14 L340.75,205.07 L345.88,205.00 L351.01,204.87 L356.14,204.84 L361.27,204.73 L366.40,204.45   L371.53,204.17 L376.66,204.10 L381.79,203.92 L386.92,203.91 L392.05,203.51 L397.18,203.35 L402.32,203.16 L407.45,203.09   L412.58,201.91 L417.71,201.56 L422.84,201.14 L427.97,200.77 L433.10,200.06 L438.23,198.14 L443.36,198.09 L448.49,197.33   L453.62,197.17 L458.75,197.08 L461.32,196.40 L463.88,196.09 L466.45,196.02 L469.01,195.81 L471.58,195.63 L474.14,195.50   L476.71,195.50 L479.27,195.39 L481.84,195.29 L486.97,195.26 L489.54,195.10 L492.10,194.73 L494.67,194.24 L497.23,193.86   L499.80,193.34 L502.36,192.04 L507.49,191.98 L510.06,191.88 L512.62,191.02 L517.75,190.98 L520.32,190.36 L525.45,190.00   L528.01,189.04 L533.15,188.11 L535.71,187.94 L538.28,187.32 L543.41,186.36 L545.97,185.16 L548.54,185.12 L553.67,184.92   L558.80,184.88 L563.93,184.07 L566.49,182.40 L571.62,181.32 L574.19,179.60 L576.76,179.15 L579.32,179.06 L581.89,178.36   L584.45,177.33 L587.02,177.26 L589.58,177.20 L594.71,176.47 L597.28,172.49 L599.84,170.49 L602.41,163.30 L607.54,162.49   L612.67,161.92 L617.80,158.11 L622.93,149.90 L628.06,142.54 L630.63,135.86 L633.19,133.83 L638.32,132.98 L640.89,81.73   L643.45,78.28 L646.02,48.14 L648.58,42.96 L651.15,28.61  "/>	<use xlink:href="#gpPt2" transform="translate(299.70,206.88) scale(2.10)" color="rgb(200, 200,   0)"/>
	<use xlink:href="#gpPt2" transform="translate(148.60,310.41) scale(2.10)" color="rgb(200, 200,   0)"/>
</g>
	</g>
	<g id="gnuplot_plot_26a"><title>VeriAbsL</title>
<g fill="none" color="black" stroke="currentColor" stroke-width="2.00" stroke-linecap="butt" stroke-linejoin="miter">
	<g transform="translate(128.80,325.01)" stroke="none" fill="black" font-family="Helvetica" font-size="8.00" text-anchor="end">
		<text><tspan font-family="Helvetica">VeriAbsL</tspan></text>
	</g>
</g>
<g fill="none" color="black" stroke="currentColor" stroke-width="2.00" stroke-linecap="butt" stroke-linejoin="miter">
	<path stroke="rgb(200, 200,   0)" stroke-dasharray=" 2,4" d="M134.40,322.41 L162.80,322.41 M299.70,230.48 L304.83,230.42 L309.96,230.04 L315.10,230.00 L320.23,229.94 L325.36,229.55   L330.49,229.51 L335.62,229.26 L340.75,229.24 L345.88,229.10 L351.01,229.06 L356.14,228.98 L361.27,228.94 L366.40,228.82   L371.53,228.58 L376.66,228.37 L381.79,227.75 L386.92,227.62 L392.05,227.57 L397.18,227.48 L402.32,227.34 L407.45,227.34   L412.58,226.95 L417.71,225.66 L422.84,224.82 L427.97,224.77 L433.10,224.34 L438.23,223.61 L443.36,222.99 L448.49,221.74   L453.62,219.38 L458.75,218.01 L463.88,217.38 L469.01,214.31 L471.58,213.94 L474.14,213.66 L476.71,213.50 L479.27,213.33   L481.84,213.33 L484.40,213.32 L486.97,213.26 L489.54,212.37 L492.10,212.08 L494.67,211.52 L497.23,211.39 L499.80,211.17   L502.36,211.14 L504.93,211.05 L507.49,211.05 L510.06,210.92 L512.62,210.84 L515.19,210.82 L517.75,210.49 L520.32,210.46   L522.88,210.02 L525.45,209.93 L528.01,209.89 L530.58,209.79 L533.15,209.65 L538.28,208.99 L540.84,206.59 L543.41,204.99   L545.97,204.98 L548.54,204.81 L551.10,204.34 L553.67,203.45 L556.23,200.02 L561.36,197.99 L563.93,196.26 L569.06,149.31   L574.19,148.26 L576.76,143.31 L579.32,140.17 L581.89,65.81 L587.02,65.06 L592.15,65.03 L594.71,65.01 L599.84,64.98   L604.97,64.23 L610.10,63.98 L612.67,63.97 L617.80,63.88 L622.93,54.32 L625.50,50.27 L628.06,50.09  "/>	<use xlink:href="#gpPt3" transform="translate(299.70,230.48) scale(2.10)" color="rgb(200, 200,   0)"/>
	<use xlink:href="#gpPt3" transform="translate(148.60,322.41) scale(2.10)" color="rgb(200, 200,   0)"/>
</g>
	</g>
<g fill="none" color="black" stroke="currentColor" stroke-width="2.00" stroke-linecap="butt" stroke-linejoin="miter">
</g>
<g fill="none" color="black" stroke="black" stroke-width="1.00" stroke-linecap="butt" stroke-linejoin="miter">
</g>
<g fill="none" color="black" stroke="currentColor" stroke-width="1.00" stroke-linecap="butt" stroke-linejoin="miter">
	<path stroke="black" d="M56.00,10.41 L56.00,340.00 L787.11,340.00 L787.11,10.41 L56.00,10.41 Z  "/>	<g transform="translate(31.60,175.21) rotate(270.00)" stroke="none" fill="black" font-family="Helvetica" font-size="8.00" text-anchor="middle">
		<text><tspan font-family="Helvetica">Min. time in s</tspan></text>
	</g>
</g>
<g fill="none" color="black" stroke="currentColor" stroke-width="1.00" stroke-linecap="butt" stroke-linejoin="miter">
</g>
<g fill="none" color="black" stroke="currentColor" stroke-width="1.00" stroke-linecap="butt" stroke-linejoin="miter">
</g>
<g fill="none" color="black" stroke="currentColor" stroke-width="1.00" stroke-linecap="butt" stroke-linejoin="miter">
	<path stroke="black" d="M120.13,357.60 L120.13,351.60  "/>	<g transform="translate(120.13,372.20)" stroke="none" fill="black" font-family="Helvetica" font-size="8.00" text-anchor="middle">
		<text><tspan font-family="Helvetica">-100</tspan></text>
	</g>
</g>
<g fill="none" color="black" stroke="currentColor" stroke-width="1.00" stroke-linecap="butt" stroke-linejoin="miter">
	<path stroke="black" d="M248.40,357.60 L248.40,351.60  "/>	<g transform="translate(248.40,372.20)" stroke="none" fill="black" font-family="Helvetica" font-size="8.00" text-anchor="middle">
		<text><tspan font-family="Helvetica">-50</tspan></text>
	</g>
</g>
<g fill="none" color="black" stroke="currentColor" stroke-width="1.00" stroke-linecap="butt" stroke-linejoin="miter">
	<path stroke="black" d="M376.66,357.60 L376.66,351.60  "/>	<g transform="translate(376.66,372.20)" stroke="none" fill="black" font-family="Helvetica" font-size="8.00" text-anchor="middle">
		<text><tspan font-family="Helvetica"> 0</tspan></text>
	</g>
</g>
<g fill="none" color="black" stroke="currentColor" stroke-width="1.00" stroke-linecap="butt" stroke-linejoin="miter">
	<path stroke="black" d="M504.93,357.60 L504.93,351.60  "/>	<g transform="translate(504.93,372.20)" stroke="none" fill="black" font-family="Helvetica" font-size="8.00" text-anchor="middle">
		<text><tspan font-family="Helvetica"> 50</tspan></text>
	</g>
</g>
<g fill="none" color="black" stroke="currentColor" stroke-width="1.00" stroke-linecap="butt" stroke-linejoin="miter">
	<path stroke="black" d="M633.19,357.60 L633.19,351.60  "/>	<g transform="translate(633.19,372.20)" stroke="none" fill="black" font-family="Helvetica" font-size="8.00" text-anchor="middle">
		<text><tspan font-family="Helvetica"> 100</tspan></text>
	</g>
</g>
<g fill="none" color="black" stroke="currentColor" stroke-width="1.00" stroke-linecap="butt" stroke-linejoin="miter">
	<path stroke="black" d="M761.46,357.60 L761.46,351.60  "/>	<g transform="translate(761.46,372.20)" stroke="none" fill="black" font-family="Helvetica" font-size="8.00" text-anchor="middle">
		<text><tspan font-family="Helvetica"> 150</tspan></text>
	</g>
</g>
<g fill="none" color="black" stroke="currentColor" stroke-width="1.00" stroke-linecap="butt" stroke-linejoin="miter">
</g>
<g fill="none" color="black" stroke="currentColor" stroke-width="1.00" stroke-linecap="butt" stroke-linejoin="miter">
	<path stroke="black" d="M56.00,340.00 L56.00,357.60 L787.11,357.60 L787.11,340.00 L56.00,340.00 Z  "/></g>
<g fill="none" color="black" stroke="currentColor" stroke-width="1.00" stroke-linecap="butt" stroke-linejoin="miter">
</g>
	<g id="gnuplot_plot_1b"><title>Bubaak</title>
<g fill="none" color="white" stroke="black" stroke-width="2.00" stroke-linecap="butt" stroke-linejoin="miter">
</g>
<g fill="none" color="black" stroke="currentColor" stroke-width="2.00" stroke-linecap="butt" stroke-linejoin="miter">
	<path stroke="rgb(255,   0, 255)" d="M217.61,354.76 L220.18,354.75 L225.31,354.75 L230.44,354.75 L235.57,354.74 L238.14,354.74 L243.27,354.74 L245.83,354.73   L248.40,354.73 L250.96,354.72 L253.53,354.72 L256.09,354.72 L258.66,354.72 L261.22,354.72 L266.35,354.71 L268.92,354.71   L271.49,354.71 L274.05,354.71 L279.18,354.71 L284.31,354.70 L286.88,354.70 L289.44,354.69 L292.01,354.69 L297.14,354.68   L299.70,354.67 L304.83,354.67 L307.40,354.63 L312.53,354.59 L317.66,354.58 L322.79,354.57 L327.92,354.54 L330.49,354.50   L335.62,354.48 L340.75,354.48 L345.88,354.47 L348.44,354.46 L353.57,354.44 L358.71,354.44 L361.27,354.27 L366.40,354.24   L368.97,354.17 L374.10,354.14 L379.23,354.09 L381.79,354.07 L384.36,354.04 L389.49,353.98 L394.62,353.97 L399.75,353.93   L404.88,353.87 L410.01,353.74 L412.58,353.09 L415.14,352.61 L417.71,352.50 L422.84,351.96 L425.40,351.92 L427.97,351.89   L430.53,351.87 L435.66,351.74 L438.23,351.64 L440.79,351.61 L445.93,351.46 L448.49,350.42 L451.06,350.06 L453.62,348.97   L456.19,348.32 L458.75,347.99 L463.88,347.41 L466.45,347.25 L471.58,347.22 L474.14,347.07 L476.71,346.83 L481.84,346.12   L484.40,344.97 L486.66,340.00  "/>	<use xlink:href="#gpPt11" transform="translate(217.61,354.76) scale(3.00)" color="rgb(255,   0, 255)"/>
</g>
	</g>
	<g id="gnuplot_plot_2b"><title>Bubaak-SpLit</title>
<g fill="none" color="black" stroke="currentColor" stroke-width="2.00" stroke-linecap="butt" stroke-linejoin="miter">
	<path stroke="rgb(255,   0, 255)" d="M299.70,347.49 L304.83,347.49 L309.96,347.42 L315.10,347.38 L320.23,347.38 L325.36,347.37 L330.49,347.31 L335.62,347.29   L340.75,347.27 L345.88,347.22 L351.01,347.08 L356.14,347.07 L361.27,347.03 L366.40,346.93 L371.53,346.91 L376.66,346.90   L381.79,346.86 L386.92,346.84 L392.05,346.82 L397.18,346.76 L402.32,346.65 L407.45,346.65 L412.58,346.61 L417.71,346.17   L422.84,346.14 L427.97,345.66 L430.53,345.37 L433.10,345.36 L435.66,345.33 L438.23,345.33 L440.79,345.25 L443.36,345.19   L445.93,345.11 L448.49,345.05 L451.06,345.03 L453.62,344.98 L456.19,344.89 L458.75,344.85 L461.32,344.83 L463.88,344.68   L466.45,344.66 L469.01,344.59 L471.58,344.59 L474.14,344.57 L479.27,344.18 L484.40,344.10 L489.54,343.93 L492.10,343.37   L494.67,342.53 L497.23,342.23 L499.80,341.15 L502.36,341.08 L504.93,340.90 L507.49,340.77 L510.06,340.56 L515.19,340.30   L517.66,340.00  "/>	<use xlink:href="#gpPt9" transform="translate(299.70,347.49) scale(3.00)" color="rgb(255,   0, 255)"/>
</g>
	</g>
	<g id="gnuplot_plot_3b"><title>CBMC</title>
<g fill="none" color="black" stroke="currentColor" stroke-width="2.00" stroke-linecap="butt" stroke-linejoin="miter">
	<path stroke="rgb(255,   0,   0)" stroke-dasharray=" 2,4" d="M379.23,355.31 L381.79,355.27 L384.36,355.23 L386.92,355.20 L389.49,355.18 L394.62,355.17 L397.18,355.17 L399.75,355.12   L404.88,355.11 L407.45,355.09 L412.58,355.05 L417.71,354.98 L422.84,354.96 L427.97,354.92 L430.53,354.91 L433.10,354.91   L435.66,354.88 L440.79,354.86 L443.36,354.85 L445.93,354.78 L448.49,354.59 L451.06,354.56 L453.62,354.48 L458.75,354.46   L461.32,354.35 L466.45,354.23 L469.01,354.10 L471.58,354.02 L476.71,353.99 L481.84,353.95 L484.40,353.93 L486.97,353.92   L489.54,353.90 L492.10,353.86 L497.23,353.82 L502.36,353.81 L504.93,353.39 L507.49,353.03 L510.06,352.92 L515.19,352.92   L520.32,352.59 L525.45,352.52 L528.01,352.38 L533.15,352.32 L535.71,351.89 L540.84,351.81 L543.41,351.77 L548.54,351.66   L551.10,351.23 L556.23,351.03 L561.36,350.86 L563.93,350.85 L566.49,350.69 L571.62,350.42 L576.76,350.13 L579.32,349.31   L581.89,349.18 L584.45,348.86 L587.02,348.52 L592.15,348.45 L597.28,348.14 L602.41,347.84 L607.54,346.39 L610.10,345.99   L615.24,344.76 L617.80,344.23 L620.37,343.41 L622.93,342.61 L625.50,341.62 L630.63,340.49 L635.76,340.00  "/>	<use xlink:href="#gpPt1" transform="translate(379.23,355.31) scale(2.10)" color="rgb(255,   0,   0)"/>
</g>
	</g>
	<g id="gnuplot_plot_4b"><title>CPAchecker</title>
<g fill="none" color="black" stroke="currentColor" stroke-width="2.00" stroke-linecap="butt" stroke-linejoin="miter">
</g>
	</g>
	<g id="gnuplot_plot_5b"><title>CPV</title>
<g fill="none" color="black" stroke="currentColor" stroke-width="2.00" stroke-linecap="butt" stroke-linejoin="miter">
</g>
	</g>
	<g id="gnuplot_plot_6b"><title>Crux</title>
<g fill="none" color="black" stroke="currentColor" stroke-width="2.00" stroke-linecap="butt" stroke-linejoin="miter">
	<path stroke="rgb(255,   0,   0)" stroke-dasharray=" 2,4" d="M299.70,356.46 L304.83,356.43 L307.40,356.43 L312.53,356.38 L317.66,356.37 L322.79,356.37 L327.92,356.37 L330.49,356.37   L335.62,356.37 L340.75,356.37 L345.88,356.37 L348.44,356.36 L353.57,356.36 L356.14,356.36 L361.27,356.35 L363.84,356.34   L368.97,356.33 L371.53,356.33 L374.10,356.32 L376.66,356.32 L379.23,356.32 L384.36,356.31 L389.49,356.31 L392.05,356.31   L394.62,356.28 L399.75,356.27 L404.88,356.25 L410.01,356.23 L412.58,356.23 L417.71,356.22 L420.27,356.22 L425.40,356.18   L427.97,356.16 L433.10,356.12 L435.66,356.09 L438.23,356.07 L440.79,356.06 L445.93,356.05 L448.49,356.04 L451.06,356.02   L453.62,356.00 L456.19,356.00 L461.32,356.00 L463.88,355.96 L469.01,355.88 L474.14,355.82 L476.71,355.81 L481.84,355.65   L486.97,355.56 L489.54,355.52 L494.67,355.07 L499.80,352.49 L504.93,351.44 L510.06,351.19 L515.19,350.86 L517.75,349.18   L520.32,349.03 L525.45,348.22 L526.85,340.00  "/>	<use xlink:href="#gpPt10" transform="translate(299.70,356.46) scale(2.10)" color="rgb(255,   0,   0)"/>
</g>
	</g>
	<g id="gnuplot_plot_7b"><title>DIVINE</title>
<g fill="none" color="black" stroke="currentColor" stroke-width="2.00" stroke-linecap="butt" stroke-linejoin="miter">
</g>
	</g>
	<g id="gnuplot_plot_8b"><title>ESBMC-kind</title>
<g fill="none" color="black" stroke="currentColor" stroke-width="2.00" stroke-linecap="butt" stroke-linejoin="miter">
	<path stroke="rgb(255, 215,   0)" d="M381.79,355.03 L386.92,355.02 L389.49,354.99 L392.05,354.98 L394.62,354.96 L397.18,354.93 L402.32,354.93 L407.45,354.90   L410.01,354.89 L412.58,354.89 L417.71,354.86 L422.84,354.85 L427.97,354.85 L430.53,354.83 L435.66,354.83 L438.23,354.83   L443.36,354.82 L445.93,354.81 L448.49,354.77 L451.06,354.77 L453.62,354.75 L456.19,354.75 L461.32,354.75 L463.88,354.74   L469.01,354.72 L474.14,354.72 L476.71,354.71 L479.27,354.70 L481.84,354.70 L484.40,354.66 L486.97,354.63 L489.54,354.58   L492.10,354.56 L494.67,354.51 L497.23,354.50 L502.36,354.46 L504.93,354.43 L507.49,354.42 L512.62,354.40 L517.75,354.36   L522.88,354.34 L525.45,354.32 L530.58,354.31 L535.71,354.31 L540.84,354.29 L543.41,354.25 L545.97,354.21 L551.10,354.20   L556.23,354.17 L558.80,354.16 L561.36,354.14 L566.49,354.10 L569.06,353.90 L574.19,353.82 L576.76,353.71 L581.89,353.68   L587.02,353.62 L592.15,353.39 L594.71,353.37 L599.84,353.31 L602.41,352.95 L604.97,352.04 L610.10,350.35 L615.24,348.35   L617.80,344.51 L622.93,341.97 L628.06,341.24 L629.30,340.00  "/>	<use xlink:href="#gpPt5" transform="translate(381.79,355.03) scale(3.00)" color="rgb(255, 215,   0)"/>
</g>
	</g>
	<g id="gnuplot_plot_9b"><title>Gazer-Theta</title>
<g fill="none" color="black" stroke="currentColor" stroke-width="2.00" stroke-linecap="butt" stroke-linejoin="miter">
	<path stroke="rgb(128,  96, 255)" stroke-dasharray=" 2,4" d="M381.79,352.66 L386.92,352.64 L392.05,352.58 L397.18,352.53 L402.32,352.48 L407.45,352.47 L412.58,352.37 L417.71,352.26   L422.84,352.16 L427.97,352.09 L433.10,351.89 L438.23,351.82 L443.36,351.74 L445.93,351.60 L448.49,351.56 L453.62,351.45   L458.75,351.44 L461.32,351.41 L463.88,351.40 L466.45,351.40 L469.01,351.39 L471.58,351.30 L476.71,351.27 L479.27,351.25   L481.84,351.22 L486.97,351.21 L489.54,351.20 L492.10,351.18 L494.67,351.10 L499.80,351.07 L504.93,351.04 L507.49,350.89   L510.06,350.86 L512.62,350.70 L515.19,350.64 L517.75,350.63 L522.88,350.58 L528.01,350.56 L530.58,350.50 L533.15,350.40   L538.28,350.28 L540.84,350.20 L543.41,350.15 L545.97,350.13 L548.54,350.08 L551.10,350.03 L553.67,349.94 L556.23,349.93   L558.80,349.91 L563.93,349.79 L566.49,349.75 L569.06,349.70 L571.62,349.62 L576.76,349.09 L581.89,349.03 L584.45,348.77   L589.58,348.19 L594.71,348.02 L597.28,347.66 L599.84,346.64 L604.97,345.59 L610.10,340.71 L613.01,340.00  "/>	<use xlink:href="#gpPt2" transform="translate(381.79,352.66) scale(2.10)" color="rgb(128,  96, 255)"/>
</g>
	</g>
	<g id="gnuplot_plot_10b"><title>Goblint</title>
<g fill="none" color="black" stroke="currentColor" stroke-width="2.00" stroke-linecap="butt" stroke-linejoin="miter">
	<path stroke="rgb(  0, 139, 139)" d="M381.79,355.98 L386.92,355.77 L392.05,355.75 L397.18,355.72 L402.32,355.69 L407.45,355.63 L412.58,355.60 L417.71,355.55   L422.84,355.55 L427.97,355.55 L433.10,355.55 L438.23,355.46 L443.36,355.44 L448.49,355.44 L453.62,355.35 L458.75,355.31   L463.88,355.20 L469.01,355.15 L474.14,355.09 L479.27,355.08 L484.40,355.07 L489.54,355.02 L494.67,355.00 L499.80,354.99   L504.93,354.98 L510.06,354.88 L515.19,354.85 L520.32,354.55 L525.45,354.40 L530.58,354.14 L535.71,353.31 L540.84,351.53   L545.97,349.52 L551.10,344.37 L556.23,341.33 L557.08,340.00  "/>	<use xlink:href="#gpPt11" transform="translate(381.79,355.98) scale(3.00)" color="rgb(  0, 139, 139)"/>
</g>
	</g>
	<g id="gnuplot_plot_11b"><title>Graves-CPA</title>
<g fill="none" color="black" stroke="currentColor" stroke-width="2.00" stroke-linecap="butt" stroke-linejoin="miter">
</g>
	</g>
	<g id="gnuplot_plot_12b"><title>Hornix</title>
<g fill="none" color="black" stroke="currentColor" stroke-width="2.00" stroke-linecap="butt" stroke-linejoin="miter">
	<path stroke="rgb(  0,   0, 128)" d="M381.79,355.71 L384.36,355.71 L386.92,355.69 L392.05,355.67 L394.62,355.66 L397.18,355.66 L402.32,355.61 L407.45,355.61   L412.58,355.60 L417.71,355.60 L422.84,355.58 L427.97,355.57 L430.53,355.56 L435.66,355.55 L438.23,355.53 L440.79,355.53   L443.36,355.52 L448.49,355.51 L451.06,355.49 L456.19,355.46 L458.75,355.45 L461.32,355.44 L463.88,355.39 L469.01,355.39   L474.14,355.39 L479.27,355.32 L481.84,355.28 L484.40,355.28 L486.97,355.08 L489.54,355.05 L492.10,355.01 L497.23,355.00   L499.80,354.98 L504.93,354.90 L510.06,354.88 L515.19,354.85 L520.32,354.79 L522.88,354.41 L525.45,354.39 L528.01,354.38   L533.15,354.37 L538.28,354.21 L540.84,353.77 L545.97,353.19 L548.54,352.96 L551.10,352.91 L553.67,352.71 L558.80,352.48   L561.36,352.39 L566.49,352.37 L571.62,352.14 L576.76,351.75 L581.89,351.51 L584.45,351.11 L589.58,351.00 L594.71,350.73   L599.84,349.49 L602.41,348.88 L604.97,348.13 L610.10,348.05 L615.24,347.76 L617.80,347.52 L622.93,346.92 L628.06,344.66   L630.63,344.66 L635.76,344.38 L638.32,342.41 L640.89,342.26 L643.45,341.73 L646.02,341.19 L648.85,340.00  "/>	<use xlink:href="#gpPt3" transform="translate(381.79,355.71) scale(3.00)" color="rgb(  0,   0, 128)"/>
</g>
	</g>
	<g id="gnuplot_plot_13b"><title>Infer</title>
<g fill="none" color="black" stroke="currentColor" stroke-width="2.00" stroke-linecap="butt" stroke-linejoin="miter">
</g>
	</g>
	<g id="gnuplot_plot_14b"><title>Korn</title>
<g fill="none" color="black" stroke="currentColor" stroke-width="2.00" stroke-linecap="butt" stroke-linejoin="miter">
	<path stroke="rgb(  0, 139, 139)" d="M379.23,341.73 L381.79,341.41 L384.36,341.38 L386.92,341.26 L389.49,341.13 L392.05,341.06 L394.62,341.06 L397.18,341.00   L399.75,340.96 L402.32,340.94 L404.88,340.92 L407.45,340.91 L410.01,340.83 L412.58,340.81 L415.14,340.78 L417.71,340.72   L420.27,340.71 L422.84,340.69 L425.40,340.62 L427.97,340.57 L430.53,340.44 L433.10,340.44 L435.66,340.31 L438.23,340.30   L440.79,340.27 L443.36,340.03 L444.21,340.00  "/>	<use xlink:href="#gpPt0" transform="translate(379.23,341.73) scale(3.00)" color="rgb(  0, 139, 139)"/>
</g>
	</g>
	<g id="gnuplot_plot_15b"><title>Mopsa</title>
<g fill="none" color="black" stroke="currentColor" stroke-width="2.00" stroke-linecap="butt" stroke-linejoin="miter">
</g>
	</g>
	<g id="gnuplot_plot_16b"><title>Nacpa</title>
<g fill="none" color="black" stroke="currentColor" stroke-width="2.00" stroke-linecap="butt" stroke-linejoin="miter">
	<path stroke="rgb(148,   0, 211)" stroke-dasharray=" 5,8" d="M379.23,353.56 L381.79,353.27 L386.92,353.18 L392.05,353.02 L397.18,353.01 L402.32,353.00 L407.45,352.89 L410.01,352.87   L415.14,352.85 L420.27,352.84 L425.40,352.84 L430.53,352.81 L435.66,352.74 L440.79,352.73 L445.93,352.73 L451.06,352.68   L456.19,352.66 L461.32,352.66 L466.45,352.64 L471.58,352.60 L476.71,352.49 L479.27,352.48 L481.84,352.47 L486.97,352.45   L489.54,352.43 L494.67,352.37 L499.80,352.29 L504.93,352.28 L510.06,352.28 L512.62,352.21 L517.75,352.08 L522.88,352.03   L525.45,351.86 L528.01,351.80 L530.58,351.76 L533.15,351.61 L535.71,351.34 L538.28,351.32 L543.41,351.28 L548.54,351.12   L551.10,350.91 L553.67,350.76 L556.23,350.53 L561.36,350.36 L566.49,349.86 L569.06,349.75 L571.62,349.27 L574.19,349.10   L576.76,349.04 L581.89,348.95 L584.45,348.81 L589.58,348.44 L592.15,347.30 L594.71,346.57 L597.28,345.33 L602.41,343.87   L607.54,343.67 L610.10,343.63 L612.67,343.05 L615.24,342.49 L617.80,342.28 L620.37,341.56 L622.93,341.18 L626.20,340.00    "/>	<use xlink:href="#gpPt13" transform="translate(379.23,353.56) scale(2.10)" color="rgb(148,   0, 211)"/>
</g>
	</g>
	<g id="gnuplot_plot_17b"><title>PeSCo-CPA</title>
<g fill="none" color="black" stroke="currentColor" stroke-width="2.00" stroke-linecap="butt" stroke-linejoin="miter">
</g>
	</g>
	<g id="gnuplot_plot_18b"><title>Pinaka</title>
<g fill="none" color="black" stroke="currentColor" stroke-width="2.00" stroke-linecap="butt" stroke-linejoin="miter">
	<path stroke="rgb(190, 190, 190)" stroke-dasharray=" 2,4" d="M381.79,357.06 L384.36,357.04 L389.49,357.02 L392.05,356.97 L397.18,356.89 L402.32,356.89 L407.45,356.89 L412.58,356.88   L417.71,356.88 L420.27,356.87 L425.40,356.87 L430.53,356.87 L433.10,356.86 L438.23,356.86 L443.36,356.86 L448.49,356.85   L451.06,356.85 L453.62,356.85 L458.75,356.85 L461.32,356.85 L466.45,356.84 L469.01,356.84 L474.14,356.84 L479.27,356.84   L481.84,356.84 L484.40,356.84 L486.97,356.84 L492.10,356.84 L494.67,356.83 L497.23,356.83 L499.80,356.82 L504.93,356.82   L507.49,356.81 L510.06,356.80 L512.62,356.80 L515.19,356.79 L517.75,356.76 L520.32,356.71 L525.45,356.69 L530.58,356.68   L535.71,356.65 L538.28,356.65 L543.41,356.65 L545.97,356.65 L551.10,356.63 L556.23,356.63 L558.80,356.62 L563.93,356.61   L566.49,356.55 L569.06,356.55 L571.62,356.49 L576.76,356.47 L581.89,356.45 L587.02,356.42 L589.58,356.41 L594.71,355.95   L599.84,355.88 L604.97,355.17 L610.10,354.59 L615.24,353.77 L620.37,353.22 L622.93,352.58 L625.50,352.53 L628.06,352.01   L630.63,351.64 L635.76,349.69 L638.26,340.00  "/>	<use xlink:href="#gpPt5" transform="translate(381.79,357.06) scale(2.10)" color="rgb(190, 190, 190)"/>
</g>
	</g>
	<g id="gnuplot_plot_19b"><title>SVF-SVC</title>
<g fill="none" color="black" stroke="currentColor" stroke-width="2.00" stroke-linecap="butt" stroke-linejoin="miter">
</g>
	</g>
	<g id="gnuplot_plot_20b"><title>Symbiotic</title>
<g fill="none" color="black" stroke="currentColor" stroke-width="2.00" stroke-linecap="butt" stroke-linejoin="miter">
	<path stroke="rgb(255, 165,   0)" d="M381.79,351.96 L386.92,351.93 L392.05,351.91 L397.18,351.91 L402.32,351.91 L407.45,351.89 L412.58,351.87 L417.71,351.87   L422.84,351.86 L427.97,351.85 L433.10,351.81 L438.23,351.80 L443.36,351.79 L448.49,351.76 L453.62,351.75 L458.75,351.72   L463.88,351.71 L469.01,351.68 L474.14,351.68 L479.27,351.59 L484.40,351.55 L489.54,351.46 L494.67,351.43 L499.80,351.39   L504.93,351.36 L510.06,351.30 L515.19,351.21 L520.32,351.20 L525.45,350.45 L528.01,350.42 L533.15,350.41 L535.71,350.40   L538.28,350.35 L540.84,350.33 L545.97,350.32 L548.54,350.31 L551.10,350.28 L553.67,350.27 L556.23,350.24 L558.80,350.22   L561.36,350.16 L563.93,350.15 L566.49,350.12 L569.06,350.10 L571.62,350.08 L574.19,349.92 L576.76,349.82 L579.32,349.75   L584.45,349.36 L587.02,349.10 L589.58,349.07 L592.15,349.06 L594.71,349.03 L597.28,348.77 L599.84,348.72 L602.41,348.62   L604.97,348.53 L607.54,348.46 L610.10,348.11 L612.67,347.92 L615.24,347.79 L617.80,347.35 L622.93,347.19 L628.06,345.30   L633.19,345.22 L635.76,345.22 L638.32,344.75 L643.45,344.45 L646.02,343.82 L648.58,343.67 L651.15,343.62 L653.71,343.58   L656.28,342.32 L658.85,341.85 L661.41,341.61 L663.98,340.89 L665.87,340.00  "/>	<use xlink:href="#gpPt5" transform="translate(381.79,351.96) scale(3.00)" color="rgb(255, 165,   0)"/>
</g>
	</g>
	<g id="gnuplot_plot_21b"><title>Theta</title>
<g fill="none" color="black" stroke="currentColor" stroke-width="2.00" stroke-linecap="butt" stroke-linejoin="miter">
</g>
	</g>
	<g id="gnuplot_plot_22b"><title>UAutomizer</title>
<g fill="none" color="black" stroke="currentColor" stroke-width="2.00" stroke-linecap="butt" stroke-linejoin="miter">
</g>
	</g>
	<g id="gnuplot_plot_23b"><title>UKojak</title>
<g fill="none" color="black" stroke="currentColor" stroke-width="2.00" stroke-linecap="butt" stroke-linejoin="miter">
</g>
	</g>
	<g id="gnuplot_plot_24b"><title>UTaipan</title>
<g fill="none" color="black" stroke="currentColor" stroke-width="2.00" stroke-linecap="butt" stroke-linejoin="miter">
</g>
	</g>
	<g id="gnuplot_plot_25b"><title>VeriAbs</title>
<g fill="none" color="black" stroke="currentColor" stroke-width="2.00" stroke-linecap="butt" stroke-linejoin="miter">
</g>
	</g>
	<g id="gnuplot_plot_26b"><title>VeriAbsL</title>
<g fill="none" color="black" stroke="currentColor" stroke-width="2.00" stroke-linecap="butt" stroke-linejoin="miter">
</g>
	</g>
<g fill="none" color="black" stroke="currentColor" stroke-width="2.00" stroke-linecap="butt" stroke-linejoin="miter">
</g>
<g fill="none" color="black" stroke="black" stroke-width="1.00" stroke-linecap="butt" stroke-linejoin="miter">
</g>
<g fill="none" color="black" stroke="currentColor" stroke-width="1.00" stroke-linecap="butt" stroke-linejoin="miter">
	<path stroke="black" d="M56.00,340.00 L56.00,357.60 L787.11,357.60 L787.11,340.00 L56.00,340.00 Z  "/>	<g transform="translate(421.55,390.20)" stroke="none" fill="black" font-family="Helvetica" font-size="8.00" text-anchor="middle">
		<text><tspan font-family="Helvetica">Cumulative score</tspan></text>
	</g>
</g>
<g fill="none" color="black" stroke="currentColor" stroke-width="1.00" stroke-linecap="butt" stroke-linejoin="miter">
</g>
<g fill="none" color="black" stroke="currentColor" stroke-width="1.00" stroke-linecap="butt" stroke-linejoin="miter">
</g>
</g>
</svg>